<svg xmlns="http://www.w3.org/2000/svg" width="1200" height="900" class="cabsvg" data-panels="3" viewBox="0 0 480 360" role="img" aria-label="Náhľad skrinky 160 × 80 × 60 cm, Cool White"><rect width="480" height="360" fill="#fafafa"/><style>.cabsvg__dim line{stroke:#737a80;stroke-width:.7}.cabsvg__dim text{fill:#4b555c;font:10px Arial,sans-serif}</style><defs><radialGradient id="R0shadow"><stop offset="0%" stop-color="#000" stop-opacity="0.55"></stop><stop offset="100%" stop-color="#000" stop-opacity="0"></stop></radialGradient><linearGradient id="R0water" x1="0" y1="0" x2="0" y2="1"><stop offset="0%" stop-color="#2b6c7d" stop-opacity="0.55"></stop><stop offset="100%" stop-color="#123842" stop-opacity="0.8"></stop></linearGradient><linearGradient id="R0ledglow" x1="0" y1="0" x2="0" y2="1"><stop offset="0%" stop-color="#47c7e8" stop-opacity="0.38"></stop><stop offset="100%" stop-color="#47c7e8" stop-opacity="0"></stop></linearGradient></defs><ellipse cx="253" cy="279.2" rx="207" ry="7" fill="url(#R0shadow)"></ellipse><polygon points="406,86.19999999999999 460,53.79999999999999 460,233.79999999999998 406,266.2" fill="#eef0f0"></polygon><polygon points="406,86.19999999999999 460,53.79999999999999 460,233.79999999999998 406,266.2" fill="#000" opacity="0.42"></polygon><rect x="46" y="86.19999999999999" width="360" height="180" fill="#eef0f0"></rect><rect data-door="1" x="46" y="91.14999999999999" width="118.93333333333334" height="175.05" fill="#eef0f0" rx="1"></rect><rect data-door="2" x="166.53333333333333" y="91.14999999999999" width="118.93333333333334" height="175.05" fill="#eef0f0" rx="1"></rect><rect data-door="3" x="287.06666666666666" y="91.14999999999999" width="118.93333333333334" height="175.05" fill="#eef0f0" rx="1"></rect><polygon points="43.3,86.19999999999999 408.7,86.19999999999999 462.7,53.79999999999999 97.3,53.79999999999999" fill="#eef0f0"></polygon><polygon points="43.3,86.19999999999999 408.7,86.19999999999999 462.7,53.79999999999999 97.3,53.79999999999999" fill="#fff" opacity="0.1"></polygon><rect x="43.3" y="86.19999999999999" width="365.4" height="4.95" fill="#eef0f0"></rect><rect x="43.3" y="86.19999999999999" width="365.4" height="4.95" fill="#000" opacity="0.12"></rect><g><g><rect x="52.5" y="266.2" width="5" height="3" fill="#3d4348"></rect><circle cx="55" cy="272.2" r="4" fill="#2b2e31" stroke="#3d4348" stroke-width="1.4"></circle><circle cx="55" cy="272.2" r="1.4" fill="#6d7276"></circle></g><g><rect x="223.5" y="266.2" width="5" height="3" fill="#3d4348"></rect><circle cx="226" cy="272.2" r="4" fill="#2b2e31" stroke="#3d4348" stroke-width="1.4"></circle><circle cx="226" cy="272.2" r="1.4" fill="#6d7276"></circle></g><g><rect x="394.5" y="266.2" width="5" height="3" fill="#3d4348"></rect><circle cx="397" cy="272.2" r="4" fill="#2b2e31" stroke="#3d4348" stroke-width="1.4"></circle><circle cx="397" cy="272.2" r="1.4" fill="#6d7276"></circle></g><g opacity="0.5"><rect x="456" y="263.2" width="4" height="7" fill="#3d4348"></rect></g></g><g class="cabsvg__dim"><line x1="46" y1="294.2" x2="406" y2="294.2"></line><line x1="46" y1="290.7" x2="46" y2="297.7"></line><line x1="406" y1="290.7" x2="406" y2="297.7"></line><text x="226" y="307.2" text-anchor="middle" dominant-baseline="auto">160 cm</text></g><g class="cabsvg__dim"><line x1="28" y1="86.19999999999999" x2="28" y2="276.2"></line><line x1="31.5" y1="86.19999999999999" x2="24.5" y2="86.19999999999999"></line><line x1="31.5" y1="276.2" x2="24.5" y2="276.2"></line><text x="22" y="181.2" text-anchor="end" dominant-baseline="middle" transform="rotate(-90 22 181.2)">80 cm</text></g><g class="cabsvg__dim"><line x1="414" y1="92.19999999999999" x2="468" y2="59.79999999999999"></line><line x1="412.19926485600365" y1="89.19877476000609" x2="415.80073514399635" y2="95.20122523999389"></line><line x1="466.19926485600365" y1="56.79877476000608" x2="469.80073514399635" y2="62.8012252399939"></line><text x="441" y="75.99999999999999" text-anchor="middle" dominant-baseline="middle">60 cm</text></g></svg>