<svg xmlns="http://www.w3.org/2000/svg" width="1200" height="900" class="cabsvg" data-panels="3" viewBox="0 0 480 360" role="img" aria-label="Náhľad skrinky 120 × 80 × 40 cm, Cool White"><rect width="480" height="360" fill="#fafafa"/><style>.cabsvg__dim line{stroke:#737a80;stroke-width:.7}.cabsvg__dim text{fill:#4b555c;font:10px Arial,sans-serif}</style><defs><radialGradient id="R0shadow"><stop offset="0%" stop-color="#000" stop-opacity="0.55"></stop><stop offset="100%" stop-color="#000" stop-opacity="0"></stop></radialGradient><linearGradient id="R0water" x1="0" y1="0" x2="0" y2="1"><stop offset="0%" stop-color="#2b6c7d" stop-opacity="0.55"></stop><stop offset="100%" stop-color="#123842" stop-opacity="0.8"></stop></linearGradient><linearGradient id="R0ledglow" x1="0" y1="0" x2="0" y2="1"><stop offset="0%" stop-color="#47c7e8" stop-opacity="0.38"></stop><stop offset="100%" stop-color="#47c7e8" stop-opacity="0"></stop></linearGradient></defs><ellipse cx="253" cy="309.3764705882353" rx="206.99999999999997" ry="7" fill="url(#R0shadow)"></ellipse><polygon points="411.2941176470588,52.84705882352944 459.99999999999994,23.623529411764736 459.99999999999994,267.15294117647056 411.2941176470588,296.3764705882353" fill="#eef0f0"></polygon><polygon points="411.2941176470588,52.84705882352944 459.99999999999994,23.623529411764736 459.99999999999994,267.15294117647056 411.2941176470588,296.3764705882353" fill="#000" opacity="0.42"></polygon><rect x="46.00000000000003" y="52.84705882352944" width="365.2941176470588" height="243.52941176470586" fill="#eef0f0"></rect><rect data-door="1" x="53.305882352941204" y="66.85000000000002" width="115.47352941176469" height="222.2205882352941" fill="#eef0f0" rx="1"></rect><rect data-door="2" x="170.91029411764706" y="66.85000000000002" width="115.47352941176469" height="222.2205882352941" fill="#eef0f0" rx="1"></rect><rect data-door="3" x="288.5147058823529" y="66.85000000000002" width="115.47352941176469" height="222.2205882352941" fill="#eef0f0" rx="1"></rect><polygon points="42.34705882352944,52.84705882352944 414.94705882352935,52.84705882352944 463.6529411764705,23.623529411764736 91.05294117647061,23.623529411764736" fill="#eef0f0"></polygon><polygon points="42.34705882352944,52.84705882352944 414.94705882352935,52.84705882352944 463.6529411764705,23.623529411764736 91.05294117647061,23.623529411764736" fill="#fff" opacity="0.1"></polygon><rect x="42.34705882352944" y="52.84705882352944" width="372.59999999999997" height="6.697058823529412" fill="#eef0f0"></rect><rect x="42.34705882352944" y="52.84705882352944" width="372.59999999999997" height="6.697058823529412" fill="#000" opacity="0.12"></rect><g><g><rect x="52.50000000000003" y="296.3764705882353" width="5" height="3" fill="#3d4348"></rect><circle cx="55.00000000000003" cy="302.3764705882353" r="4" fill="#2b2e31" stroke="#3d4348" stroke-width="1.4"></circle><circle cx="55.00000000000003" cy="302.3764705882353" r="1.4" fill="#6d7276"></circle></g><g><rect x="399.7941176470588" y="296.3764705882353" width="5" height="3" fill="#3d4348"></rect><circle cx="402.2941176470588" cy="302.3764705882353" r="4" fill="#2b2e31" stroke="#3d4348" stroke-width="1.4"></circle><circle cx="402.2941176470588" cy="302.3764705882353" r="1.4" fill="#6d7276"></circle></g><g opacity="0.5"><rect x="455.99999999999994" y="293.3764705882353" width="4" height="7" fill="#3d4348"></rect></g></g><g class="cabsvg__dim"><line x1="46.00000000000003" y1="324.3764705882353" x2="411.2941176470588" y2="324.3764705882353"></line><line x1="46.00000000000003" y1="320.8764705882353" x2="46.00000000000003" y2="327.8764705882353"></line><line x1="411.2941176470588" y1="320.8764705882353" x2="411.2941176470588" y2="327.8764705882353"></line><text x="228.6470588235294" y="337.3764705882353" text-anchor="middle" dominant-baseline="auto">120 cm</text></g><g class="cabsvg__dim"><line x1="28.00000000000003" y1="52.84705882352944" x2="28.00000000000003" y2="306.3764705882353"></line><line x1="31.50000000000003" y1="52.84705882352944" x2="24.50000000000003" y2="52.84705882352944"></line><line x1="31.50000000000003" y1="306.3764705882353" x2="24.50000000000003" y2="306.3764705882353"></line><text x="22.00000000000003" y="179.61176470588236" text-anchor="end" dominant-baseline="middle" transform="rotate(-90 22.00000000000003 179.61176470588236)">80 cm</text></g><g class="cabsvg__dim"><line x1="419.2941176470588" y1="58.84705882352944" x2="467.99999999999994" y2="29.623529411764736"></line><line x1="417.49338250306243" y1="55.84583358353553" x2="421.09485279105513" y2="61.848284063523344"></line><line x1="466.1992648560036" y1="26.622304171770832" x2="469.8007351439963" y2="32.62475465175864"></line><text x="443.6470588235294" y="44.235294117647086" text-anchor="middle" dominant-baseline="middle">40 cm</text></g></svg>