<svg xmlns="http://www.w3.org/2000/svg" viewBox="0 0 64 64">
  <rect width="64" height="64" rx="14" fill="#101413"/>
  <g transform="translate(10.880 13.252) scale(0.11573)"><g fill="#F7F6F2" color="#F7F6F2" fill-rule="evenodd"><path d="M 5.0 317.501 C 5.0 316.987 14.78 299.724 28.494 276.029 C 43.1 250.794 157.131 49.908 172.975 21.5 C 176.963 14.35 180.92 7.713 181.768 6.75 C 183.11 5.227 185.293 5.0 198.62 5.0 L 213.93 5.0 L 217.533 8.163 C 219.515 9.903 222.511 14.066 224.192 17.413 C 225.873 20.761 242.545 51.625 261.241 86.0 C 321.703 197.168 326.556 206.136 339.983 231.5 C 347.261 245.25 354.249 258.3 355.51 260.5 C 358.342 265.438 359.652 271.0 357.984 271.0 C 355.765 271.0 351.021 266.876 346.536 261.047 C 341.534 254.546 333.329 248.694 319.45 241.73 C 307.948 235.958 296.395 232.34 284.76 230.866 C 279.667 230.221 274.983 229.2 274.351 228.597 C 273.72 227.993 264.18 210.4 253.152 189.5 C 236.604 158.138 202.883 95.993 198.325 88.459 C 197.679 87.391 196.952 86.738 196.71 87.008 C 196.176 87.604 168.707 135.964 163.911 144.75 L 160.5 151.0 L 152.0 153.594 C 140.697 157.043 130.797 162.345 124.207 168.478 L 118.812 173.5 L 137.156 173.506 C 154.134 173.511 156.24 173.718 165.442 176.283 C 177.6 179.672 191.457 186.123 201.508 193.071 C 209.541 198.624 221.271 209.777 231.143 221.246 C 236.134 227.045 236.944 228.476 235.837 229.538 C 233.073 232.192 216.107 239.978 207.915 242.352 C 203.236 243.708 194.928 245.32 189.454 245.934 C 162.104 249.002 146.416 252.991 124.464 262.457 C 102.91 271.753 83.352 283.26 57.947 301.593 C 40.189 314.408 30.632 318.0 14.29 318.0 C 9.18 318.0 5.0 317.775 5.0 317.501 Z  M 194.365 217.927 C 196.112 216.553 197.0 214.893 197.0 213.0 C 197.0 209.836 193.066 206.0 189.82 206.0 C 187.271 206.0 183.0 210.384 183.0 213.0 C 183.0 215.616 187.271 220.0 189.82 220.0 C 190.871 220.0 192.916 219.067 194.365 217.927 Z  M 220.536 302.955 C 209.312 301.193 198.658 296.748 187.92 289.346 C 184.851 287.231 176.434 280.562 169.216 274.528 C 156.61 263.988 156.16 263.481 157.796 261.671 C 163.215 255.68 175.156 253.661 188.5 256.482 C 199.749 258.86 210.296 259.429 218.731 258.115 C 226.045 256.975 231.057 255.477 252.161 248.125 C 266.894 242.992 278.756 241.379 289.73 243.016 C 299.429 244.463 310.007 248.616 319.324 254.634 C 328.017 260.249 341.569 273.211 347.735 281.809 C 351.975 287.721 359.409 302.925 358.502 303.831 C 358.277 304.057 356.384 302.907 354.296 301.276 C 339.089 289.398 315.747 282.664 298.223 285.102 C 288.732 286.422 276.535 290.215 268.0 294.5 C 257.452 299.796 245.799 303.025 235.578 303.483 C 230.585 303.707 223.816 303.469 220.536 302.955 Z  M 50.513 203.23 C 43.354 193.088 33.339 183.549 25.336 179.25 L 19.5 176.114 L 23.236 174.549 C 30.039 171.7 37.144 170.748 47.928 171.24 C 56.186 171.617 60.032 172.311 65.499 174.41 C 69.348 175.888 72.894 177.494 73.379 177.979 C 73.886 178.486 70.499 185.816 65.38 195.286 L 56.5 211.712 L 50.513 203.23 Z "/></g></g>
</svg>
