<svg width="406" height="40" viewBox="0 0 406 40" fill="none" xmlns="http://www.w3.org/2000/svg">
<g clip-path="url(#clip0_185_2208)">
<path d="M16.0754 19.6187C16.4281 19.6129 16.7173 19.6217 17.0665 19.6866C17.1842 19.7915 17.2631 19.8815 17.4165 19.914L17.6763 19.9162C18.0217 19.8515 18.8952 19.9292 19.0884 19.767C19.202 20.0814 19.4804 19.9623 19.7021 19.9213C19.7879 19.9621 19.9827 20.0588 20.0734 20.0595C20.4392 20.2871 20.4189 20.566 20.565 20.8983C20.5929 20.9617 20.9463 21.0188 21.0806 21.0803L21.2089 21.2573C21.05 21.5033 20.9432 21.5657 20.6493 21.6279L20.6255 21.6327L20.6276 21.673C20.5059 22.6935 20.7457 24.1045 20.5823 24.9988L20.5508 25.3059C20.5342 25.5434 20.5213 25.6685 20.4758 25.9047C20.2352 25.7891 20.0972 25.7255 19.9031 25.5287L19.7989 25.4666C19.4639 25.2392 19.4526 24.8822 19.4226 24.5125C19.319 24.4988 19.3004 24.492 19.2041 24.4509C19.0202 24.2036 19.0722 21.5918 19.0585 21.0722C18.76 21.0112 18.187 21.0924 17.8815 21.0799C17.4099 21.0606 16.7326 21.0661 16.2937 21.0464C15.8478 21.0264 14.1811 21.1086 13.8802 21.0052C13.7875 20.8622 13.828 20.5262 13.8406 20.3485C13.9139 20.0174 13.8501 19.9983 14.1685 19.8858C14.5061 19.8603 14.6788 19.8635 15.0178 19.8844C15.499 19.8642 15.655 19.6632 16.0754 19.6187Z" fill="#ACABAC"/>
<path d="M19.0884 19.7666C19.202 20.0811 19.4804 19.962 19.7021 19.9209C19.7879 19.9617 19.9828 20.0584 20.0734 20.0591C20.4392 20.2867 20.4189 20.5657 20.5651 20.898C20.5929 20.9614 20.9463 21.0185 21.0806 21.08L21.2089 21.257C21.05 21.5029 20.9432 21.5654 20.6493 21.6275L20.6255 21.6323L20.6276 21.6726C20.5059 22.6931 20.7457 24.1041 20.5823 24.9984L20.5508 25.3055C20.5342 25.543 20.5213 25.6682 20.4758 25.9043C20.2353 25.7887 20.0972 25.7252 19.9031 25.5284L19.7989 25.4662C19.4639 25.2388 19.4526 24.8819 19.4226 24.5121C19.5563 24.2036 19.532 23.7531 19.5319 23.4093C19.5123 23.2982 19.4984 23.1438 19.4845 23.0283C19.4503 22.5001 19.4333 21.9871 19.4553 21.4582C19.4643 21.2395 19.514 20.8179 19.4138 20.6439C19.5155 20.5309 19.5776 20.4286 19.6087 20.2813C19.4969 19.7987 18.1029 19.9249 17.6763 19.9158C18.0217 19.8512 18.8952 19.9289 19.0884 19.7666Z" fill="#737373"/>
<path d="M19.5319 23.4095C19.5942 22.7086 19.1023 20.4492 20.3016 21.0624C20.0041 22.3413 20.1817 23.8949 20.1485 25.1957C20.1486 25.1932 19.8955 25.3604 19.8839 25.3906C19.8839 25.3904 19.8104 25.4561 19.7989 25.4664C19.4639 25.239 19.4526 24.882 19.4226 24.5123C19.5563 24.2038 19.5319 23.7533 19.5319 23.4095Z" fill="url(#paint0_linear_185_2208)"/>
<path d="M20.6255 21.6327C20.5396 21.4606 20.4938 21.262 20.6202 21.11C20.7554 21.0357 20.9236 21.0676 21.0806 21.0803L21.2089 21.2573C21.05 21.5033 20.9432 21.5657 20.6493 21.6279L20.6255 21.6327Z" fill="#262427"/>
<path d="M19.9031 25.5285C20.0824 25.2923 20.2694 25.3301 20.5508 25.3057C20.5342 25.5431 20.5212 25.6683 20.4757 25.9045C20.2352 25.7889 20.0971 25.7253 19.9031 25.5285Z" fill="#3F3F42"/>
<path d="M13.8406 20.3486C13.8968 20.508 13.9861 20.5846 14.1145 20.697C14.7574 20.72 15.626 20.6794 16.2821 20.6523C17.1052 20.6184 18.7149 20.7722 19.4138 20.6445C19.514 20.8185 19.4643 21.24 19.4552 21.4587C19.4333 21.9877 19.4503 22.5006 19.4845 23.0288C19.4984 23.1444 19.5123 23.2987 19.5319 23.4099C19.532 23.7537 19.5563 24.2042 19.4226 24.5127C19.319 24.499 19.3004 24.4922 19.2041 24.4511C19.0202 24.2038 19.0722 21.592 19.0585 21.0724C18.76 21.0114 18.187 21.0926 17.8815 21.0801C17.4099 21.0608 16.7326 21.0662 16.2937 21.0466C15.8478 21.0266 14.1811 21.1088 13.8802 21.0054C13.7875 20.8623 13.828 20.5264 13.8406 20.3486Z" fill="url(#paint1_linear_185_2208)"/>
<path d="M19.0585 21.0721C19.1841 21.0244 19.2008 21.0186 19.3305 21.0595C19.3649 21.1122 19.1717 22.6942 19.4844 23.0285C19.4984 23.1441 19.5123 23.2984 19.5319 23.4096C19.5319 23.7534 19.5563 24.2039 19.4226 24.5123C19.3189 24.4987 19.3003 24.4919 19.204 24.4507C19.0202 24.2035 19.0722 21.5917 19.0585 21.0721Z" fill="#3F3F42"/>
<path d="M16.0753 19.6187C16.428 19.6129 16.7172 19.6217 17.0664 19.6866C17.1841 19.7915 17.263 19.8815 17.4164 19.914C17.316 19.9224 17.1867 19.9491 17.0845 19.9661C16.3739 20.0843 15.7226 19.9908 15.0177 19.8844C15.4989 19.8642 15.6549 19.6632 16.0753 19.6187Z" fill="#3F3F42"/>
<path d="M20.5389 14.3711L23.7591 14.34C24.0395 14.3388 24.9664 14.3221 25.1977 14.3568C25.3689 14.3682 25.6673 14.3785 25.8232 14.4203C26.0026 14.4289 26.0195 14.4 26.1417 14.4883C26.1111 14.6811 25.9217 14.7552 25.8327 14.9825L25.7627 15.0846C25.6486 15.115 25.3899 15.2386 25.3046 15.2396C24.8615 15.2449 24.4141 15.1993 23.97 15.2103C23.3642 15.1803 21.1318 15.4301 20.6533 15.3309C20.4539 15.4348 20.5496 15.6021 20.5456 15.8118C20.53 16.9023 20.4803 18.5164 20.5495 19.5787L20.5735 19.6939C20.5654 19.7929 20.5437 19.9338 20.5701 20.0239L20.5478 20.0718C20.3334 20.1115 20.29 20.1015 20.0733 20.0594C19.9827 20.0587 19.7878 19.962 19.702 19.9212C19.4803 19.9622 19.2019 20.0813 19.0883 19.7669C19.0468 19.5335 19.0693 18.4761 19.0735 18.1915C19.0875 17.245 19.0802 16.3601 19.0449 15.4129C18.6823 15.4823 18.2136 15.5226 17.8396 15.5646C17.7661 15.5066 17.7547 15.3961 17.6115 15.3588C17.5538 15.3437 17.4079 15.2425 17.3504 15.2046L17.3623 15.0915C17.3252 15.1103 17.3395 15.1112 17.3047 15.1101C17.4017 15.0412 17.6639 15.0073 17.8259 14.956C18.2468 14.8689 18.86 15.0396 19.5005 14.8872L19.5265 14.8852L19.6088 14.9111C19.9705 14.8467 20.1411 14.7674 20.4588 14.922L20.5285 15.0274C20.5027 14.8464 20.453 14.5335 20.5389 14.3711Z" fill="url(#paint2_linear_185_2208)"/>
<path d="M19.4237 19.5197C19.4341 18.2521 19.3173 16.9844 19.4667 15.7274C19.5334 15.166 19.7515 15.1956 20.2214 15.302C20.3002 15.3379 20.3396 15.3737 20.4104 15.358L20.5113 15.2658C20.608 15.2795 20.5725 15.268 20.6534 15.3308C20.454 15.4347 20.5496 15.602 20.5457 15.8117C20.53 16.9022 20.4803 18.5163 20.5495 19.5786L20.5735 19.6938C20.5655 19.7928 20.5437 19.9337 20.5701 20.0238L20.5478 20.0717C20.3334 20.1114 20.29 20.1014 20.0734 20.0593C19.9827 20.0586 19.7878 19.9619 19.7021 19.9211C19.5842 19.7894 19.5152 19.6685 19.4237 19.5197Z" fill="#959599"/>
<path d="M20.4104 15.3579L20.5113 15.2656C20.608 15.2793 20.5724 15.2679 20.6533 15.3307C20.4539 15.4345 20.5496 15.6018 20.5456 15.8116C20.53 16.9021 20.4803 18.5162 20.5495 19.5785L20.5735 19.6936C20.4203 19.6277 20.38 19.6089 20.2452 19.5123C19.9174 18.9947 20.2713 16.0312 20.2213 15.3018C20.3002 15.3378 20.3396 15.3736 20.4104 15.3579Z" fill="#737373"/>
<path d="M20.5389 14.3711L23.7591 14.34C24.0395 14.3388 24.9664 14.3221 25.1977 14.3568C25.3689 14.3682 25.6672 14.3785 25.8232 14.4203C26.0026 14.4289 26.0194 14.4 26.1417 14.4883C26.1111 14.6811 25.9217 14.7552 25.8327 14.9825C24.9052 14.6653 20.7012 15.1572 20.5285 15.0274C20.5027 14.8464 20.453 14.5335 20.5389 14.3711Z" fill="#ACABAC"/>
<path d="M25.1978 14.3564C25.369 14.3679 25.6674 14.3781 25.8233 14.42C25.7349 14.5646 25.7011 14.8317 25.4315 14.8545C25.1769 14.8761 25.1986 14.5341 25.1978 14.3564Z" fill="#C4C3C6"/>
<path d="M25.0661 19.9906C25.3432 19.9323 26.1488 19.87 26.229 20.2213C26.248 20.5178 26.2508 20.7542 26.2473 21.0516L25.6891 21.0431C25.1204 21.0759 24.4668 21.13 23.9001 21.1258C23.1081 21.1199 22.2598 21.0287 21.4642 21.1141C21.3531 21.126 21.2862 21.1823 21.2089 21.2571L21.0806 21.0801C20.9462 21.0186 20.5929 20.9615 20.565 20.8981C20.4188 20.5658 20.4392 20.2869 20.0734 20.0593C20.29 20.1014 20.3334 20.1114 20.5478 20.0717L20.5701 20.0238C20.6982 20.0001 21.1958 20.0273 21.3655 20.0211C21.7932 20.0057 22.2222 19.9828 22.6497 19.982C23.4127 19.9805 24.3115 20.0655 25.0661 19.9906Z" fill="#ACABAC"/>
<path d="M25.0661 19.9906C25.3432 19.9323 26.1488 19.87 26.229 20.2213C26.248 20.5178 26.2508 20.7542 26.2473 21.0516L25.6891 21.0431C25.1204 21.0759 24.4668 21.13 23.9001 21.1258C23.1081 21.1199 22.2598 21.0287 21.4642 21.1141C21.3531 21.126 21.2862 21.1823 21.2089 21.2571L21.0806 21.0801C20.9462 21.0186 20.5929 20.9615 20.565 20.8981C20.4188 20.5658 20.4392 20.2869 20.0734 20.0593C20.29 20.1014 20.3334 20.1114 20.5478 20.0717C20.5316 20.2636 20.4952 20.525 20.5883 20.6939C20.8442 20.8019 24.2403 20.6385 24.8045 20.7033C24.9816 20.7236 25.1893 20.7451 25.3783 20.7997C25.532 20.8442 25.6851 20.6997 25.8225 20.6076C25.8223 20.5326 25.821 20.4575 25.8186 20.3825C25.9668 20.2897 26.0202 20.3755 26.1566 20.2443C25.9812 20.0135 25.3357 20.0399 25.0661 19.9906Z" fill="#898989"/>
<path d="M26.229 20.2217C26.248 20.5182 26.2508 20.7546 26.2473 21.052L25.6891 21.0435C25.7969 20.956 26.0047 20.5817 26.1355 20.4731C26.2105 20.4109 26.2093 20.32 26.229 20.2217Z" fill="#737373"/>
<path d="M19.0679 14.3225C19.1597 14.2991 19.3884 14.2868 19.4937 14.2783C19.5428 14.4714 19.5973 14.6635 19.5421 14.8622L19.5266 14.8847L19.5005 14.8867C18.8601 15.0391 18.2469 14.8684 17.826 14.9554C17.664 15.0068 17.4017 15.0407 17.3048 15.1096C17.3396 15.1106 17.3253 15.1097 17.3623 15.0909L17.3505 15.2041C17.4079 15.242 17.5539 15.3432 17.6116 15.3582C17.7548 15.3956 17.7661 15.5061 17.8397 15.5641C17.4483 15.6992 17.3119 15.6845 16.901 15.6565C16.6346 15.6903 16.134 15.6726 15.8514 15.6667C15.5092 15.5211 15.1616 15.5794 14.8122 15.6309L14.7205 15.4547L14.7099 15.4201C14.6466 15.3819 14.0301 15.2954 13.8511 15.2514C13.8359 15.0172 13.7333 14.5055 13.9631 14.3644C13.9633 14.3643 14.2271 14.3362 14.2501 14.3338L14.7879 14.3468L15.0162 14.3487L17.5983 14.3452C17.9542 14.3452 18.7284 14.362 19.0679 14.3225Z" fill="#ACABAC"/>
<path d="M13.8511 15.2516C13.8359 15.0174 13.7333 14.5057 13.9631 14.3646C13.9633 14.3645 14.2271 14.3364 14.2501 14.334C14.1601 14.4903 14.1864 14.8177 14.3132 14.9551C14.5735 15.059 17.3284 14.9696 17.826 14.9556C17.664 15.007 17.4017 15.0409 17.3048 15.1098C17.3396 15.1108 17.3253 15.1099 17.3623 15.0911L17.3505 15.2043C17.4079 15.2421 17.5539 15.3434 17.6116 15.3584C17.7548 15.3958 17.7661 15.5063 17.8397 15.5643C17.4483 15.6994 17.3119 15.6846 16.901 15.6567C16.6346 15.6905 16.134 15.6728 15.8514 15.6669C15.5092 15.5213 15.1616 15.5796 14.8122 15.6311L14.7205 15.4549L14.7099 15.4203C14.6466 15.3821 14.0301 15.2956 13.8511 15.2516Z" fill="#525152"/>
<path d="M14.7205 15.4547C15.3352 15.445 15.9316 15.447 16.5389 15.5708C16.6527 15.594 16.7448 15.6118 16.8608 15.6169L16.9009 15.6565C16.6345 15.6903 16.1339 15.6726 15.8513 15.6667C15.5091 15.5211 15.1616 15.5794 14.8121 15.6309L14.7205 15.4547Z" fill="#3F3F42"/>
<path d="M14.7878 14.3477L15.0161 14.3496C15.28 14.4271 15.5951 14.3594 15.9128 14.4033C15.7677 14.5069 15.1842 14.3731 14.9974 14.4316C14.7594 14.5062 14.8619 14.7239 14.5657 14.6119L14.5401 14.6256L14.6071 14.7282C14.833 14.8108 14.8395 14.6732 15.1185 14.7121L15.1316 14.7649C15.0135 14.8379 14.5832 14.9178 14.482 14.8254C14.0689 14.4482 14.4613 14.3974 14.7878 14.3477Z" fill="#DAD8DB"/>
<path d="M19.0679 14.3225C19.1596 14.2991 19.3884 14.2868 19.4937 14.2783C19.5428 14.4714 19.5972 14.6635 19.5421 14.8622L19.5265 14.8847L19.5005 14.8867C19.101 14.8368 19.0494 14.6813 19.0679 14.3225Z" fill="#ACABAC"/>
<path d="M19.6484 9.5924C19.9584 9.56681 20.1929 9.57841 20.5048 9.59115C20.5523 10.6517 20.5365 11.6738 20.5332 12.7345C20.5317 13.2157 20.4914 13.8754 20.5446 14.3308L20.539 14.371C20.453 14.5334 20.5027 14.8463 20.5285 15.0273L20.4588 14.9219C20.1412 14.7673 19.9706 14.8465 19.6089 14.911L19.5265 14.8851L19.5421 14.8626C19.5972 14.6639 19.5428 14.4718 19.4937 14.2787C19.5066 14.0842 19.2486 13.8067 19.2719 13.735C19.4298 13.2479 19.5246 9.76353 19.6484 9.5924Z" fill="url(#paint3_linear_185_2208)"/>
<path d="M19.6484 9.5924C19.9584 9.56681 20.1929 9.57841 20.5048 9.59115C20.5523 10.6517 20.5365 11.6738 20.5332 12.7345C20.5317 13.2157 20.4914 13.8754 20.5446 14.3308C20.3249 14.0468 20.2638 14.1769 20.1109 13.7164C20.1383 13.1721 20.2252 10.254 20.1257 9.86111L20.0791 9.68259C19.9534 9.57419 19.8409 9.60224 19.6484 9.5924Z" fill="url(#paint4_linear_185_2208)"/>
<path d="M20.1109 13.7168C20.2638 14.1773 20.3249 14.0473 20.5446 14.3312L20.539 14.3714C20.4531 14.5338 20.5028 14.8467 20.5285 15.0277L20.4588 14.9223C20.1412 14.7677 19.9706 14.847 19.6089 14.9114C20.1066 14.5583 20.1655 14.2768 20.1109 13.7168Z" fill="#898989"/>
<path d="M20.1257 9.86133C20.2252 10.2543 20.1383 13.1723 20.1108 13.7166C20.1655 14.2766 20.1065 14.5581 19.6088 14.9112L19.5265 14.8853L19.542 14.8629L19.6028 14.8297C19.6598 14.7143 19.9246 14.3956 20.0192 14.2662C20.0146 13.3809 20.0837 12.5435 20.0957 11.6624C20.1038 11.0633 20.0912 10.4599 20.1257 9.86133Z" fill="#959599"/>
<path d="M20.6533 15.3312C21.1318 15.4305 23.3642 15.1807 23.97 15.2106C24.4141 15.1996 24.8615 15.2452 25.3046 15.2399C25.3899 15.2389 25.6486 15.1153 25.7627 15.085C25.6844 15.273 25.2571 15.7834 25.1035 15.7767C24.6326 15.7562 20.6731 15.8637 20.5456 15.8121C20.5496 15.6024 20.4539 15.4351 20.6533 15.3312Z" fill="url(#paint5_linear_185_2208)"/>
<path d="M14.8121 15.6314C15.1615 15.58 15.5091 15.5216 15.8513 15.6673C15.4796 15.7243 15.1586 15.7943 14.8121 15.6314Z" fill="#262427" fill-opacity="0.972549"/>
<path d="M6.71536 4.8018C7.38747 4.88523 9.15122 4.83602 9.93708 4.83594L16.4756 4.83359L27.3681 4.8302C29.3108 4.82855 31.43 4.88672 33.3564 4.7959C33.3727 5.10867 33.3907 5.41078 33.3866 5.72457L33.3923 18.0227L33.3943 21.8352C33.3924 22.3255 33.4059 23.4271 33.3389 23.8691C33.2226 23.9094 33.0132 23.9883 32.9014 24.0107L32.8816 24.3444C32.8347 24.4329 32.8947 24.6023 32.8628 24.7808C32.7741 24.8478 32.759 24.8519 32.651 24.8798C32.3296 24.739 32.5875 24.1917 32.4377 23.9422C32.4153 24.0785 32.3745 24.4837 32.349 24.5718C32.2941 24.752 32.2307 25.023 32.1172 25.1619L32.0434 25.1776C31.9834 25.1205 31.9789 25.1172 31.9409 25.0446C31.9378 24.2776 31.8595 23.4834 32.1986 22.8004C32.4698 21.846 32.4363 18.7064 32.1405 17.7817C31.9999 17.5437 31.9758 17.3867 31.9552 17.1132C31.8886 16.435 31.9541 14.867 31.9541 14.1039L31.9378 9.01707C31.9391 8.11219 31.9782 7.17344 31.9582 6.27344C30.3399 6.19828 28.2938 6.25668 26.6399 6.25633L16.4073 6.26L13.2442 6.26137C11.843 6.26172 10.9986 6.35246 9.63239 6.01605C8.99001 5.93023 8.537 5.78469 7.93102 6.03082C7.68184 5.94148 7.54595 5.81293 7.26466 5.72586C7.26501 6.00535 7.2604 6.30316 7.27239 6.58074C7.26645 6.93137 7.29141 7.63465 7.26501 7.9441C7.07602 7.24836 7.28192 5.86621 7.27321 5.14215C7.00864 5.1741 6.80313 5.12938 6.70192 5.39277C6.69505 5.19484 6.70657 4.99949 6.71536 4.8018Z" fill="#010101"/>
<path d="M6.71536 4.8018C7.38747 4.88523 9.15122 4.83602 9.93708 4.83594L16.4756 4.83359L27.3681 4.8302C29.3108 4.82855 31.43 4.88672 33.3564 4.7959C33.3727 5.10867 33.3907 5.41078 33.3866 5.72457L33.3795 5.68781C33.3309 5.44551 33.2184 5.20426 32.9452 5.16758C32.8332 5.24031 32.8694 5.19781 32.8232 5.35531C32.6497 5.42621 32.6114 5.61031 32.5287 5.64477C32.1085 5.81988 31.4735 5.69301 31.0371 5.74574L18.2064 5.78035L13.8725 5.78106C12.7213 5.78113 10.701 5.73777 9.63239 6.01605C8.99001 5.93023 8.537 5.78469 7.93102 6.03082C7.68184 5.94148 7.54595 5.81293 7.26466 5.72586C7.26501 6.00535 7.2604 6.30316 7.27239 6.58074C7.26645 6.93137 7.29141 7.63465 7.26501 7.9441C7.07602 7.24836 7.28192 5.86621 7.27321 5.14215C7.00864 5.1741 6.80313 5.12938 6.70192 5.39277C6.69505 5.19484 6.70657 4.99949 6.71536 4.8018Z" fill="#737373"/>
<path d="M32.8233 5.3557C32.8695 5.1982 32.8333 5.2407 32.9452 5.16797C33.2185 5.20465 33.331 5.4459 33.3796 5.6882L33.3867 5.72496L33.3924 18.0231L33.3944 21.8356C33.3925 22.3259 33.4059 23.4275 33.339 23.8695C33.2227 23.9098 33.0133 23.9887 32.9015 24.0111L32.8816 24.3448C32.8348 24.4332 32.8947 24.6027 32.8629 24.7812C32.7742 24.8482 32.7591 24.8523 32.6511 24.8802C32.3297 24.7394 32.5876 24.1921 32.4378 23.9426C32.4154 24.0789 32.3745 24.4841 32.3491 24.5722C32.2942 24.7523 32.2308 25.0234 32.1173 25.1623L32.0435 25.178C31.9835 25.1209 31.9789 25.1176 31.941 25.045C31.9379 24.278 31.8595 23.4838 32.1987 22.8007C32.4699 21.8464 32.4363 18.7068 32.1406 17.7821C32.509 17.3843 32.5247 15.163 32.5807 14.5632C32.6169 13.9818 32.5888 12.8798 32.5743 12.2842C32.5905 12.0507 32.5803 11.6601 32.582 11.4142C32.6157 11.179 32.6305 10.6264 32.6459 10.359C32.7105 9.38785 32.7398 8.41473 32.7337 7.44148C32.7357 6.76949 32.7052 6.00887 32.8233 5.3557Z" fill="#959599"/>
<path d="M32.5807 14.5635C32.7505 16.1825 32.7938 18.0989 32.8168 19.7285C32.8252 20.3254 32.8438 21.3398 32.7748 21.8995C32.7118 22.2034 32.6753 22.6024 32.6121 22.9254C32.5791 23.0947 32.4448 23.797 32.4378 23.9429C32.4154 24.0791 32.3745 24.4843 32.3491 24.5725C32.2942 24.7526 32.2308 25.0237 32.1173 25.1625L32.0435 25.1782C31.9835 25.1211 31.9789 25.1179 31.941 25.0452C31.9379 24.2782 31.8595 23.4841 32.1987 22.801C32.4699 21.8466 32.4363 18.7071 32.1406 17.7823C32.509 17.3846 32.5247 15.1633 32.5807 14.5635Z" fill="url(#paint6_linear_185_2208)"/>
<path d="M32.1987 22.8008C32.4579 23.152 32.3026 24.1604 32.3491 24.5722C32.2942 24.7524 32.2308 25.0235 32.1173 25.1623L32.0435 25.178C31.9835 25.1209 31.9789 25.1177 31.941 25.045C31.9379 24.278 31.8595 23.4839 32.1987 22.8008Z" fill="#262427"/>
<path d="M32.4377 23.9428C32.4447 23.797 32.579 23.0946 32.6121 22.9254C32.6752 22.6024 32.7117 22.2033 32.7747 21.8994C32.9168 22.2659 32.58 23.0666 32.6209 23.4538C32.6313 23.5514 32.8482 23.8293 32.9014 24.0113L32.8816 24.345C32.8347 24.4335 32.8947 24.6029 32.8628 24.7814C32.7741 24.8484 32.759 24.8525 32.651 24.8805C32.3296 24.7396 32.5875 24.1923 32.4377 23.9428Z" fill="url(#paint7_linear_185_2208)"/>
<path d="M31.0371 5.7459C31.4735 5.69316 32.1085 5.82004 32.5287 5.64492C32.6114 5.61047 32.6496 5.42637 32.8232 5.35547C32.7052 6.00863 32.7356 6.76926 32.7337 7.44125C32.7397 8.41449 32.7104 9.38762 32.6458 10.3587C32.6304 10.6262 32.6156 11.1788 32.5819 11.4139C32.5091 9.64992 32.3381 7.54414 32.4828 5.81672C32.007 5.78164 31.5028 5.8023 31.0371 5.7459Z" fill="#525152"/>
<path d="M31.9552 17.1136C31.9765 17.0173 31.9943 16.8771 32.0104 16.7761C32.0236 16.8661 32.0258 16.9394 32.0719 17.0165C32.1977 16.7779 32.4789 14.9373 32.5253 14.5563C32.6029 13.9198 32.4851 12.975 32.5742 12.2842C32.5888 12.8798 32.6168 13.9818 32.5807 14.5632C32.5247 15.163 32.5089 17.3843 32.1405 17.782C31.9999 17.544 31.9758 17.3871 31.9552 17.1136Z" fill="#262427"/>
<path d="M6.7019 5.3932C6.80312 5.1298 7.00862 5.17453 7.27319 5.14258C7.2819 5.86664 7.07601 7.24879 7.26499 7.94453C7.2914 7.63508 7.26644 6.9318 7.27237 6.58117C7.26038 6.30359 7.26499 6.00578 7.26464 5.72629C7.54593 5.81336 7.68183 5.94191 7.93101 6.03125C7.52034 6.28277 7.66198 8.59293 7.58655 9.15844C7.55101 10.9434 7.53663 12.7287 7.54351 14.514L7.56944 16.6953C7.57288 16.954 7.59679 17.5211 7.58194 17.7608C7.5687 17.9964 7.5444 18.3468 7.4689 18.5669C7.46253 18.508 7.42308 18.0927 7.40897 18.0765C7.38687 18.3946 7.33901 18.9624 7.2828 19.261C7.18753 19.767 7.3914 21.4327 7.26097 21.8269C7.25854 22.2787 7.26233 23.8369 7.47339 24.1598C7.56558 24.2021 7.53519 24.2053 7.6105 24.1799L7.64335 24.0732C7.67187 24.2695 7.64753 24.3109 7.85554 24.3864C8.25753 24.6154 8.21413 24.9273 8.11296 25.3475C8.10104 25.7557 8.42362 25.9869 8.6505 26.2559C8.66968 26.2786 8.6064 26.5165 8.73038 26.6189C9.51561 27.2455 9.28675 27.3588 9.74901 28.0295C9.96761 28.3467 10.735 29.1245 11.0359 29.458C10.8374 29.481 10.7721 29.4804 10.5835 29.4266C10.3753 29.2301 9.92827 28.64 9.79983 28.602C9.75327 28.6479 9.72015 28.6756 9.66921 28.7168L9.56882 28.6549L9.53448 28.6924C8.96866 28.1698 8.86483 28.2559 8.35757 27.5843C8.18499 27.4361 8.33651 27.1814 8.29394 26.9607C8.24538 26.7092 7.98897 26.872 7.75112 26.7132C7.61714 26.4967 7.74265 26.177 7.803 25.9023C6.89464 25.7659 7.28655 25.323 7.25218 24.579C7.07417 24.4563 6.89749 24.3317 6.72222 24.2051L6.71823 23.0073L6.70948 10.4039C6.72417 8.73371 6.72163 7.06336 6.7019 5.3932Z" fill="url(#paint8_linear_185_2208)"/>
<path d="M6.71826 23.0073C6.73686 23.1549 6.73611 23.2192 6.81881 23.3432L6.86619 23.3504C6.99338 22.9885 6.99357 20.5336 7.03365 19.9804L7.06869 19.9604C7.13232 20.0941 7.15365 20.3538 7.17432 20.5096C7.23365 20.1177 7.11389 19.3878 7.24709 19.0068C7.23275 19.2987 7.17943 21.7319 7.261 21.8269C7.25857 22.2787 7.26236 23.8369 7.47342 24.1598C7.56561 24.2021 7.53521 24.2053 7.61053 24.1799L7.64338 24.0732C7.67189 24.2695 7.64756 24.3109 7.85557 24.3864C8.25756 24.6154 8.21416 24.9273 8.11299 25.3475C8.10107 25.7557 8.42365 25.9869 8.65053 26.2559C8.66971 26.2786 8.60643 26.5165 8.73041 26.6189C9.51564 27.2455 9.28678 27.3588 9.74904 28.0295C9.96764 28.3467 10.7351 29.1245 11.036 29.458C10.8374 29.481 10.7722 29.4804 10.5835 29.4266C10.3754 29.2301 9.9283 28.64 9.79986 28.602C9.7533 28.6479 9.72018 28.6756 9.66924 28.7168L9.56885 28.6549L9.53451 28.6924C8.96869 28.1698 8.86486 28.2559 8.3576 27.5843C8.18502 27.4361 8.33654 27.1814 8.29396 26.9607C8.24541 26.7092 7.989 26.872 7.75115 26.7132C7.61717 26.4967 7.74268 26.177 7.80303 25.9023C6.89467 25.7659 7.28658 25.323 7.25221 24.579C7.0742 24.4563 6.89752 24.3317 6.72225 24.2051L6.71826 23.0073Z" fill="#ACABAC"/>
<path d="M8.73044 26.6191C9.51567 27.2458 9.2868 27.3591 9.74907 28.0298C9.96766 28.347 10.7351 29.1247 11.036 29.4583C10.8375 29.4813 10.7722 29.4806 10.5836 29.4268C10.3754 29.2304 9.92833 28.6403 9.79989 28.6023C9.75333 28.6482 9.7202 28.6759 9.66927 28.717L9.56887 28.6552C9.60911 28.3061 9.69216 28.1616 9.32954 28.0124C9.26087 27.9273 9.24997 27.9223 9.23911 27.8183C9.12473 27.0958 8.89095 27.3928 8.67981 26.9965C8.6479 26.8321 8.6754 26.7797 8.73044 26.6191Z" fill="#262427"/>
<path d="M8.35767 27.5844C8.45771 27.4947 8.64462 27.3613 8.78325 27.3653C9.07536 27.4536 9.07349 27.6013 9.23915 27.8182C9.25001 27.9222 9.26091 27.9272 9.32958 28.0123C9.6922 28.1615 9.60915 28.306 9.56892 28.6551L9.53458 28.6926C8.96876 28.1699 8.86493 28.2561 8.35767 27.5844Z" fill="#DAD8DB"/>
<path d="M7.8556 24.3867C8.25759 24.6157 8.2142 24.9277 8.11302 25.3478C8.08884 25.461 8.07716 25.5355 7.96412 25.5702L7.89556 25.5053C7.78978 25.2177 7.75205 24.6753 7.8556 24.3867Z" fill="#010101"/>
<path d="M7.26463 5.72656C7.54592 5.81363 7.68182 5.94219 7.931 6.03152C7.52033 6.28305 7.66197 8.5932 7.58654 9.15871C7.551 10.9436 7.53662 12.7289 7.5435 14.5143L7.56944 16.6955C7.57287 16.9543 7.59678 17.5213 7.58194 17.7611C7.56869 17.9967 7.5444 18.347 7.46889 18.5671C7.46252 18.5082 7.42307 18.093 7.40897 18.0768C7.38686 18.3948 7.33901 18.9627 7.28279 19.2613C7.18752 19.7672 7.39139 21.433 7.26096 21.8271C7.1794 21.7322 7.23272 19.299 7.24705 19.0071C7.29694 17.6296 7.41682 16.2686 7.47705 14.9184C7.57733 12.6692 7.336 10.228 7.26498 7.9448C7.29139 7.63535 7.26643 6.93207 7.27236 6.58145C7.26037 6.30387 7.26498 6.00605 7.26463 5.72656Z" fill="#3F3F42"/>
<path d="M7.26475 5.72656C7.54603 5.81363 7.68193 5.94219 7.93111 6.03152C7.52045 6.28305 7.66209 8.5932 7.58666 9.15871C7.57092 8.99797 7.57088 8.76086 7.56564 8.59387L7.54267 8.61363C7.53568 8.81262 7.50756 9.18187 7.54787 9.36375L7.49654 9.38074C7.31459 9.05723 7.33506 7.08422 7.27248 6.58145C7.26049 6.30387 7.2651 6.00605 7.26475 5.72656Z" fill="#262427"/>
<path d="M14.7282 30.0156C15.0043 30.1542 15.247 29.8516 15.3214 30.2672C15.3012 30.3395 15.2663 30.4503 15.255 30.5209C15.0935 30.4954 15.0664 30.4647 14.933 30.5142L14.9104 30.5507C14.872 30.69 14.8367 30.892 14.7337 30.9804C14.617 31.0437 14.4693 31.0266 14.3325 31.0245C14.1589 30.9731 14.0568 30.9255 13.898 31.0454C13.8985 31.3761 13.7989 31.4484 13.8262 31.8988C14.2971 32.1221 14.9881 32.8955 15.415 33.2295C15.5559 33.3398 15.8598 33.3857 15.9949 33.4869C16.2993 33.715 16.575 33.9855 16.8908 34.2042C17.3869 34.5479 17.898 34.8602 18.3776 35.2295C18.5893 35.3925 18.6901 35.3226 18.8371 35.5759C18.6349 35.7927 18.2898 35.8965 18.146 35.5795C18.0957 35.636 18.0471 35.6904 17.9948 35.7452C17.624 35.5761 17.5619 35.9761 17.0865 35.4229C16.9573 35.3309 16.7808 35.1132 16.6702 34.9869L16.5634 34.8059C16.4133 34.718 16.2171 34.76 16.0305 34.7709C15.9077 34.6985 15.8152 34.6157 15.7062 34.5246C15.453 34.3542 14.8672 33.6813 14.6274 33.4209C14.4843 33.3438 14.2777 33.4289 14.0195 33.2719C13.4853 32.954 13.1464 32.4059 12.7091 31.9813C12.5895 31.8653 12.3246 31.7684 12.1698 31.6596C12.325 31.5809 12.3118 31.6181 12.3724 31.4875L12.4382 31.3151L12.4625 31.2923L12.4934 31.3005C12.7815 31.3745 13.0403 31.3739 13.1241 31.0463C13.1666 30.9828 13.3143 30.7564 13.3566 30.7138C13.5908 30.4785 13.8169 30.3742 13.9918 30.0784C14.1848 30.0707 14.3942 30.0746 14.5887 30.0744L14.7282 30.0156Z" fill="#737373"/>
<path d="M12.3724 31.4879C12.5075 31.5224 12.6799 31.4799 12.8215 31.4561C13.2696 31.7395 13.4551 32.0021 13.8353 32.3671C13.9445 32.472 14.1521 32.4059 14.2754 32.4997C14.3555 32.5606 14.3603 32.8231 14.4257 32.8762C14.5781 33 14.7061 32.9286 14.8408 33.1213C14.8446 33.2071 14.8418 33.2408 14.8309 33.3263C14.9881 33.4682 15.1678 33.3373 15.3403 33.458C15.3953 33.4965 15.5083 33.7255 15.5613 33.746C15.9928 33.9131 16.1001 33.8793 16.3166 34.3261C16.3491 34.3932 16.5619 34.3436 16.6068 34.4106C16.7766 34.5349 16.8534 34.8086 17.0886 34.7888C17.2994 34.771 17.2395 34.7001 17.4448 34.7525C17.5683 34.9097 17.5954 35.19 17.7008 35.2725C17.8419 35.383 18.1103 35.3076 18.146 35.5798C18.0957 35.6363 18.0471 35.6907 17.9948 35.7455C17.624 35.5764 17.5619 35.9764 17.0865 35.4232C16.9573 35.3312 16.7808 35.1136 16.6702 34.9872L16.5634 34.8062C16.4133 34.7183 16.2171 34.7604 16.0305 34.7712C15.9077 34.6988 15.8152 34.616 15.7062 34.5249C15.453 34.3545 14.8672 33.6816 14.6274 33.4212C14.4843 33.3441 14.2777 33.4292 14.0195 33.2722C13.4853 32.9543 13.1464 32.4062 12.7091 31.9816C12.5895 31.8656 12.3246 31.7688 12.1698 31.6599C12.325 31.5813 12.3118 31.6184 12.3724 31.4879Z" fill="#ACABAC"/>
<path d="M14.6274 33.4209C14.9708 33.4714 15.0692 33.3516 15.2609 33.5534C15.2819 33.6755 15.2813 33.7094 15.2776 33.8294C15.4771 34.1022 15.7138 33.7976 16.0878 34.2123C15.9876 34.2913 15.7881 34.4395 15.7063 34.5246C15.4531 34.3543 14.8672 33.6814 14.6274 33.4209Z" fill="#C4C3C6"/>
<path d="M16.6703 34.9873C16.8936 34.8814 17.0993 34.7751 17.2418 35.0408C17.2577 35.1818 17.1632 35.2994 17.0866 35.4232C16.9573 35.3313 16.7809 35.1136 16.6703 34.9873Z" fill="#DAD8DB"/>
<path d="M13.7046 32.4976C13.9312 32.4985 14.053 32.4714 14.213 32.6138C14.2646 32.7342 14.2284 32.8164 14.1949 32.9444L14.1617 32.9508C13.9805 32.9845 13.9346 32.997 13.7923 32.8989C13.7161 32.7797 13.7179 32.6407 13.7046 32.4976Z" fill="#DAD8DB"/>
<path d="M14.7281 30.0156C15.0043 30.1542 15.247 29.8516 15.3214 30.2672C15.3012 30.3395 15.2663 30.4503 15.2549 30.5209C15.0935 30.4954 15.0663 30.4647 14.933 30.5142L14.9104 30.5507C14.872 30.69 14.8367 30.892 14.7336 30.9804C14.617 31.0437 14.4693 31.0266 14.3325 31.0245C14.1589 30.9731 14.0568 30.9255 13.8979 31.0454C13.8355 31.0103 13.8194 30.962 13.7845 30.8981C13.7839 30.4279 14.31 30.6121 14.5886 30.0744L14.7281 30.0156Z" fill="#C4C3C6"/>
<path d="M14.3325 31.0246C14.3464 30.9189 14.3903 30.8195 14.459 30.7379C14.5922 30.5781 14.7139 30.5658 14.9104 30.5508C14.8721 30.6901 14.8367 30.8921 14.7337 30.9805C14.617 31.0438 14.4693 31.0267 14.3325 31.0246Z" fill="#737373"/>
<path d="M26.7601 30.9609L26.809 30.9664C26.8263 31.3412 26.8857 31.3381 27.2396 31.4437C27.4241 31.426 27.4478 31.4214 27.6177 31.4877L27.6909 31.5469C27.4259 31.9516 27.1668 32.2816 26.7887 32.5918C26.4439 33.0583 26.3591 32.9234 25.9361 33.1507L25.8493 33.2207C25.6387 33.2827 25.478 33.3547 25.3235 33.5176C25.1676 33.717 25.0735 33.8126 24.8947 33.9884C24.7919 34.1713 24.7672 34.2737 24.5742 34.324C24.5523 34.3297 24.5302 34.335 24.5081 34.3398L24.4237 34.3349C24.3261 34.3514 24.2328 34.3722 24.1343 34.3684C24.0825 34.2812 24.1183 34.3119 24.0221 34.2748L23.9121 34.3752L23.8333 34.3368C23.6578 34.296 23.5558 34.2935 23.388 34.3798C23.3165 34.6557 23.332 34.6396 23.5021 34.8855C23.0849 35.5301 22.9787 35.2432 22.4825 35.5259C22.4465 35.4391 22.4199 35.3069 22.3971 35.2125C22.2538 35.2402 22.1375 35.2639 21.997 35.3029L21.7897 35.2995C21.798 35.188 21.8053 35.0765 21.8114 34.9649C21.8947 34.94 22.0217 34.9264 22.0861 34.8908C22.3121 34.766 22.4913 34.4171 22.7498 34.3405C22.7841 34.3303 23.1057 34.3191 23.1808 34.3132C23.3587 34.1954 23.1996 34.2146 23.3378 34.0568C23.554 33.8099 24.4602 33.2782 24.5169 32.9982C24.667 32.8657 24.96 32.8639 25.0965 32.7624C25.5209 32.4469 25.7882 32.1544 26.2524 31.8806C26.2543 31.6855 26.2603 31.4905 26.2705 31.2957C26.5299 31.1839 26.5755 31.18 26.7601 30.9609Z" fill="#525152"/>
<path d="M27.2395 31.443C27.4241 31.4253 27.4478 31.4207 27.6177 31.4869L27.6909 31.5461C27.4259 31.9509 27.1668 32.2809 26.7887 32.591C26.4439 33.0575 26.3591 32.9227 25.9361 33.15C25.8773 32.9266 25.8607 32.8752 25.7416 32.6782C25.8345 32.5307 26.9931 31.6664 27.2395 31.443Z" fill="#C4C3C6"/>
<path d="M27.6176 31.4873L27.6908 31.5465C27.4258 31.9512 27.1667 32.2813 26.7887 32.5914C26.6758 32.4986 26.6591 32.4852 26.5906 32.3555C26.5829 32.0426 26.945 32.1516 27.1377 31.9064C27.2225 31.7986 27.1648 31.7246 27.2551 31.5764C27.3714 31.498 27.4775 31.5006 27.6176 31.4873Z" fill="#DAD8DB"/>
<path d="M25.7415 32.6787C25.8606 32.8757 25.8773 32.927 25.936 33.1505L25.8493 33.2204C25.6387 33.2824 25.478 33.3544 25.3234 33.5173C25.1676 33.7167 25.0735 33.8123 24.8946 33.9881C24.7919 34.171 24.7671 34.2734 24.5742 34.3237C24.5522 34.3295 24.5302 34.3347 24.508 34.3395L24.4237 34.3346C24.326 34.3511 24.2328 34.372 24.1342 34.3681C24.0824 34.2809 24.1182 34.3116 24.0221 34.2745L23.912 34.375L23.8333 34.3365L23.8675 34.3299L23.7985 34.1564C23.856 33.7918 24.2529 33.9635 24.4619 33.5542C24.676 33.135 24.9952 33.5929 25.2728 33.0082C25.4732 32.903 25.6082 32.859 25.7415 32.6787Z" fill="#C4C3C6"/>
<path d="M23.8675 34.3303C23.9389 34.0965 24.0995 33.8554 24.3717 33.8901C24.517 34.0412 24.4586 34.1295 24.4237 34.335C24.326 34.3515 24.2327 34.3724 24.1342 34.3685C24.0824 34.2813 24.1182 34.3121 24.0221 34.2749L23.912 34.3754L23.8333 34.3369L23.8675 34.3303Z" fill="#DAD8DB"/>
<path d="M24.721 33.7509C24.7105 33.7179 24.7096 33.6354 24.7075 33.5964C24.8374 33.3231 25.0885 33.4313 25.3235 33.517C25.1676 33.7164 25.0735 33.812 24.8947 33.9878L24.721 33.7509Z" fill="#DAD8DB"/>
<path d="M24.721 33.751L24.8946 33.9879C24.7919 34.1708 24.7671 34.2732 24.5742 34.3235C24.5522 34.3292 24.5302 34.3345 24.508 34.3393C24.501 34.0369 24.5555 34.0118 24.721 33.751Z" fill="#ACABAC"/>
<path d="M25.7416 32.6787C25.8607 32.8757 25.8773 32.927 25.9361 33.1505L25.8493 33.2204C25.6015 32.9807 25.6167 32.9633 25.2728 33.0082C25.4733 32.903 25.6083 32.859 25.7416 32.6787Z" fill="#ACABAC"/>
<path d="M22.3971 35.2127L22.4281 35.2126C22.3756 34.7411 23.0617 34.7829 23.388 34.3799C23.3165 34.6558 23.332 34.6397 23.5021 34.8856C23.0849 35.5302 22.9787 35.2434 22.4825 35.526C22.4465 35.4392 22.4199 35.307 22.3971 35.2127Z" fill="#C4C3C6"/>
<path d="M9.56888 28.6545L9.66927 28.7163C9.72021 28.6752 9.75333 28.6475 9.7999 28.6016C9.92833 28.6396 10.3754 29.2296 10.5836 29.4261C10.7722 29.4799 10.8375 29.4806 11.036 29.4576L11.5785 29.9925C12.1081 30.4919 12.4217 30.9719 13.1241 31.046C13.0403 31.3737 12.7815 31.3742 12.4935 31.3002L12.4625 31.2921L12.4383 31.3149L12.3724 31.4873C12.3118 31.6179 12.325 31.5807 12.1698 31.6593C12.0899 31.62 12.0082 31.6055 11.9213 31.5846C11.7292 31.4894 11.6417 31.4104 11.4784 31.277C10.9824 30.9249 10.4249 30.2131 9.99103 29.7739C9.52919 29.3063 9.96486 29.0603 9.53455 28.692L9.56888 28.6545Z" fill="#C4C3C6"/>
<path d="M10.5835 29.4268C10.7721 29.4805 10.8374 29.4812 11.0359 29.4582L11.5784 29.9932C12.1081 30.4925 12.4216 30.9725 13.124 31.0466C13.0402 31.3743 12.7814 31.3748 12.4934 31.3009L12.4624 31.2927C12.4708 30.8186 12.2922 31.1217 12.1638 31.0103C11.937 30.8136 11.7517 30.5826 11.498 30.3705C11.2171 30.1094 10.8164 29.7162 10.5835 29.4268Z" fill="#262427"/>
<path d="M11.8605 31.2647C11.9365 30.9845 12.2312 31.0129 12.4013 31.1721L12.4383 31.3153L12.3724 31.4877C12.3118 31.6182 12.325 31.5811 12.1698 31.6597C12.0899 31.6203 12.0082 31.6059 11.9213 31.5849C11.9163 31.433 11.9099 31.4089 11.8605 31.2647Z" fill="#DAD8DB"/>
<path d="M11.4784 31.2777L11.6059 31.1309C11.7587 31.1323 11.7269 31.2222 11.8605 31.265C11.9099 31.4092 11.9163 31.4333 11.9213 31.5852C11.7292 31.49 11.6418 31.4111 11.4784 31.2777Z" fill="#ACABAC"/>
<path d="M30.4097 28.0166C30.515 28.3822 30.461 28.4625 30.1259 28.6618C30.3295 28.6801 30.3284 28.6918 30.4919 28.8001C30.3072 29.0676 30.0483 29.3399 30.0216 29.6384C30.0412 29.8719 29.5908 30.3913 29.4076 30.4754C29.1593 30.7398 28.907 30.9865 28.6324 31.2227C28.5192 31.3202 28.5359 31.3732 28.4479 31.4578L28.3849 31.4461C28.2403 31.4467 28.221 31.437 28.0918 31.3807L28.1265 31.3505C28.1331 31.1752 28.0697 31.0925 27.9293 31.0073L27.9317 30.9863C27.8338 30.9729 27.6312 30.9191 27.5269 30.8946C27.6077 30.7998 27.9255 30.5562 28.0401 30.467C28.2317 30.2639 28.4121 30.0647 28.6261 29.885C28.6521 29.843 28.7107 29.7938 28.7492 29.7576C29.189 29.1579 29.9506 28.7856 30.1729 28.0603C30.1864 28.0161 30.3546 28.0198 30.4097 28.0166Z" fill="#ACABAC"/>
<path d="M30.4097 28.0166C30.515 28.3822 30.461 28.4625 30.1259 28.6618C30.3295 28.6801 30.3284 28.6918 30.4919 28.8001C30.3072 29.0676 30.0483 29.3399 30.0216 29.6384C29.7461 29.6187 29.6307 29.4395 29.6022 29.1933C29.55 29.365 29.5186 29.4309 29.3668 29.5427C28.9933 29.5113 29.0154 29.6883 28.7493 29.7576C29.189 29.1579 29.9506 28.7856 30.1729 28.0603C30.1865 28.0161 30.3546 28.0198 30.4097 28.0166Z" fill="#010101"/>
<path d="M29.6021 29.1936C29.7194 29.0985 29.9114 29.0977 29.9743 28.9251C30.0112 28.8239 30.0413 28.7748 30.1056 28.6889L30.1258 28.6621C30.3294 28.6804 30.3283 28.6921 30.4918 28.8004C30.3071 29.0679 30.0482 29.3402 30.0215 29.6386C29.746 29.6189 29.6306 29.4398 29.6021 29.1936Z" fill="#C4C3C6"/>
<path d="M28.6261 29.8848C28.5343 30.0982 28.4523 30.2911 28.3728 30.51C28.3115 30.569 28.1292 30.7377 28.0902 30.7965C28.0344 30.8868 28.0198 30.9246 27.9317 30.986C27.8338 30.9727 27.6312 30.9189 27.5269 30.8943C27.6077 30.7996 27.9255 30.5559 28.0401 30.4667C28.2317 30.2637 28.4121 30.0645 28.6261 29.8848Z" fill="#010101"/>
<path d="M28.7492 29.7576C29.0153 29.6883 28.9931 29.5114 29.3667 29.5428C29.061 29.8269 28.6722 30.2789 28.3727 30.5103C28.4523 30.2914 28.5342 30.0985 28.626 29.885C28.652 29.8431 28.7106 29.7938 28.7492 29.7576Z" fill="#262427"/>
<path d="M28.385 31.4463C28.3471 31.365 28.3582 31.3922 28.375 31.2882C28.6496 30.9366 28.9849 30.6388 29.4076 30.4756C29.1593 30.7401 28.907 30.9867 28.6325 31.223C28.5192 31.3204 28.536 31.3735 28.448 31.458L28.385 31.4463Z" fill="#959599"/>
<path d="M18.8922 35.6107C19.4168 35.662 19.5258 36.0335 19.9223 36.0941C20.5388 36.1882 20.9909 35.2046 21.6076 35.3005C21.6566 35.4825 21.668 35.4644 21.5444 35.6297C21.338 35.7167 21.1067 35.7731 21.0112 35.9587C20.9934 36.0939 20.9937 36.1098 21.0292 36.2411C20.987 36.2723 21.0021 36.2648 20.952 36.2835L20.9638 36.3058L20.9908 36.2816L20.9888 36.3303L21.0184 36.3564C20.9678 36.4866 20.7316 36.6689 20.6161 36.7708C20.5678 36.9187 20.5187 37.1435 20.4021 37.2307C20.2802 37.2839 20.1533 37.2758 20.0194 37.2789C19.9596 37.2635 19.9004 37.2464 19.8416 37.2276C19.4955 37.1145 19.5442 36.873 19.3984 36.5961C19.4576 36.5342 19.4691 36.5261 19.5408 36.4786L19.5444 36.3869C19.3737 36.241 19.2012 36.2493 19.0476 36.4069C19.0165 36.5201 19.044 36.6042 19.0941 36.7103C18.8149 36.8144 18.6587 36.5608 18.5484 36.3561C18.3321 36.2151 18.2003 36.0663 18.021 35.8823L17.9948 35.7448C18.0471 35.6901 18.0956 35.6357 18.146 35.5791C18.2898 35.8962 18.6349 35.7923 18.8371 35.5755L18.8922 35.6107Z" fill="#959599"/>
<path d="M17.9948 35.7455C18.0471 35.6907 18.0956 35.6363 18.146 35.5798C18.2898 35.8968 18.6349 35.793 18.8371 35.5762L18.8922 35.6113L18.9825 35.6767L18.976 35.7052C18.827 36.3841 19.4317 36.1768 19.5878 36.3133C19.6293 36.5052 19.576 36.5111 19.6721 36.6249L19.7964 36.6591C19.7348 36.6838 19.6697 36.6849 19.6021 36.692C19.5223 36.6174 19.547 36.6162 19.5408 36.4793L19.5444 36.3876C19.3737 36.2417 19.2012 36.25 19.0476 36.4076C19.0165 36.5208 19.044 36.6048 19.0941 36.711C18.8149 36.815 18.6587 36.5615 18.5484 36.3568C18.3321 36.2157 18.2003 36.067 18.021 35.8829L17.9948 35.7455Z" fill="#ACABAC"/>
<path d="M18.021 35.8831C18.2372 35.8208 18.3797 35.7825 18.5901 35.8728C18.6869 35.9796 18.6627 35.9273 18.6818 36.0699C18.6407 36.1788 18.6151 36.2592 18.5484 36.3569C18.3321 36.2159 18.2003 36.0671 18.021 35.8831Z" fill="#C4C3C6"/>
<path d="M19.3984 36.597C19.4577 36.5351 19.4691 36.527 19.5408 36.4795C19.547 36.6164 19.5223 36.6176 19.6021 36.6921C19.6697 36.6851 19.7348 36.684 19.7964 36.6593C19.9363 36.6462 20.133 36.6107 20.2534 36.6661L20.3141 36.7603C20.4003 36.7489 20.3796 36.7428 20.4564 36.6587L20.5189 36.6584L20.6161 36.7716C20.5678 36.9196 20.5187 37.1444 20.4021 37.2316C20.2802 37.2847 20.1533 37.2767 20.0194 37.2798C19.9596 37.2644 19.9004 37.2473 19.8416 37.2284C19.4955 37.1154 19.5442 36.8738 19.3984 36.597Z" fill="#DAD8DB"/>
<path d="M20.3141 36.7601C20.4003 36.7487 20.3796 36.7426 20.4564 36.6586L20.5189 36.6582L20.6161 36.7714C20.5678 36.9194 20.5187 37.1442 20.4021 37.2314C20.2802 37.2845 20.1533 37.2765 20.0194 37.2796C20.0926 37.1168 20.2203 36.917 20.3141 36.7601Z" fill="#ACABAC"/>
<path d="M21.9185 29.0653C21.9632 28.9489 22.0176 28.6936 22.0895 28.6744C22.2869 28.6217 22.6785 28.6128 22.8664 28.6846C22.9599 28.8912 22.8313 28.8814 22.9627 29.0359C23.4138 29.1897 23.6952 29.0829 23.985 29.4391C24.1813 29.5274 24.3237 29.5427 24.533 29.5778C24.9404 29.6908 24.6469 29.7812 24.8422 29.9897L24.9933 30.0182C24.8101 30.1114 24.8446 30.1853 24.8433 30.3866L24.8541 30.5387C24.4215 30.5816 24.3334 30.4852 24.2227 30.0707C24.0225 30.0462 23.1662 30.0767 22.9502 30.091C22.5073 30.1187 22.5055 29.9956 22.2994 29.6425C22.1387 29.5035 21.892 29.5863 21.7085 29.4648L21.6938 29.3793C21.7455 29.24 21.8185 29.1748 21.9185 29.0653Z" fill="#262427"/>
<path d="M23.985 29.4395C24.1813 29.5277 24.3238 29.543 24.533 29.5782C24.9404 29.6911 24.6469 29.7815 24.8422 29.99L24.9934 30.0186C24.8102 30.1118 24.8447 30.1856 24.8433 30.387L24.8541 30.539C24.4216 30.582 24.3335 30.4856 24.2228 30.0711C24.0226 30.0465 23.1662 30.0771 22.9503 30.0914C22.9075 29.9154 22.8637 29.7508 22.8407 29.5705L22.881 29.5513C23.1533 29.5998 23.7105 29.4914 23.985 29.4395Z" fill="#959599"/>
<path d="M24.2228 30.0708C24.5972 29.9979 24.6385 30.0882 24.8433 30.3867L24.8541 30.5388C24.4216 30.5817 24.3335 30.4853 24.2228 30.0708Z" fill="#525152"/>
<path d="M21.9185 29.0653C22.219 29.0691 22.6351 29.0276 22.8591 29.2C22.9167 29.3214 22.9044 29.4051 22.881 29.5508L22.8406 29.5701C22.8636 29.7504 22.9075 29.9149 22.9502 30.091C22.5073 30.1187 22.5055 29.9955 22.2994 29.6424C22.1387 29.5035 21.892 29.5862 21.7085 29.4647L21.6938 29.3792C21.7455 29.2399 21.8185 29.1747 21.9185 29.0653Z" fill="#ACABAC"/>
<path d="M22.2994 29.6426C22.5403 29.577 22.5944 29.5726 22.8407 29.5703C22.8637 29.7506 22.9075 29.9151 22.9503 30.0912C22.5073 30.1189 22.5055 29.9957 22.2994 29.6426Z" fill="#525152"/>
<path d="M32.4378 23.9424C32.5876 24.1919 32.3297 24.7392 32.6511 24.88C32.7591 24.8521 32.7742 24.848 32.8628 24.781C32.8947 24.6025 32.8347 24.433 32.8816 24.3446C32.9074 24.8938 32.9494 25.2656 32.5707 25.7136C32.4397 25.9532 32.4189 26.0709 32.3553 26.3345C32.3139 26.4746 32.215 26.6155 32.1359 26.7413C31.952 26.9064 31.7845 27.1558 31.6627 27.2563C31.619 27.1705 31.6444 27.1998 31.5571 27.151L31.4796 27.262C31.3053 27.265 31.3431 27.2083 31.1759 27.1598C31.0279 27.2699 31.0017 27.3354 30.9392 27.5136C30.9276 27.3943 30.9256 27.2617 30.9211 27.1407C31.026 26.7853 30.8506 26.33 31.2069 26.2918C31.5925 26.2504 31.3981 25.7127 31.5242 25.4942C31.5931 25.3746 31.7284 25.3796 31.8606 25.3554C31.8897 25.2711 31.9187 25.135 31.9409 25.0448C31.9789 25.1174 31.9835 25.1207 32.0435 25.1778L32.1173 25.1621C32.2308 25.0232 32.2942 24.7522 32.3491 24.572C32.3745 24.4839 32.4154 24.0787 32.4378 23.9424Z" fill="#959599"/>
<path d="M30.9211 27.1409C31.026 26.7854 30.8506 26.3301 31.2069 26.2919C31.5925 26.2505 31.3981 25.7128 31.5242 25.4943C31.5931 25.3747 31.7284 25.3797 31.8606 25.3555C31.8804 25.5839 31.9277 25.8977 31.812 26.0927C31.6186 26.2798 31.4013 26.1038 31.4065 26.4564C31.4103 26.713 31.4914 27.062 31.1759 27.16C31.0279 27.27 31.0017 27.3355 30.9392 27.5137C30.9276 27.3945 30.9256 27.2618 30.9211 27.1409Z" fill="#3F3F42"/>
<path d="M31.5571 27.1515C31.4055 26.9242 31.4035 26.6148 31.6291 26.4344C31.9155 26.3604 31.9955 26.5194 32.1358 26.7418C31.9519 26.907 31.7844 27.1563 31.6627 27.2568C31.6189 27.1711 31.6443 27.2003 31.5571 27.1515Z" fill="#C4C3C6"/>
<path d="M32.3553 26.3346C32.3023 26.3209 32.251 26.3011 32.2026 26.2755C31.9652 26.153 31.8588 25.5603 32.2769 25.4902C32.4171 25.5158 32.475 25.6057 32.5707 25.7137C32.4398 25.9533 32.4189 26.071 32.3553 26.3346Z" fill="#ACABAC"/>
<path d="M7.58195 17.7607C7.62812 18.1644 7.62722 18.7715 7.63777 19.1886C7.66394 20.0949 7.67511 21.0016 7.67121 21.9083C7.66941 22.5151 7.69738 23.5114 7.64336 24.0731L7.6105 24.1798C7.53519 24.2052 7.56558 24.2021 7.47339 24.1597C7.26234 23.8368 7.25855 22.2786 7.26097 21.8268C7.3914 21.4326 7.18753 19.7669 7.28281 19.2609C7.33902 18.9623 7.38687 18.3945 7.40898 18.0764C7.42308 18.0927 7.46254 18.5079 7.4689 18.5668C7.54441 18.3467 7.56871 17.9963 7.58195 17.7607Z" fill="#010101" fill-opacity="0.984314"/>
<path d="M24.8207 29.5768C25.3772 29.5643 25.6351 29.4522 25.9068 29.9849C26.6666 30.093 26.6687 30.2333 26.76 30.9602C26.5754 31.1792 26.5299 31.1831 26.2704 31.2949L26.2021 31.1157C26.1023 31.0185 25.9527 31.0224 25.8086 31.0074C25.4492 30.9868 25.3647 30.9386 25.2375 30.6005C25.135 30.5143 24.9953 30.5372 24.8541 30.5382L24.8433 30.3861C24.8446 30.1848 24.8101 30.111 24.9933 30.0178L24.8422 29.9892C24.6469 29.7807 24.9404 29.6903 24.533 29.5774L24.8207 29.5768Z" fill="#ACABAC"/>
<path d="M24.8207 29.5768C25.3772 29.5643 25.6351 29.4522 25.9068 29.9849C25.7624 30.044 25.6544 30.0765 25.4936 30.0429C25.3408 30.0443 25.1489 30.0272 24.9933 30.0178L24.8422 29.9892C24.6469 29.7807 24.9404 29.6903 24.533 29.5774L24.8207 29.5768Z" fill="#262427"/>
<path d="M24.533 29.5777L24.8207 29.5771C25.2637 29.6993 24.9836 29.9041 25.4936 30.0432C25.3408 30.0447 25.1489 30.0276 24.9933 30.0181L24.8422 29.9896C24.6469 29.7811 24.9404 29.6907 24.533 29.5777Z" fill="#525152"/>
<path d="M25.2375 30.6006C25.6322 30.5281 25.8142 30.5578 25.8086 31.0075C25.4493 30.9869 25.3647 30.9387 25.2375 30.6006Z" fill="#737373"/>
<path d="M31.5571 27.1509C31.6444 27.1996 31.619 27.1704 31.6627 27.2562C31.415 27.4533 31.4764 27.7124 31.4536 28.0176C31.3503 28.0904 31.1655 28.233 31.0551 28.2705C30.9499 28.3861 30.7716 28.5966 30.6512 28.6805L30.4919 28.7999C30.3284 28.6916 30.3294 28.6799 30.1259 28.6616C30.461 28.4623 30.515 28.382 30.4097 28.0164C30.4859 27.9039 30.4681 27.8748 30.4529 27.763C30.4126 27.7083 30.4158 27.6852 30.4085 27.6184C30.4996 27.4263 30.7473 27.2657 30.9211 27.1406C30.9255 27.2616 30.9275 27.3942 30.9392 27.5134C31.0017 27.3352 31.0279 27.2698 31.1759 27.1597C31.3431 27.2082 31.3053 27.2648 31.4796 27.2619L31.5571 27.1509Z" fill="#ACABAC"/>
<path d="M30.9212 27.1406C30.9256 27.2616 30.9276 27.3942 30.9392 27.5134C30.8058 27.7259 30.7146 27.797 30.453 27.763C30.4127 27.7083 30.4159 27.6852 30.4086 27.6184C30.4996 27.4263 30.7473 27.2657 30.9212 27.1406Z" fill="#010101"/>
<path d="M30.6511 28.6808C30.5185 28.4764 30.4466 28.2108 30.7371 28.1104C30.886 28.116 30.9385 28.1761 31.055 28.2707C30.9498 28.3863 30.7715 28.5969 30.6511 28.6808Z" fill="#C4C3C6"/>
<path d="M17.2234 29.2432C17.2904 29.3597 17.2778 29.3075 17.2726 29.4407C17.451 29.5179 17.622 29.594 17.7431 29.7542L17.7321 29.8082C17.5508 30.061 17.534 30.0732 17.2259 30.091L17.232 30.1152C17.1012 30.1013 16.9146 30.098 16.7789 30.0912C16.6686 30.0914 16.0277 30.0988 15.9633 30.0832L16.0007 30.0595C16.0508 29.8719 16.0807 29.7917 16.0686 29.6001L15.988 29.5545C16.1726 29.512 16.3599 29.5016 16.5486 29.4858C16.8076 29.6654 17.0976 29.4978 17.2234 29.2432Z" fill="#3F3F42"/>
<path d="M17.2726 29.4404C17.451 29.5177 17.6219 29.5938 17.7431 29.754L17.732 29.8079C17.5507 30.0607 17.5339 30.073 17.2258 30.0907L17.1267 30.056C17.0461 29.8871 17.0621 29.7213 17.063 29.5347C17.1121 29.5207 17.2211 29.4648 17.2726 29.4404Z" fill="#737373"/>
<path d="M16.7789 30.0914C16.763 29.771 16.7714 29.6889 17.0631 29.5352C17.0622 29.7218 17.0462 29.8876 17.1268 30.0564L17.2259 30.0912L17.232 30.1154C17.1012 30.1016 16.9146 30.0982 16.7789 30.0914Z" fill="#3F3F42"/>
<path d="M14.8879 29.5872C15.2855 29.5682 15.5512 29.5933 15.9879 29.5547L16.0685 29.6004C16.0807 29.792 16.0507 29.8721 16.0007 30.0598L15.9632 30.0834L15.8273 30.1502C15.7908 30.2791 15.769 30.38 15.6999 30.4955C15.5503 30.5745 15.4389 30.5499 15.2549 30.5211C15.2663 30.4505 15.3012 30.3396 15.3214 30.2674C15.247 29.8518 15.0043 30.1544 14.7281 30.0158L14.8879 29.5872Z" fill="#898989"/>
<path d="M15.3215 30.2675C15.5354 30.0991 15.5582 30.1051 15.8274 30.1504C15.7909 30.2792 15.7691 30.3802 15.7 30.4957C15.5504 30.5747 15.439 30.5501 15.255 30.5213C15.2664 30.4507 15.3013 30.3398 15.3215 30.2675Z" fill="#525152"/>
<path d="M21.9969 35.3022C22.1375 35.2633 22.2537 35.2395 22.3971 35.2119C22.4198 35.3062 22.4464 35.4385 22.4825 35.5252C22.3545 35.5943 22.0803 35.7327 21.977 35.8155C21.9541 35.9654 21.9118 36.3552 21.6756 36.2989C21.6218 36.2855 21.5729 36.257 21.5349 36.2165C21.6012 36.0572 21.7161 35.8348 21.6501 35.6702L21.5444 35.6298C21.668 35.4646 21.6567 35.4827 21.6076 35.3007L21.7896 35.2989L21.9969 35.3022Z" fill="#ACABAC"/>
<path d="M21.9969 35.3022C22.1375 35.2633 22.2537 35.2395 22.397 35.2119C22.4198 35.3062 22.4464 35.4385 22.4825 35.5252C22.3545 35.5943 22.0803 35.7327 21.977 35.8155C21.9586 35.7633 21.9412 35.7107 21.9248 35.6578C21.8718 35.481 21.9162 35.4546 21.9969 35.3022Z" fill="#DAD8DB"/>
<path d="M27.5269 30.8945C27.6312 30.9191 27.8338 30.9729 27.9317 30.9862L27.9293 31.0072C27.818 31.0503 27.7151 31.0772 27.6444 31.1736C27.606 31.3072 27.6335 31.4413 27.6177 31.4873C27.4478 31.4211 27.4241 31.4256 27.2395 31.4433C26.8857 31.3377 26.8263 31.3408 26.809 30.966C27.029 30.9036 27.3271 30.9998 27.5269 30.8945Z" fill="#262427"/>
<path d="M21.5444 35.6299L21.65 35.6703C21.7161 35.8349 21.6012 36.0572 21.5349 36.2165C21.3082 36.2118 21.2046 36.2182 21.0184 36.3566L20.9888 36.3305L20.9908 36.2818L20.9638 36.306L20.952 36.2838C21.0021 36.265 20.987 36.2725 21.0293 36.2413C20.9937 36.11 20.9934 36.0941 21.0112 35.9589C21.1067 35.7733 21.338 35.7169 21.5444 35.6299Z" fill="#DAD8DB" fill-opacity="0.988235"/>
<path d="M17.1083 29.0833C17.2376 29.0409 17.2564 29.0252 17.3415 28.9186L17.3624 28.8919C17.5666 28.8248 17.3427 28.9767 17.7285 29.0089C17.6076 29.3134 17.6184 29.45 17.8035 29.7294L17.7431 29.7544C17.6219 29.5942 17.451 29.5181 17.2726 29.4409C17.2777 29.3077 17.2904 29.3599 17.2233 29.2434L17.1083 29.0833Z" fill="#525152" fill-opacity="0.984314"/>
<path d="M17.7284 29.0088C17.903 29.0357 18.0314 29.0365 18.1397 29.1788C18.1914 29.4737 18.0315 29.5836 17.8035 29.7293C17.6184 29.45 17.6075 29.3134 17.7284 29.0088Z" fill="#262427"/>
<path d="M23.8333 34.3364L23.9121 34.3749L24.0221 34.2744C24.1183 34.3116 24.0825 34.2808 24.1343 34.368C23.9118 34.458 23.6746 34.7107 23.5021 34.8852C23.332 34.6392 23.3165 34.6554 23.388 34.3794C23.5558 34.2932 23.6578 34.2957 23.8333 34.3364Z" fill="#DAD8DB"/>
<path d="M16.5486 29.4857C16.6896 29.1983 16.8119 29.1598 17.1083 29.083L17.2233 29.2431C17.0975 29.4977 16.8076 29.6653 16.5486 29.4857Z" fill="#262427" fill-opacity="0.984314"/>
<path d="M27.6177 31.4869C27.6334 31.4409 27.606 31.3068 27.6444 31.1732C27.715 31.0768 27.8179 31.0499 27.9292 31.0068C28.0697 31.0921 28.133 31.1748 28.1264 31.3501L28.0917 31.3802C27.9175 31.4294 27.8376 31.4435 27.6908 31.5461L27.6177 31.4869Z" fill="#C4C3C6" fill-opacity="0.980392"/>
<path d="M19.0942 36.7107C19.0441 36.6045 19.0166 36.5205 19.0477 36.4072C19.2013 36.2496 19.3738 36.2414 19.5445 36.3873L19.5409 36.479C19.4692 36.5264 19.4577 36.5346 19.3985 36.5964C19.2742 36.6558 19.23 36.6801 19.0942 36.7107Z" fill="#DAD8DB" fill-opacity="0.984314"/>
</g>
<path d="M57.179 7.72727L59.3381 13.8494H59.4233L61.5824 7.72727H62.5057L59.8352 15H58.9261L56.2557 7.72727H57.179ZM64.0135 7.72727H65.022L67.0391 11.1222H67.1243L69.1413 7.72727H70.1499L67.522 12.0028V15H66.6413V12.0028L64.0135 7.72727ZM72.2889 15V7.72727H74.7463C75.3145 7.72727 75.7808 7.82434 76.1454 8.01847C76.51 8.21023 76.7799 8.47419 76.9551 8.81037C77.1303 9.14654 77.2179 9.52888 77.2179 9.95739C77.2179 10.3859 77.1303 10.7659 76.9551 11.0973C76.7799 11.4287 76.5112 11.6892 76.149 11.8786C75.7868 12.0656 75.3239 12.1591 74.7605 12.1591H72.7718V11.3636H74.7321C75.1203 11.3636 75.4328 11.3068 75.6696 11.1932C75.9087 11.0795 76.0815 10.9186 76.188 10.7102C76.2969 10.4995 76.3514 10.2486 76.3514 9.95739C76.3514 9.66619 76.2969 9.41169 76.188 9.19389C76.0791 8.97609 75.9051 8.808 75.666 8.68963C75.4269 8.56889 75.1109 8.50852 74.7179 8.50852H73.1696V15H72.2889ZM75.7122 11.733L77.502 15H76.4792L74.7179 11.733H75.7122ZM85.8217 11.3636C85.8217 12.1307 85.6832 12.7936 85.4062 13.3523C85.1293 13.911 84.7493 14.3419 84.2663 14.6449C83.7834 14.9479 83.2318 15.0994 82.6115 15.0994C81.9912 15.0994 81.4396 14.9479 80.9567 14.6449C80.4737 14.3419 80.0938 13.911 79.8168 13.3523C79.5398 12.7936 79.4013 12.1307 79.4013 11.3636C79.4013 10.5966 79.5398 9.93371 79.8168 9.375C80.0938 8.81629 80.4737 8.38542 80.9567 8.08239C81.4396 7.77936 81.9912 7.62784 82.6115 7.62784C83.2318 7.62784 83.7834 7.77936 84.2663 8.08239C84.7493 8.38542 85.1293 8.81629 85.4062 9.375C85.6832 9.93371 85.8217 10.5966 85.8217 11.3636ZM84.9695 11.3636C84.9695 10.7339 84.8641 10.2024 84.6534 9.76918C84.4451 9.33594 84.1622 9.00805 83.8047 8.78551C83.4496 8.56297 83.0518 8.4517 82.6115 8.4517C82.1712 8.4517 81.7723 8.56297 81.4148 8.78551C81.0597 9.00805 80.7768 9.33594 80.5661 9.76918C80.3577 10.2024 80.2536 10.7339 80.2536 11.3636C80.2536 11.9934 80.3577 12.5249 80.5661 12.9581C80.7768 13.3913 81.0597 13.7192 81.4148 13.9418C81.7723 14.1643 82.1712 14.2756 82.6115 14.2756C83.0518 14.2756 83.4496 14.1643 83.8047 13.9418C84.1622 13.7192 84.4451 13.3913 84.6534 12.9581C84.8641 12.5249 84.9695 11.9934 84.9695 11.3636ZM88.3026 15V7.72727H90.8452C91.3518 7.72727 91.7696 7.81487 92.0987 7.99006C92.4278 8.16288 92.6728 8.39607 92.8338 8.68963C92.9948 8.98082 93.0753 9.30398 93.0753 9.65909C93.0753 9.97159 93.0196 10.2296 92.9084 10.4332C92.7995 10.6368 92.6551 10.7978 92.4751 10.9162C92.2976 11.0346 92.1046 11.1222 91.8963 11.179V11.25C92.1188 11.2642 92.3426 11.3423 92.5675 11.4844C92.7924 11.6264 92.9806 11.83 93.1321 12.0952C93.2836 12.3603 93.3594 12.6847 93.3594 13.0682C93.3594 13.4328 93.2765 13.7607 93.1108 14.0518C92.9451 14.343 92.6835 14.5739 92.326 14.7443C91.9685 14.9148 91.5033 15 90.9304 15H88.3026ZM89.1832 14.2188H90.9304C91.5057 14.2188 91.9141 14.1075 92.1555 13.8849C92.3994 13.66 92.5213 13.3878 92.5213 13.0682C92.5213 12.822 92.4586 12.5947 92.3331 12.3864C92.2076 12.1757 92.0289 12.0076 91.7969 11.8821C91.5649 11.7543 91.2902 11.6903 90.973 11.6903H89.1832V14.2188ZM89.1832 10.9233H90.8168C91.0819 10.9233 91.321 10.8712 91.5341 10.767C91.7495 10.6629 91.92 10.5161 92.0455 10.3267C92.1733 10.1373 92.2372 9.91477 92.2372 9.65909C92.2372 9.33949 92.1259 9.06842 91.9034 8.84588C91.6809 8.62098 91.3281 8.50852 90.8452 8.50852H89.1832V10.9233ZM95.8065 15V7.72727H100.196V8.50852H96.6871V10.9659H99.9684V11.7472H96.6871V14.2188H100.252V15H95.8065ZM108.55 7.72727V15H107.698L103.735 9.28977H103.664V15H102.783V7.72727H103.635L107.613 13.4517H107.684V7.72727H108.55ZM111.312 15V7.72727H115.702V8.50852H112.193V10.9659H115.474V11.7472H112.193V14.2188H115.758V15H111.312ZM113.116 6.98864L113.983 5.34091H114.963L113.855 6.98864H113.116ZM127.868 7.72727V15H127.016L123.053 9.28977H122.982V15H122.101V7.72727H122.954L126.931 13.4517H127.002V7.72727H127.868ZM130.929 15H130.006L132.676 7.72727H133.585L136.256 15H135.332L133.159 8.87784H133.102L130.929 15ZM131.27 12.1591H134.991V12.9403H131.27V12.1591ZM146.178 9.54545C146.136 9.18561 145.963 8.90625 145.66 8.70739C145.357 8.50852 144.985 8.40909 144.545 8.40909C144.223 8.40909 143.941 8.46117 143.7 8.56534C143.46 8.66951 143.273 8.81274 143.138 8.99503C143.006 9.17732 142.94 9.38447 142.94 9.61648C142.94 9.81061 142.986 9.97751 143.078 10.1172C143.173 10.2545 143.294 10.3693 143.44 10.4616C143.587 10.5516 143.741 10.6262 143.902 10.6854C144.063 10.7422 144.211 10.7884 144.346 10.8239L145.085 11.0227C145.274 11.0724 145.485 11.1411 145.717 11.2287C145.951 11.3163 146.175 11.4358 146.388 11.5874C146.603 11.7365 146.781 11.9283 146.92 12.1626C147.06 12.397 147.13 12.6847 147.13 13.0256C147.13 13.4186 147.027 13.7737 146.821 14.0909C146.617 14.4081 146.319 14.6603 145.926 14.8473C145.536 15.0343 145.061 15.1278 144.502 15.1278C143.981 15.1278 143.53 15.0438 143.149 14.8757C142.77 14.7076 142.472 14.4732 142.254 14.1726C142.039 13.8719 141.917 13.5227 141.888 13.125H142.798C142.821 13.3996 142.914 13.6269 143.075 13.8068C143.238 13.9844 143.444 14.117 143.692 14.2045C143.943 14.2898 144.213 14.3324 144.502 14.3324C144.838 14.3324 145.14 14.2779 145.408 14.169C145.675 14.0578 145.887 13.9039 146.043 13.7074C146.2 13.5085 146.278 13.2765 146.278 13.0114C146.278 12.7699 146.21 12.5734 146.075 12.4219C145.94 12.2704 145.763 12.1473 145.543 12.0526C145.322 11.9579 145.085 11.875 144.829 11.804L143.934 11.5483C143.366 11.3849 142.916 11.1518 142.585 10.8487C142.253 10.5457 142.087 10.1491 142.087 9.65909C142.087 9.25189 142.197 8.89678 142.418 8.59375C142.64 8.28835 142.938 8.05161 143.312 7.88352C143.689 7.71307 144.109 7.62784 144.573 7.62784C145.042 7.62784 145.459 7.71188 145.823 7.87997C146.188 8.04569 146.477 8.27296 146.69 8.56179C146.905 8.85062 147.019 9.1785 147.031 9.54545H146.178ZM149.578 15V7.72727H150.459V14.2188H153.839V15H149.578ZM162.056 11.3636C162.056 12.1307 161.918 12.7936 161.641 13.3523C161.364 13.911 160.984 14.3419 160.501 14.6449C160.018 14.9479 159.466 15.0994 158.846 15.0994C158.226 15.0994 157.674 14.9479 157.191 14.6449C156.708 14.3419 156.328 13.911 156.051 13.3523C155.774 12.7936 155.636 12.1307 155.636 11.3636C155.636 10.5966 155.774 9.93371 156.051 9.375C156.328 8.81629 156.708 8.38542 157.191 8.08239C157.674 7.77936 158.226 7.62784 158.846 7.62784C159.466 7.62784 160.018 7.77936 160.501 8.08239C160.984 8.38542 161.364 8.81629 161.641 9.375C161.918 9.93371 162.056 10.5966 162.056 11.3636ZM161.204 11.3636C161.204 10.7339 161.098 10.2024 160.888 9.76918C160.679 9.33594 160.397 9.00805 160.039 8.78551C159.684 8.56297 159.286 8.4517 158.846 8.4517C158.406 8.4517 158.007 8.56297 157.649 8.78551C157.294 9.00805 157.011 9.33594 156.8 9.76918C156.592 10.2024 156.488 10.7339 156.488 11.3636C156.488 11.9934 156.592 12.5249 156.8 12.9581C157.011 13.3913 157.294 13.7192 157.649 13.9418C158.007 14.1643 158.406 14.2756 158.846 14.2756C159.286 14.2756 159.684 14.1643 160.039 13.9418C160.397 13.7192 160.679 13.3913 160.888 12.9581C161.098 12.5249 161.204 11.9934 161.204 11.3636ZM164.493 7.72727L166.653 13.8494H166.738L168.897 7.72727H169.82L167.15 15H166.241L163.57 7.72727H164.493ZM171.953 15V7.72727H176.342V8.50852H172.834V10.9659H176.115V11.7472H172.834V14.2188H176.399V15H171.953ZM184.697 7.72727V15H183.844L179.881 9.28977H179.81V15H178.93V7.72727H179.782L183.759 13.4517H183.83V7.72727H184.697ZM191.436 9.54545C191.393 9.18561 191.221 8.90625 190.918 8.70739C190.615 8.50852 190.243 8.40909 189.803 8.40909C189.481 8.40909 189.199 8.46117 188.957 8.56534C188.718 8.66951 188.531 8.81274 188.396 8.99503C188.264 9.17732 188.197 9.38447 188.197 9.61648C188.197 9.81061 188.244 9.97751 188.336 10.1172C188.431 10.2545 188.551 10.3693 188.698 10.4616C188.845 10.5516 188.999 10.6262 189.16 10.6854C189.321 10.7422 189.469 10.7884 189.604 10.8239L190.342 11.0227C190.532 11.0724 190.742 11.1411 190.974 11.2287C191.209 11.3163 191.433 11.4358 191.646 11.5874C191.861 11.7365 192.039 11.9283 192.178 12.1626C192.318 12.397 192.388 12.6847 192.388 13.0256C192.388 13.4186 192.285 13.7737 192.079 14.0909C191.875 14.4081 191.577 14.6603 191.184 14.8473C190.793 15.0343 190.319 15.1278 189.76 15.1278C189.239 15.1278 188.788 15.0438 188.407 14.8757C188.028 14.7076 187.73 14.4732 187.512 14.1726C187.297 13.8719 187.175 13.5227 187.146 13.125H188.055C188.079 13.3996 188.171 13.6269 188.332 13.8068C188.496 13.9844 188.702 14.117 188.95 14.2045C189.201 14.2898 189.471 14.3324 189.76 14.3324C190.096 14.3324 190.398 14.2779 190.665 14.169C190.933 14.0578 191.145 13.9039 191.301 13.7074C191.457 13.5085 191.536 13.2765 191.536 13.0114C191.536 12.7699 191.468 12.5734 191.333 12.4219C191.198 12.2704 191.021 12.1473 190.8 12.0526C190.58 11.9579 190.342 11.875 190.087 11.804L189.192 11.5483C188.624 11.3849 188.174 11.1518 187.842 10.8487C187.511 10.5457 187.345 10.1491 187.345 9.65909C187.345 9.25189 187.455 8.89678 187.675 8.59375C187.898 8.28835 188.196 8.05161 188.57 7.88352C188.947 7.71307 189.367 7.62784 189.831 7.62784C190.3 7.62784 190.716 7.71188 191.081 7.87997C191.446 8.04569 191.734 8.27296 191.947 8.56179C192.163 8.85062 192.277 9.1785 192.288 9.54545H191.436ZM194.836 15V7.72727H195.716V11.3352H195.802L199.069 7.72727H200.219L197.165 11.0085L200.219 15H199.154L196.626 11.6193L195.716 12.642V15H194.836ZM207.132 7.72727H208.013V12.5426C208.013 13.0398 207.895 13.4837 207.661 13.8743C207.429 14.2625 207.101 14.5691 206.677 14.794C206.254 15.0166 205.756 15.1278 205.186 15.1278C204.615 15.1278 204.118 15.0166 203.694 14.794C203.271 14.5691 202.942 14.2625 202.707 13.8743C202.475 13.4837 202.359 13.0398 202.359 12.5426V7.72727H203.24V12.4716C203.24 12.8267 203.318 13.1428 203.474 13.4197C203.631 13.6944 203.853 13.911 204.142 14.0696C204.433 14.2259 204.781 14.304 205.186 14.304C205.591 14.304 205.939 14.2259 206.23 14.0696C206.521 13.911 206.744 13.6944 206.898 13.4197C207.054 13.1428 207.132 12.8267 207.132 12.4716V7.72727Z" fill="#D1D5DB"/>
<path d="M56.8807 34V26.7273H57.7614V30.3352H57.8466L61.1136 26.7273H62.2642L59.2102 30.0085L62.2642 34H61.1989L58.6705 30.6193L57.7614 31.642V34H56.8807ZM67.3503 28.5455L65.3333 34H64.481L62.464 28.5455H63.373L64.8787 32.892H64.9355L66.4412 28.5455H67.3503ZM69.8956 34.1278C69.55 34.1278 69.2363 34.0627 68.9545 33.9325C68.6728 33.8 68.4491 33.6094 68.2834 33.3608C68.1177 33.1098 68.0348 32.8068 68.0348 32.4517C68.0348 32.1392 68.0964 31.8859 68.2195 31.6918C68.3426 31.4953 68.5071 31.3414 68.7131 31.2301C68.919 31.1188 69.1463 31.036 69.3949 30.9815C69.6458 30.9247 69.898 30.8797 70.1513 30.8466C70.4827 30.804 70.7514 30.772 70.9574 30.7507C71.1657 30.727 71.3172 30.688 71.4119 30.6335C71.509 30.5791 71.5575 30.4844 71.5575 30.3494V30.321C71.5575 29.9706 71.4616 29.6984 71.2699 29.5043C71.0805 29.3101 70.7929 29.2131 70.407 29.2131C70.0069 29.2131 69.6932 29.3007 69.4659 29.4759C69.2386 29.651 69.0788 29.8381 68.9865 30.0369L68.1911 29.7528C68.3331 29.4214 68.5225 29.1634 68.7592 28.9787C68.9983 28.7917 69.2588 28.6615 69.5405 28.5881C69.8246 28.5123 70.1039 28.4744 70.3786 28.4744C70.5537 28.4744 70.755 28.4957 70.9822 28.5384C71.2119 28.5786 71.4332 28.6626 71.6463 28.7905C71.8617 28.9183 72.0405 29.1113 72.1825 29.3693C72.3246 29.6274 72.3956 29.973 72.3956 30.4062V34H71.5575V33.2614H71.5149C71.4581 33.3797 71.3634 33.5064 71.2308 33.6413C71.0982 33.7763 70.9219 33.8911 70.7017 33.9858C70.4815 34.0805 70.2128 34.1278 69.8956 34.1278ZM70.0234 33.375C70.3549 33.375 70.6342 33.3099 70.8615 33.1797C71.0911 33.0495 71.264 32.8814 71.38 32.6754C71.4983 32.4695 71.5575 32.2528 71.5575 32.0256V31.2585C71.522 31.3011 71.4439 31.3402 71.3232 31.3757C71.2048 31.4089 71.0675 31.4384 70.9112 31.4645C70.7573 31.4882 70.607 31.5095 70.4602 31.5284C70.3158 31.545 70.1986 31.5592 70.1087 31.571C69.8909 31.5994 69.6873 31.6456 69.4979 31.7095C69.3108 31.7711 69.1593 31.8646 69.0433 31.9901C68.9297 32.1132 68.8729 32.2812 68.8729 32.4943C68.8729 32.7855 68.9806 33.0057 69.196 33.1548C69.4138 33.3016 69.6896 33.375 70.0234 33.375ZM74.7633 26.7273V34H73.9252V26.7273H74.7633ZM76.2983 34V28.5455H77.1364V34H76.2983ZM76.7244 27.6364C76.5611 27.6364 76.4202 27.5807 76.3018 27.4695C76.1858 27.3582 76.1278 27.2244 76.1278 27.0682C76.1278 26.9119 76.1858 26.7782 76.3018 26.6669C76.4202 26.5556 76.5611 26.5 76.7244 26.5C76.8878 26.5 77.0275 26.5556 77.1435 26.6669C77.2618 26.7782 77.321 26.9119 77.321 27.0682C77.321 27.2244 77.2618 27.3582 77.1435 27.4695C77.0275 27.5807 76.8878 27.6364 76.7244 27.6364ZM81.0435 28.5455V29.2557H78.2168V28.5455H81.0435ZM79.0407 27.2386H79.8787V32.4375C79.8787 32.6742 79.9131 32.8518 79.9817 32.9702C80.0527 33.0862 80.1427 33.1643 80.2516 33.2045C80.3629 33.2424 80.4801 33.2614 80.6032 33.2614C80.6955 33.2614 80.7712 33.2566 80.8304 33.2472C80.8896 33.2353 80.937 33.2259 80.9725 33.2188L81.1429 33.9716C81.0861 33.9929 81.0068 34.0142 80.905 34.0355C80.8032 34.0592 80.6742 34.071 80.5179 34.071C80.2812 34.071 80.0492 34.0201 79.8219 33.9183C79.597 33.8165 79.41 33.6615 79.2608 33.4531C79.1141 33.2448 79.0407 32.982 79.0407 32.6648V27.2386ZM83.9093 34.1278C83.5636 34.1278 83.2499 34.0627 82.9682 33.9325C82.6865 33.8 82.4628 33.6094 82.2971 33.3608C82.1313 33.1098 82.0485 32.8068 82.0485 32.4517C82.0485 32.1392 82.11 31.8859 82.2331 31.6918C82.3562 31.4953 82.5208 31.3414 82.7267 31.2301C82.9327 31.1188 83.16 31.036 83.4086 30.9815C83.6595 30.9247 83.9116 30.8797 84.165 30.8466C84.4964 30.804 84.7651 30.772 84.9711 30.7507C85.1794 30.727 85.3309 30.688 85.4256 30.6335C85.5227 30.5791 85.5712 30.4844 85.5712 30.3494V30.321C85.5712 29.9706 85.4753 29.6984 85.2836 29.5043C85.0942 29.3101 84.8065 29.2131 84.4206 29.2131C84.0205 29.2131 83.7069 29.3007 83.4796 29.4759C83.2523 29.651 83.0925 29.8381 83.0002 30.0369L82.2047 29.7528C82.3468 29.4214 82.5362 29.1634 82.7729 28.9787C83.012 28.7917 83.2724 28.6615 83.5542 28.5881C83.8382 28.5123 84.1176 28.4744 84.3922 28.4744C84.5674 28.4744 84.7686 28.4957 84.9959 28.5384C85.2256 28.5786 85.4469 28.6626 85.66 28.7905C85.8754 28.9183 86.0542 29.1113 86.1962 29.3693C86.3382 29.6274 86.4093 29.973 86.4093 30.4062V34H85.5712V33.2614H85.5286C85.4718 33.3797 85.3771 33.5064 85.2445 33.6413C85.1119 33.7763 84.9355 33.8911 84.7154 33.9858C84.4952 34.0805 84.2265 34.1278 83.9093 34.1278ZM84.0371 33.375C84.3685 33.375 84.6479 33.3099 84.8752 33.1797C85.1048 33.0495 85.2776 32.8814 85.3936 32.6754C85.512 32.4695 85.5712 32.2528 85.5712 32.0256V31.2585C85.5357 31.3011 85.4576 31.3402 85.3368 31.3757C85.2185 31.4089 85.0811 31.4384 84.9249 31.4645C84.771 31.4882 84.6207 31.5095 84.4739 31.5284C84.3295 31.545 84.2123 31.5592 84.1223 31.571C83.9045 31.5994 83.7009 31.6456 83.5115 31.7095C83.3245 31.7711 83.173 31.8646 83.057 31.9901C82.9434 32.1132 82.8865 32.2812 82.8865 32.4943C82.8865 32.7855 82.9943 33.0057 83.2097 33.1548C83.4275 33.3016 83.7033 33.375 84.0371 33.375ZM89.1889 33.0057L89.1321 33.3892C89.0919 33.6591 89.0303 33.9479 88.9474 34.2557C88.867 34.5634 88.7829 34.8535 88.6953 35.1257C88.6077 35.398 88.5355 35.6146 88.4787 35.7756H87.8395C87.8703 35.6241 87.9105 35.424 87.9602 35.1754C88.0099 34.9268 88.0597 34.6487 88.1094 34.3409C88.1615 34.0355 88.2041 33.723 88.2372 33.4034L88.2798 33.0057H89.1889ZM94.3354 32.0114L94.3212 30.9744H94.4917L96.878 28.5455H97.915L95.3723 31.1165H95.3013L94.3354 32.0114ZM93.5542 34V26.7273H94.3922V34H93.5542ZM97.0201 34L94.8894 31.3011L95.486 30.7188L98.0854 34H97.0201ZM101.366 28.5455V29.2557H98.5391V28.5455H101.366ZM99.3629 27.2386H100.201V32.4375C100.201 32.6742 100.235 32.8518 100.304 32.9702C100.375 33.0862 100.465 33.1643 100.574 33.2045C100.685 33.2424 100.802 33.2614 100.925 33.2614C101.018 33.2614 101.094 33.2566 101.153 33.2472C101.212 33.2353 101.259 33.2259 101.295 33.2188L101.465 33.9716C101.408 33.9929 101.329 34.0142 101.227 34.0355C101.125 34.0592 100.996 34.071 100.84 34.071C100.603 34.071 100.371 34.0201 100.144 33.9183C99.9193 33.8165 99.7322 33.6615 99.5831 33.4531C99.4363 33.2448 99.3629 32.982 99.3629 32.6648V27.2386ZM104.784 34.1136C104.291 34.1136 103.859 33.9964 103.488 33.7621C103.118 33.5277 102.829 33.1998 102.621 32.7784C102.415 32.357 102.312 31.8646 102.312 31.3011C102.312 30.733 102.415 30.237 102.621 29.8132C102.829 29.3894 103.118 29.0604 103.488 28.826C103.859 28.5916 104.291 28.4744 104.784 28.4744C105.276 28.4744 105.707 28.5916 106.076 28.826C106.448 29.0604 106.737 29.3894 106.943 29.8132C107.151 30.237 107.255 30.733 107.255 31.3011C107.255 31.8646 107.151 32.357 106.943 32.7784C106.737 33.1998 106.448 33.5277 106.076 33.7621C105.707 33.9964 105.276 34.1136 104.784 34.1136ZM104.784 33.3608C105.158 33.3608 105.466 33.2649 105.707 33.0732C105.949 32.8814 106.127 32.6293 106.243 32.3168C106.359 32.0043 106.417 31.6657 106.417 31.3011C106.417 30.9366 106.359 30.5968 106.243 30.282C106.127 29.9671 105.949 29.7126 105.707 29.5185C105.466 29.3243 105.158 29.2273 104.784 29.2273C104.41 29.2273 104.102 29.3243 103.86 29.5185C103.619 29.7126 103.44 29.9671 103.324 30.282C103.208 30.5968 103.15 30.9366 103.15 31.3011C103.15 31.6657 103.208 32.0043 103.324 32.3168C103.44 32.6293 103.619 32.8814 103.86 33.0732C104.102 33.2649 104.41 33.3608 104.784 33.3608ZM108.535 34V28.5455H109.344V29.3693H109.401C109.501 29.0994 109.68 28.8804 109.941 28.7124C110.201 28.5443 110.495 28.4602 110.822 28.4602C110.883 28.4602 110.96 28.4614 111.052 28.4638C111.145 28.4661 111.215 28.4697 111.262 28.4744V29.3267C111.233 29.3196 111.168 29.3089 111.067 29.2947C110.967 29.2782 110.862 29.2699 110.751 29.2699C110.485 29.2699 110.249 29.3255 110.04 29.4368C109.834 29.5457 109.671 29.6972 109.55 29.8913C109.432 30.0831 109.373 30.3021 109.373 30.5483V34H108.535ZM115.693 31.7699V28.5455H116.531V34H115.693V33.0767H115.636C115.508 33.3537 115.309 33.5893 115.039 33.7834C114.77 33.9751 114.429 34.071 114.017 34.071C113.676 34.071 113.373 33.9964 113.108 33.8473C112.842 33.6958 112.634 33.4685 112.483 33.1655C112.331 32.8601 112.255 32.4754 112.255 32.0114V28.5455H113.093V31.9545C113.093 32.3523 113.205 32.6695 113.427 32.9062C113.652 33.143 113.939 33.2614 114.287 33.2614C114.495 33.2614 114.707 33.2081 114.922 33.1016C115.14 32.995 115.322 32.8317 115.469 32.6115C115.618 32.3913 115.693 32.1108 115.693 31.7699ZM114.017 27.8068L114.883 26.1591H115.863L114.755 27.8068H114.017ZM120.878 36.0455V28.5455H121.688V29.4119H121.787C121.849 29.3172 121.934 29.1965 122.043 29.0497C122.154 28.9006 122.313 28.768 122.519 28.652C122.727 28.5336 123.009 28.4744 123.364 28.4744C123.823 28.4744 124.228 28.5893 124.579 28.8189C124.929 29.0485 125.202 29.3741 125.399 29.7955C125.595 30.2169 125.694 30.714 125.694 31.2869C125.694 31.8646 125.595 32.3653 125.399 32.7891C125.202 33.2105 124.93 33.5372 124.582 33.7692C124.234 33.9988 123.833 34.1136 123.378 34.1136C123.028 34.1136 122.747 34.0556 122.537 33.9396C122.326 33.8213 122.164 33.6875 122.05 33.5384C121.937 33.3868 121.849 33.2614 121.787 33.1619H121.716V36.0455H120.878ZM121.702 31.2727C121.702 31.6847 121.763 32.0481 121.883 32.3629C122.004 32.6754 122.18 32.9205 122.412 33.098C122.644 33.2732 122.929 33.3608 123.265 33.3608C123.615 33.3608 123.907 33.2685 124.142 33.0838C124.379 32.8968 124.556 32.6458 124.675 32.331C124.795 32.0137 124.856 31.661 124.856 31.2727C124.856 30.8892 124.796 30.5436 124.678 30.2358C124.562 29.9257 124.386 29.6806 124.149 29.5007C123.915 29.3184 123.62 29.2273 123.265 29.2273C122.924 29.2273 122.637 29.3137 122.405 29.4865C122.173 29.657 121.998 29.8961 121.88 30.2038C121.761 30.5092 121.702 30.8655 121.702 31.2727ZM129.188 34.1136C128.696 34.1136 128.264 33.9964 127.892 33.7621C127.523 33.5277 127.234 33.1998 127.025 32.7784C126.819 32.357 126.716 31.8646 126.716 31.3011C126.716 30.733 126.819 30.237 127.025 29.8132C127.234 29.3894 127.523 29.0604 127.892 28.826C128.264 28.5916 128.696 28.4744 129.188 28.4744C129.68 28.4744 130.111 28.5916 130.481 28.826C130.852 29.0604 131.141 29.3894 131.347 29.8132C131.555 30.237 131.66 30.733 131.66 31.3011C131.66 31.8646 131.555 32.357 131.347 32.7784C131.141 33.1998 130.852 33.5277 130.481 33.7621C130.111 33.9964 129.68 34.1136 129.188 34.1136ZM129.188 33.3608C129.562 33.3608 129.87 33.2649 130.111 33.0732C130.353 32.8814 130.532 32.6293 130.648 32.3168C130.764 32.0043 130.822 31.6657 130.822 31.3011C130.822 30.9366 130.764 30.5968 130.648 30.282C130.532 29.9671 130.353 29.7126 130.111 29.5185C129.87 29.3243 129.562 29.2273 129.188 29.2273C128.814 29.2273 128.506 29.3243 128.265 29.5185C128.023 29.7126 127.845 29.9671 127.729 30.282C127.613 30.5968 127.555 30.9366 127.555 31.3011C127.555 31.6657 127.613 32.0043 127.729 32.3168C127.845 32.6293 128.023 32.8814 128.265 33.0732C128.506 33.2649 128.814 33.3608 129.188 33.3608ZM134.999 34.1136C134.544 34.1136 134.143 33.9988 133.795 33.7692C133.447 33.5372 133.174 33.2105 132.978 32.7891C132.781 32.3653 132.683 31.8646 132.683 31.2869C132.683 30.714 132.781 30.2169 132.978 29.7955C133.174 29.3741 133.448 29.0485 133.798 28.8189C134.149 28.5893 134.554 28.4744 135.013 28.4744C135.368 28.4744 135.648 28.5336 135.854 28.652C136.063 28.768 136.221 28.9006 136.33 29.0497C136.442 29.1965 136.528 29.3172 136.589 29.4119H136.661V26.7273H137.499V34H136.689V33.1619H136.589C136.528 33.2614 136.44 33.3868 136.327 33.5384C136.213 33.6875 136.051 33.8213 135.84 33.9396C135.629 34.0556 135.349 34.1136 134.999 34.1136ZM135.112 33.3608C135.448 33.3608 135.732 33.2732 135.964 33.098C136.196 32.9205 136.373 32.6754 136.494 32.3629C136.614 32.0481 136.675 31.6847 136.675 31.2727C136.675 30.8655 136.616 30.5092 136.497 30.2038C136.379 29.8961 136.204 29.657 135.972 29.4865C135.74 29.3137 135.453 29.2273 135.112 29.2273C134.757 29.2273 134.461 29.3184 134.224 29.5007C133.99 29.6806 133.814 29.9257 133.695 30.2358C133.579 30.5436 133.521 30.8892 133.521 31.2727C133.521 31.661 133.58 32.0137 133.699 32.331C133.82 32.6458 133.997 32.8968 134.232 33.0838C134.468 33.2685 134.762 33.3608 135.112 33.3608ZM139.15 36.0455V28.5455H139.96V29.4119H140.059C140.121 29.3172 140.206 29.1965 140.315 29.0497C140.426 28.9006 140.585 28.768 140.79 28.652C140.999 28.5336 141.281 28.4744 141.636 28.4744C142.095 28.4744 142.5 28.5893 142.85 28.8189C143.201 29.0485 143.474 29.3741 143.67 29.7955C143.867 30.2169 143.965 30.714 143.965 31.2869C143.965 31.8646 143.867 32.3653 143.67 32.7891C143.474 33.2105 143.202 33.5372 142.854 33.7692C142.506 33.9988 142.104 34.1136 141.65 34.1136C141.299 34.1136 141.019 34.0556 140.808 33.9396C140.598 33.8213 140.435 33.6875 140.322 33.5384C140.208 33.3868 140.121 33.2614 140.059 33.1619H139.988V36.0455H139.15ZM139.974 31.2727C139.974 31.6847 140.034 32.0481 140.155 32.3629C140.276 32.6754 140.452 32.9205 140.684 33.098C140.916 33.2732 141.2 33.3608 141.536 33.3608C141.887 33.3608 142.179 33.2685 142.413 33.0838C142.65 32.8968 142.828 32.6458 142.946 32.331C143.067 32.0137 143.127 31.661 143.127 31.2727C143.127 30.8892 143.068 30.5436 142.95 30.2358C142.834 29.9257 142.657 29.6806 142.42 29.5007C142.186 29.3184 141.891 29.2273 141.536 29.2273C141.195 29.2273 140.909 29.3137 140.677 29.4865C140.445 29.657 140.27 29.8961 140.151 30.2038C140.033 30.5092 139.974 30.8655 139.974 31.2727ZM147.46 34.1136C146.967 34.1136 146.535 33.9964 146.163 33.7621C145.794 33.5277 145.505 33.1998 145.297 32.7784C145.091 32.357 144.988 31.8646 144.988 31.3011C144.988 30.733 145.091 30.237 145.297 29.8132C145.505 29.3894 145.794 29.0604 146.163 28.826C146.535 28.5916 146.967 28.4744 147.46 28.4744C147.952 28.4744 148.383 28.5916 148.752 28.826C149.124 29.0604 149.413 29.3894 149.619 29.8132C149.827 30.237 149.931 30.733 149.931 31.3011C149.931 31.8646 149.827 32.357 149.619 32.7784C149.413 33.1998 149.124 33.5277 148.752 33.7621C148.383 33.9964 147.952 34.1136 147.46 34.1136ZM147.46 33.3608C147.834 33.3608 148.141 33.2649 148.383 33.0732C148.624 32.8814 148.803 32.6293 148.919 32.3168C149.035 32.0043 149.093 31.6657 149.093 31.3011C149.093 30.9366 149.035 30.5968 148.919 30.282C148.803 29.9671 148.624 29.7126 148.383 29.5185C148.141 29.3243 147.834 29.2273 147.46 29.2273C147.085 29.2273 146.778 29.3243 146.536 29.5185C146.295 29.7126 146.116 29.9671 146 30.282C145.884 30.5968 145.826 30.9366 145.826 31.3011C145.826 31.6657 145.884 32.0043 146 32.3168C146.116 32.6293 146.295 32.8814 146.536 33.0732C146.778 33.2649 147.085 33.3608 147.46 33.3608ZM151.21 34V28.5455H152.02V29.3693H152.077C152.176 29.0994 152.356 28.8804 152.617 28.7124C152.877 28.5443 153.171 28.4602 153.497 28.4602C153.559 28.4602 153.636 28.4614 153.728 28.4638C153.82 28.4661 153.89 28.4697 153.938 28.4744V29.3267C153.909 29.3196 153.844 29.3089 153.742 29.2947C153.643 29.2782 153.538 29.2699 153.426 29.2699C153.161 29.2699 152.924 29.3255 152.716 29.4368C152.51 29.5457 152.347 29.6972 152.226 29.8913C152.108 30.0831 152.048 30.3021 152.048 30.5483V34H151.21ZM158.369 31.7699V28.5455H159.207V34H158.369V33.0767H158.312C158.184 33.3537 157.985 33.5893 157.715 33.7834C157.445 33.9751 157.104 34.071 156.692 34.071C156.352 34.071 156.049 33.9964 155.783 33.8473C155.518 33.6958 155.31 33.4685 155.158 33.1655C155.007 32.8601 154.931 32.4754 154.931 32.0114V28.5455H155.769V31.9545C155.769 32.3523 155.88 32.6695 156.103 32.9062C156.328 33.143 156.614 33.2614 156.962 33.2614C157.171 33.2614 157.383 33.2081 157.598 33.1016C157.816 32.995 157.998 32.8317 158.145 32.6115C158.294 32.3913 158.369 32.1108 158.369 31.7699ZM160.742 28.5455H161.58V34.3977C161.58 34.7339 161.522 35.0251 161.406 35.2713C161.292 35.5175 161.119 35.7081 160.887 35.843C160.658 35.978 160.368 36.0455 160.017 36.0455C159.989 36.0455 159.96 36.0455 159.932 36.0455C159.904 36.0455 159.875 36.0455 159.847 36.0455V35.2642C159.875 35.2642 159.901 35.2642 159.925 35.2642C159.949 35.2642 159.975 35.2642 160.003 35.2642C160.259 35.2642 160.446 35.1884 160.564 35.0369C160.682 34.8878 160.742 34.6747 160.742 34.3977V28.5455ZM161.154 27.6364C160.99 27.6364 160.849 27.5807 160.731 27.4695C160.615 27.3582 160.557 27.2244 160.557 27.0682C160.557 26.9119 160.615 26.7782 160.731 26.6669C160.849 26.5556 160.99 26.5 161.154 26.5C161.317 26.5 161.457 26.5556 161.573 26.6669C161.691 26.7782 161.75 26.9119 161.75 27.0682C161.75 27.2244 161.691 27.3582 161.573 27.4695C161.457 27.5807 161.317 27.6364 161.154 27.6364ZM165.402 34.1136C164.876 34.1136 164.423 33.9976 164.042 33.7656C163.663 33.5312 163.37 33.2045 163.164 32.7855C162.961 32.3641 162.859 31.8741 162.859 31.3153C162.859 30.7566 162.961 30.2642 163.164 29.8381C163.37 29.4096 163.657 29.0758 164.024 28.8366C164.393 28.5952 164.824 28.4744 165.316 28.4744C165.6 28.4744 165.881 28.5218 166.158 28.6165C166.435 28.7112 166.687 28.8651 166.914 29.0781C167.142 29.2888 167.323 29.5682 167.458 29.9162C167.593 30.2642 167.66 30.6927 167.66 31.2017V31.5568H163.456V30.8324H166.808C166.808 30.5246 166.746 30.25 166.623 30.0085C166.502 29.767 166.33 29.5765 166.105 29.4368C165.882 29.2971 165.619 29.2273 165.316 29.2273C164.983 29.2273 164.694 29.3101 164.45 29.4759C164.208 29.6392 164.023 29.8523 163.892 30.1151C163.762 30.3778 163.697 30.6596 163.697 30.9602V31.4432C163.697 31.8551 163.768 32.2043 163.91 32.4908C164.055 32.7749 164.255 32.9915 164.51 33.1406C164.766 33.2874 165.063 33.3608 165.402 33.3608C165.622 33.3608 165.821 33.33 165.998 33.2685C166.178 33.2045 166.333 33.1098 166.463 32.9844C166.594 32.8565 166.694 32.6979 166.765 32.5085L167.575 32.7358C167.49 33.0104 167.346 33.2519 167.145 33.4602C166.944 33.6662 166.695 33.8272 166.4 33.9432C166.104 34.0568 165.771 34.1136 165.402 34.1136ZM168.935 34V28.5455H169.745V29.3977H169.816C169.929 29.1065 170.113 28.8804 170.366 28.7195C170.619 28.5561 170.924 28.4744 171.279 28.4744C171.639 28.4744 171.938 28.5561 172.177 28.7195C172.419 28.8804 172.607 29.1065 172.742 29.3977H172.799C172.938 29.116 173.148 28.8923 173.427 28.7266C173.707 28.5585 174.042 28.4744 174.432 28.4744C174.92 28.4744 175.319 28.6271 175.629 28.9325C175.939 29.2356 176.094 29.7079 176.094 30.3494V34H175.256V30.3494C175.256 29.947 175.146 29.6593 174.926 29.4865C174.706 29.3137 174.446 29.2273 174.148 29.2273C173.765 29.2273 173.467 29.3433 173.257 29.5753C173.046 29.8049 172.941 30.0961 172.941 30.4489V34H172.088V30.2642C172.088 29.9541 171.988 29.7043 171.787 29.5149C171.585 29.3232 171.326 29.2273 171.009 29.2273C170.791 29.2273 170.587 29.2853 170.398 29.4013C170.211 29.5173 170.06 29.6783 169.944 29.8842C169.83 30.0878 169.773 30.3234 169.773 30.5909V34H168.935ZM179.913 34.1136C179.388 34.1136 178.934 33.9976 178.553 33.7656C178.174 33.5312 177.882 33.2045 177.676 32.7855C177.473 32.3641 177.371 31.8741 177.371 31.3153C177.371 30.7566 177.473 30.2642 177.676 29.8381C177.882 29.4096 178.169 29.0758 178.536 28.8366C178.905 28.5952 179.336 28.4744 179.828 28.4744C180.112 28.4744 180.393 28.5218 180.67 28.6165C180.947 28.7112 181.199 28.8651 181.426 29.0781C181.653 29.2888 181.835 29.5682 181.969 29.9162C182.104 30.2642 182.172 30.6927 182.172 31.2017V31.5568H177.967V30.8324H181.32C181.32 30.5246 181.258 30.25 181.135 30.0085C181.014 29.767 180.841 29.5765 180.616 29.4368C180.394 29.2971 180.131 29.2273 179.828 29.2273C179.494 29.2273 179.205 29.3101 178.962 29.4759C178.72 29.6392 178.534 29.8523 178.404 30.1151C178.274 30.3778 178.209 30.6596 178.209 30.9602V31.4432C178.209 31.8551 178.28 32.2043 178.422 32.4908C178.566 32.7749 178.766 32.9915 179.022 33.1406C179.278 33.2874 179.575 33.3608 179.913 33.3608C180.134 33.3608 180.332 33.33 180.51 33.2685C180.69 33.2045 180.845 33.1098 180.975 32.9844C181.105 32.8565 181.206 32.6979 181.277 32.5085L182.087 32.7358C182.001 33.0104 181.858 33.2519 181.657 33.4602C181.456 33.6662 181.207 33.8272 180.911 33.9432C180.615 34.0568 180.283 34.1136 179.913 34.1136ZM187.097 26.7273V34H186.259V26.7273H187.097ZM190.848 34.1136C190.356 34.1136 189.924 33.9964 189.552 33.7621C189.183 33.5277 188.894 33.1998 188.686 32.7784C188.48 32.357 188.377 31.8646 188.377 31.3011C188.377 30.733 188.48 30.237 188.686 29.8132C188.894 29.3894 189.183 29.0604 189.552 28.826C189.924 28.5916 190.356 28.4744 190.848 28.4744C191.341 28.4744 191.771 28.5916 192.141 28.826C192.512 29.0604 192.801 29.3894 193.007 29.8132C193.216 30.237 193.32 30.733 193.32 31.3011C193.32 31.8646 193.216 32.357 193.007 32.7784C192.801 33.1998 192.512 33.5277 192.141 33.7621C191.771 33.9964 191.341 34.1136 190.848 34.1136ZM190.848 33.3608C191.222 33.3608 191.53 33.2649 191.771 33.0732C192.013 32.8814 192.192 32.6293 192.308 32.3168C192.424 32.0043 192.482 31.6657 192.482 31.3011C192.482 30.9366 192.424 30.5968 192.308 30.282C192.192 29.9671 192.013 29.7126 191.771 29.5185C191.53 29.3243 191.222 29.2273 190.848 29.2273C190.474 29.2273 190.166 29.3243 189.925 29.5185C189.683 29.7126 189.505 29.9671 189.389 30.282C189.273 30.5968 189.215 30.9366 189.215 31.3011C189.215 31.6657 189.273 32.0043 189.389 32.3168C189.505 32.6293 189.683 32.8814 189.925 33.0732C190.166 33.2649 190.474 33.3608 190.848 33.3608ZM195.38 32.0114L195.366 30.9744H195.537L197.923 28.5455H198.96L196.417 31.1165H196.346L195.38 32.0114ZM194.599 34V26.7273H195.437V34H194.599ZM198.065 34L195.934 31.3011L196.531 30.7188L199.13 34H198.065ZM201.644 34.1278C201.298 34.1278 200.984 34.0627 200.703 33.9325C200.421 33.8 200.197 33.6094 200.031 33.3608C199.866 33.1098 199.783 32.8068 199.783 32.4517C199.783 32.1392 199.844 31.8859 199.968 31.6918C200.091 31.4953 200.255 31.3414 200.461 31.2301C200.667 31.1188 200.894 31.036 201.143 30.9815C201.394 30.9247 201.646 30.8797 201.899 30.8466C202.231 30.804 202.499 30.772 202.705 30.7507C202.914 30.727 203.065 30.688 203.16 30.6335C203.257 30.5791 203.306 30.4844 203.306 30.3494V30.321C203.306 29.9706 203.21 29.6984 203.018 29.5043C202.829 29.3101 202.541 29.2131 202.155 29.2131C201.755 29.2131 201.441 29.3007 201.214 29.4759C200.987 29.651 200.827 29.8381 200.735 30.0369L199.939 29.7528C200.081 29.4214 200.271 29.1634 200.507 28.9787C200.746 28.7917 201.007 28.6615 201.289 28.5881C201.573 28.5123 201.852 28.4744 202.127 28.4744C202.302 28.4744 202.503 28.4957 202.73 28.5384C202.96 28.5786 203.181 28.6626 203.394 28.7905C203.61 28.9183 203.789 29.1113 203.931 29.3693C204.073 29.6274 204.144 29.973 204.144 30.4062V34H203.306V33.2614H203.263C203.206 33.3797 203.111 33.5064 202.979 33.6413C202.846 33.7763 202.67 33.8911 202.45 33.9858C202.23 34.0805 201.961 34.1278 201.644 34.1278ZM201.771 33.375C202.103 33.375 202.382 33.3099 202.61 33.1797C202.839 33.0495 203.012 32.8814 203.128 32.6754C203.246 32.4695 203.306 32.2528 203.306 32.0256V31.2585C203.27 31.3011 203.192 31.3402 203.071 31.3757C202.953 31.4089 202.816 31.4384 202.659 31.4645C202.505 31.4882 202.355 31.5095 202.208 31.5284C202.064 31.545 201.947 31.5592 201.857 31.571C201.639 31.5994 201.435 31.6456 201.246 31.7095C201.059 31.7711 200.907 31.8646 200.791 31.9901C200.678 32.1132 200.621 32.2812 200.621 32.4943C200.621 32.7855 200.729 33.0057 200.944 33.1548C201.162 33.3016 201.438 33.375 201.771 33.375ZM201.8 27.8068L202.666 26.1591H203.646L202.539 27.8068H201.8ZM206.511 26.7273V34H205.673V26.7273H206.511ZM208.884 30.7188V34H208.046V28.5455H208.856V29.3977H208.927C209.055 29.1207 209.249 28.8982 209.509 28.7301C209.77 28.5597 210.106 28.4744 210.518 28.4744C210.887 28.4744 211.21 28.5502 211.487 28.7017C211.764 28.8509 211.98 29.0781 212.134 29.3835C212.288 29.6866 212.365 30.0701 212.365 30.5341V34H211.526V30.5909C211.526 30.1624 211.415 29.8286 211.193 29.5895C210.97 29.348 210.665 29.2273 210.276 29.2273C210.009 29.2273 209.77 29.2853 209.559 29.4013C209.351 29.5173 209.186 29.6866 209.066 29.9091C208.945 30.1316 208.884 30.4015 208.884 30.7188ZM216.183 34.1136C215.657 34.1136 215.204 33.9976 214.823 33.7656C214.444 33.5312 214.152 33.2045 213.946 32.7855C213.742 32.3641 213.64 31.8741 213.64 31.3153C213.64 30.7566 213.742 30.2642 213.946 29.8381C214.152 29.4096 214.438 29.0758 214.805 28.8366C215.174 28.5952 215.605 28.4744 216.098 28.4744C216.382 28.4744 216.662 28.5218 216.939 28.6165C217.216 28.7112 217.468 28.8651 217.696 29.0781C217.923 29.2888 218.104 29.5682 218.239 29.9162C218.374 30.2642 218.441 30.6927 218.441 31.2017V31.5568H214.237V30.8324H217.589C217.589 30.5246 217.528 30.25 217.404 30.0085C217.284 29.767 217.111 29.5765 216.886 29.4368C216.663 29.2971 216.401 29.2273 216.098 29.2273C215.764 29.2273 215.475 29.3101 215.231 29.4759C214.99 29.6392 214.804 29.8523 214.674 30.1151C214.543 30.3778 214.478 30.6596 214.478 30.9602V31.4432C214.478 31.8551 214.549 32.2043 214.691 32.4908C214.836 32.7749 215.036 32.9915 215.292 33.1406C215.547 33.2874 215.844 33.3608 216.183 33.3608C216.403 33.3608 216.602 33.33 216.779 33.2685C216.959 33.2045 217.114 33.1098 217.245 32.9844C217.375 32.8565 217.475 32.6979 217.547 32.5085L218.356 32.7358C218.271 33.0104 218.128 33.2519 217.926 33.4602C217.725 33.6662 217.477 33.8272 217.181 33.9432C216.885 34.0568 216.552 34.1136 216.183 34.1136ZM220.327 34.0568C220.152 34.0568 220.002 33.9941 219.876 33.8686C219.751 33.7431 219.688 33.5928 219.688 33.4176C219.688 33.2424 219.751 33.0921 219.876 32.9666C220.002 32.8411 220.152 32.7784 220.327 32.7784C220.502 32.7784 220.653 32.8411 220.778 32.9666C220.904 33.0921 220.966 33.2424 220.966 33.4176C220.966 33.5336 220.937 33.6402 220.877 33.7372C220.821 33.8343 220.744 33.9124 220.647 33.9716C220.552 34.0284 220.445 34.0568 220.327 34.0568Z" fill="#4B5563"/>
<defs>
<linearGradient id="paint0_linear_185_2208" x1="19.3764" y1="21.157" x2="20.4197" y2="25.1306" gradientUnits="userSpaceOnUse">
<stop stop-color="#919293"/>
<stop offset="1" stop-color="#ADADB0"/>
</linearGradient>
<linearGradient id="paint1_linear_185_2208" x1="16.7523" y1="21.3529" x2="16.5669" y2="20.282" gradientUnits="userSpaceOnUse">
<stop stop-color="#6A686B"/>
<stop offset="1" stop-color="#7E7E7A"/>
</linearGradient>
<linearGradient id="paint2_linear_185_2208" x1="16.8799" y1="16.8441" x2="20.0898" y2="17.4742" gradientUnits="userSpaceOnUse">
<stop stop-color="#5F5A5F"/>
<stop offset="1" stop-color="#70727B"/>
</linearGradient>
<linearGradient id="paint3_linear_185_2208" x1="18.7748" y1="11.7266" x2="20.738" y2="12.6012" gradientUnits="userSpaceOnUse">
<stop stop-color="#CCCFDA"/>
<stop offset="1" stop-color="#989AA0"/>
</linearGradient>
<linearGradient id="paint4_linear_185_2208" x1="20.6397" y1="12.0479" x2="20.0168" y2="12.1143" gradientUnits="userSpaceOnUse">
<stop stop-color="#4B5055"/>
<stop offset="1" stop-color="#656574"/>
</linearGradient>
<linearGradient id="paint5_linear_185_2208" x1="22.663" y1="15.9048" x2="22.5951" y2="15.2345" gradientUnits="userSpaceOnUse">
<stop stop-color="#050506" stop-opacity="0.972549"/>
<stop offset="1" stop-color="#1D1C20"/>
</linearGradient>
<linearGradient id="paint6_linear_185_2208" x1="31.6031" y1="20.0924" x2="33.2029" y2="20.53" gradientUnits="userSpaceOnUse">
<stop stop-color="#404347"/>
<stop offset="1" stop-color="#64616A"/>
</linearGradient>
<linearGradient id="paint7_linear_185_2208" x1="32.3268" y1="23.9484" x2="32.9815" y2="24.2974" gradientUnits="userSpaceOnUse">
<stop stop-color="#9797A0"/>
<stop offset="1" stop-color="#C1C1C5"/>
</linearGradient>
<linearGradient id="paint8_linear_185_2208" x1="7.38386" y1="12.962" x2="6.50089" y2="12.932" gradientUnits="userSpaceOnUse">
<stop stop-color="#9D9C9E"/>
<stop offset="1" stop-color="#BDBBBD"/>
</linearGradient>
<clipPath id="clip0_185_2208">
<rect width="40" height="40" fill="white"/>
</clipPath>
</defs>
</svg>
