<svg width="406" height="40" viewBox="0 0 406 40" fill="none" xmlns="http://www.w3.org/2000/svg">
<g clip-path="url(#clip0_185_2127)">
<path d="M6.87748 32.8809C6.90361 33.7202 6.72928 35.2296 6.95318 35.8965C8.00166 35.9334 9.03338 35.7513 10.0751 35.6843C10.1834 35.6773 10.3036 35.6866 10.41 35.6745C10.7581 35.6673 11.3465 35.642 11.676 35.684C13.5061 35.7559 15.3371 35.8016 17.1685 35.8211C17.8532 35.8239 18.5454 35.7911 19.2169 35.7958L26.8678 35.8502L31.4223 35.8502C32.0114 35.8502 33.5151 35.871 34.0687 35.7934L34.3817 35.8448C34.4214 35.8099 34.4932 35.5814 34.5433 35.4913C34.6542 35.3997 34.7539 35.3981 34.8967 35.3766C34.9709 35.5889 34.968 35.6461 34.9085 35.8693L35.092 35.8529C34.9566 35.9476 34.9383 35.9607 34.8869 36.1162C34.9244 36.4405 35.2674 36.4746 35.5385 36.5436C35.6735 36.3631 35.7276 36.2879 35.9008 36.1355L35.9044 36.8647C34.4075 36.7744 32.5407 36.8331 31.0197 36.8337L22.2951 36.8336L13.16 36.8327C11.6735 36.8313 9.67725 36.7702 8.24154 36.8459C7.72369 36.8779 6.65443 36.9132 6.16826 36.8753C6.13865 36.7137 6.13635 36.5456 6.12939 36.3811C6.23338 36.4168 6.35639 36.454 6.45299 36.503C6.97318 35.9312 6.43537 35.4589 6.61803 34.689C6.74471 34.1552 6.74412 33.4389 6.87748 32.8809Z" fill="url(#paint0_linear_185_2127)"/>
<path d="M6.12939 36.3809C6.23338 36.4165 6.35639 36.4537 6.45299 36.5027C7.02564 36.8267 7.68174 36.429 8.24154 36.8456C7.72369 36.8777 6.65443 36.9129 6.16826 36.875C6.13865 36.7134 6.13635 36.5453 6.12939 36.3809Z" fill="#6E6E6E"/>
<path d="M34.3817 35.8442C34.4214 35.8093 34.4932 35.5808 34.5433 35.4906C34.6542 35.3991 34.7539 35.3975 34.8967 35.376C34.9709 35.5882 34.968 35.6455 34.9085 35.8687C34.8667 35.9082 34.7928 35.9461 34.7404 35.9761C34.5927 35.9907 34.5584 35.9141 34.4019 35.852L34.3817 35.8442Z" fill="#4A494B"/>
<path d="M6.07251 22.3206C6.08849 22.1324 6.057 22.13 6.15829 22.0137C6.44267 21.9101 7.04181 21.988 7.3538 21.9745C8.82388 21.9109 10.2248 22.0848 11.6419 22.4676C11.7215 22.4891 11.8028 22.657 11.8474 22.728C12.2122 22.9051 12.2925 23.4061 11.8895 23.5058C11.849 23.5839 11.8247 23.6386 11.792 23.7203C11.4501 23.8214 7.99735 23.8574 7.56618 23.8111C7.46368 24.5721 7.50513 26.1843 7.50501 27.0043L7.51349 32.9547C7.51466 33.6003 7.5538 34.894 7.48317 35.472C7.9561 35.4596 8.42931 35.4603 8.9022 35.4741C9.55911 35.5613 9.71618 35.6877 10.41 35.6746C10.3036 35.6868 10.1834 35.6775 10.075 35.6845C9.03337 35.7515 8.00165 35.9336 6.95317 35.8967C6.72927 35.2298 6.9036 33.7204 6.87747 32.8811C6.74411 33.4391 6.7447 34.1554 6.61802 34.6892C6.43536 35.4591 6.97317 35.9314 6.45298 36.5032C6.35638 36.4542 6.23337 36.417 6.12939 36.3813C6.09493 36.12 6.12134 35.4813 6.12259 35.1891L6.12485 32.8923L6.11798 26.63C6.11896 25.5695 6.15185 24.4353 6.12575 23.3848C6.11888 23.3007 6.12298 23.1828 6.12329 23.0957C6.0906 22.8643 6.11915 22.6046 6.07251 22.3206Z" fill="#020203"/>
<path d="M6.1257 23.3842C6.40047 23.4219 6.58176 23.3092 6.86387 23.3201L6.86887 23.4689C6.94988 25.6715 6.96816 27.9446 6.90301 30.1457C6.87926 30.9483 6.93188 32.127 6.87742 32.8804C6.74406 33.4385 6.74465 34.1548 6.61797 34.6886C6.43531 35.4585 6.97313 35.9308 6.45293 36.5025C6.35633 36.4536 6.23332 36.4164 6.12934 36.3807C6.09488 36.1194 6.12129 35.4807 6.12254 35.1885L6.12481 32.8917L6.11793 26.6294C6.11891 25.5688 6.1518 24.4346 6.1257 23.3842Z" fill="#A9A8AA"/>
<path d="M6.07251 22.3206C6.08849 22.1324 6.057 22.13 6.15829 22.0137C6.44267 21.9101 7.04181 21.988 7.3538 21.9745C8.82388 21.9109 10.2248 22.0848 11.6419 22.4676C11.7215 22.4891 11.8028 22.657 11.8474 22.728C11.8231 22.8106 11.7982 22.9043 11.7709 22.9848C11.262 22.702 10.2926 22.9089 9.6447 22.8802C9.44067 22.9268 9.00497 23.0102 8.85915 23.1401L8.87177 23.1972L8.90438 23.1998C9.01458 23.2093 9.04704 23.2095 9.13704 23.2803C8.76028 23.2788 6.99009 23.0732 6.86892 23.4695L6.86392 23.3207C6.58181 23.3098 6.40052 23.4225 6.12575 23.3848C6.11888 23.3007 6.12298 23.1828 6.12329 23.0957C6.0906 22.8643 6.11915 22.6046 6.07251 22.3206Z" fill="url(#paint1_linear_185_2127)"/>
<path d="M6.07251 22.3206C6.08849 22.1324 6.057 22.13 6.15829 22.0137C6.44267 21.9101 7.04181 21.988 7.3538 21.9745C8.82388 21.9109 10.2248 22.0848 11.6419 22.4676C11.7215 22.4891 11.8028 22.657 11.8474 22.728C11.8231 22.8106 11.7982 22.9043 11.7709 22.9848C11.262 22.702 10.2926 22.9089 9.6447 22.8802C9.44653 22.8642 8.17302 22.351 7.94841 22.2534C7.75942 21.9981 7.58048 21.9977 7.2745 22.0171C6.81935 22.0459 6.3897 21.9516 6.07251 22.3206Z" fill="#4A494B"/>
<path d="M6.12332 23.0958C6.1309 22.9672 6.12188 22.7998 6.20969 22.7137C6.32871 22.6735 6.38621 22.6565 6.51008 22.6328C6.65336 22.7599 6.86727 22.9229 6.94172 23.0901C6.94325 23.2075 6.9543 23.2102 6.86395 23.3208C6.58184 23.31 6.40055 23.4226 6.12578 23.385C6.11891 23.3008 6.12301 23.1829 6.12332 23.0958Z" fill="#C2C0C0"/>
<path d="M9.64468 22.8803C10.2926 22.909 11.2619 22.7021 11.7709 22.9849C11.7527 23.1109 11.7531 23.2145 11.6546 23.2953C11.363 23.3833 9.52558 23.3088 9.13702 23.2804C9.04702 23.2095 9.01456 23.2094 8.90436 23.1999L8.87175 23.1973L8.85913 23.1402C9.00495 23.0103 9.44065 22.9269 9.64468 22.8803Z" fill="#C2C0C0"/>
<path d="M34.4459 22.2252C34.8961 22.1421 35.6951 22.0451 35.9028 22.6224C35.9173 22.6628 35.9068 22.9317 35.9047 22.9901L35.9008 36.1355C35.7276 36.2879 35.6735 36.3631 35.5385 36.5436C35.2674 36.4747 34.9244 36.4405 34.8869 36.1162C34.9383 35.9607 34.9565 35.9476 35.092 35.8529L34.9085 35.8693C34.9679 35.6461 34.9709 35.5889 34.8966 35.3766C34.8634 35.1152 34.9293 34.0744 34.9318 33.7168C34.945 31.8273 34.9377 30.6078 34.5726 28.7629C34.3455 27.8928 34.5411 24.9221 34.4999 23.7812C33.1155 23.8173 31.6722 23.8152 30.2855 23.7983C29.8851 23.7933 29.7109 23.6008 29.4739 23.3168C29.3782 23.2021 29.4071 23.1596 29.4258 23.0283C29.5249 22.9106 29.4904 22.9456 29.6522 22.895C29.8205 22.7736 29.8734 22.6214 29.9504 22.4376C30.4912 22.378 31.105 22.3952 31.6499 22.409C32.6345 22.4458 33.4813 22.314 34.4459 22.2252Z" fill="#A9A8AA"/>
<path d="M34.4459 22.2252C34.8961 22.1421 35.6951 22.0451 35.9028 22.6224C35.9173 22.6628 35.9068 22.9317 35.9047 22.9901C35.7676 22.9256 35.7514 22.9118 35.6442 22.8063C35.4655 22.8542 35.242 22.8786 35.152 23.0079C35.1396 23.1982 35.26 23.268 35.2532 23.4665C35.232 24.0824 35.2244 24.7634 35.1525 25.3716L35.1596 25.9174C35.1308 26.792 35.0172 27.2896 34.8093 28.1414C34.737 28.4374 34.6166 28.3856 34.5726 28.7629C34.3455 27.8928 34.5411 24.9221 34.4999 23.7812C33.1155 23.8173 31.6722 23.8152 30.2855 23.7983C29.8851 23.7933 29.7109 23.6008 29.4739 23.3168C29.3782 23.2021 29.4071 23.1596 29.4258 23.0283C29.5249 22.9106 29.4904 22.9456 29.6522 22.895C29.8205 22.7736 29.8734 22.6214 29.9504 22.4376C30.4912 22.378 31.105 22.3952 31.6499 22.409C32.6345 22.4458 33.4813 22.314 34.4459 22.2252Z" fill="#020203"/>
<path d="M34.4459 22.2252C34.8961 22.1421 35.6951 22.0451 35.9028 22.6224C35.9174 22.6628 35.9068 22.9317 35.9047 22.9901C35.7676 22.9256 35.7514 22.9118 35.6442 22.8063C35.4655 22.8542 35.242 22.8786 35.152 23.0079C35.1397 23.1982 35.26 23.268 35.2532 23.4665C35.2321 24.0824 35.2244 24.7634 35.1526 25.3716C35.0865 25.0167 35.1097 23.5067 35.0773 23.0028C33.9609 23.0008 32.9021 23.2873 31.6657 23.2817C31.7985 23.2584 31.9928 23.2551 32.0089 23.0998C31.8849 22.9663 31.9191 23.005 31.7272 22.9458L31.7894 22.9038L31.6819 22.884C31.6251 22.8151 31.6649 22.5818 31.6499 22.409C32.6345 22.4458 33.4813 22.314 34.4459 22.2252Z" fill="url(#paint2_linear_185_2127)"/>
<path d="M34.4459 22.2252C34.8961 22.1421 35.6951 22.0451 35.9028 22.6224C35.9174 22.6628 35.9068 22.9317 35.9047 22.9901C35.7676 22.9256 35.7514 22.9118 35.6442 22.8063C35.3391 22.4595 34.9073 22.25 34.4459 22.2252Z" fill="#4A494B"/>
<path d="M29.9504 22.4375C30.4913 22.3779 31.105 22.3951 31.65 22.4089C31.665 22.5817 31.6252 22.815 31.682 22.8839L31.7894 22.9037L31.7272 22.9456C31.9191 23.0049 31.885 22.9662 32.0089 23.0997C31.9929 23.255 31.7986 23.2583 31.6658 23.2816C31.0965 23.3349 30.2618 23.4245 29.7976 23.0803L29.6522 22.8949C29.8205 22.7735 29.8735 22.6213 29.9504 22.4375Z" fill="url(#paint3_linear_185_2127)"/>
<path d="M29.7976 23.0801C30.4849 22.6648 30.9478 22.835 31.7272 22.9455C31.9191 23.0048 31.885 22.9661 32.0089 23.0996C31.9928 23.2548 31.7985 23.2582 31.6657 23.2815C31.0964 23.3348 30.2617 23.4243 29.7976 23.0801Z" fill="#C2C0C0"/>
<path d="M35.1597 25.917C35.2321 26.3599 35.2028 27.0666 35.2378 27.5576C35.3756 29.4905 35.3537 31.4613 35.3563 33.3989C35.3568 33.7447 35.399 35.5457 35.367 35.7742C35.2746 35.8311 35.1977 35.8356 35.092 35.8525L34.9085 35.8689C34.968 35.6457 34.9709 35.5884 34.8967 35.3762C34.8635 35.1147 34.9293 34.074 34.9318 33.7164C34.9451 31.8268 34.9378 30.6074 34.5726 28.7625C34.6166 28.3852 34.737 28.437 34.8094 28.1409C35.0173 27.2892 35.1309 26.7916 35.1597 25.917Z" fill="url(#paint4_linear_185_2127)"/>
<path d="M22.8895 14.2637L22.8803 14.2918C22.7594 14.6547 22.3712 15.0081 22.4369 15.2602C22.5116 15.3733 22.5784 15.395 22.7142 15.4248C22.7287 15.4279 22.7432 15.4307 22.7577 15.4332C22.5416 15.8912 22.3545 16.2421 21.982 16.5805C21.9583 16.6021 21.934 16.7019 21.9256 16.7381C21.9527 17.1873 21.6867 17.3265 21.6532 17.7069L21.6255 20.0083C21.6232 20.2899 21.7043 20.8113 21.5353 20.9998C21.4249 21.0374 21.3562 21.0557 21.2442 21.0816C21.073 21.1239 20.7358 21.1059 20.5872 20.9985C20.4875 20.7359 20.5286 17.562 20.5165 17.06C20.4125 16.6252 20.2623 16.44 20.0296 16.0688L19.9929 16.0396C20.1483 15.7946 20.2655 15.7909 20.5342 15.798C20.6992 16.0747 20.7396 16.2423 21.0954 16.2673C21.2394 16.3323 21.2587 16.3355 21.4166 16.3278C21.5631 16.0002 21.7271 15.6807 21.9079 15.3707C22.0471 15.0556 22.6108 14.4689 22.8895 14.2637Z" fill="#DDDCDF"/>
<path d="M22.8895 14.2637L22.8803 14.2918C22.7594 14.6547 22.3712 15.0081 22.4369 15.2602C22.5116 15.3733 22.5784 15.395 22.7142 15.4248C22.7287 15.4279 22.7432 15.4307 22.7577 15.4332C22.5416 15.8912 22.3545 16.2421 21.982 16.5805C21.9583 16.6021 21.934 16.7019 21.9256 16.7381C21.9527 17.1873 21.6867 17.3265 21.6532 17.7069C21.6385 17.5541 21.636 17.5332 21.5605 17.3986C21.4039 17.235 21.2399 16.7615 21.1175 16.679L21.0087 16.4616C20.9709 16.4109 20.9488 16.4031 20.8963 16.366C20.3314 16.4105 20.6315 15.9711 20.3346 15.8701C20.2046 15.8877 20.128 15.9789 20.0296 16.0688L19.9929 16.0396C20.1483 15.7946 20.2655 15.7909 20.5342 15.798C20.6992 16.0747 20.7396 16.2423 21.0954 16.2673C21.2394 16.3323 21.2587 16.3355 21.4166 16.3278C21.5631 16.0002 21.7271 15.6807 21.9079 15.3707C22.0471 15.0556 22.6108 14.4689 22.8895 14.2637Z" fill="#C2C0C0"/>
<path d="M21.9079 15.3705C22.1629 15.3568 22.3129 15.2919 22.4383 15.5372C22.4077 15.6352 22.3787 15.7421 22.3345 15.8337C21.9476 15.8844 22.015 15.8253 21.8795 16.2336C21.8266 16.3931 21.8216 16.4176 21.6666 16.459C21.5415 16.4209 21.5198 16.4156 21.4166 16.3276C21.5631 16 21.7271 15.6805 21.9079 15.3705Z" fill="#DDDCDF"/>
<path d="M22.3345 15.8338C22.1199 15.8078 21.9374 15.8626 21.8706 15.6353C22.0198 15.4054 22.218 15.4459 22.4383 15.5373C22.4077 15.6353 22.3786 15.7421 22.3345 15.8338Z" fill="#EBE9EA"/>
<path d="M21.5605 17.3988C21.4717 16.981 21.4961 16.8427 21.9256 16.7383C21.9527 17.1875 21.6867 17.3267 21.6531 17.7071C21.6385 17.5543 21.636 17.5334 21.5605 17.3988Z" fill="#4A494B"/>
<path d="M20.5165 17.0596C20.6376 17.0977 20.7062 17.127 20.7645 17.2456C20.9885 17.7007 20.9007 20.0295 20.9344 20.7116C21.0082 20.8286 21.1193 21.0453 21.2442 21.0812C21.0729 21.1234 20.7358 21.1055 20.5871 20.9981C20.4875 20.7355 20.5286 17.5616 20.5165 17.0596Z" fill="#7C7B7E"/>
<path d="M21.1175 16.6788L21.0943 16.7358C21.0078 16.7984 20.9874 16.8084 20.888 16.848C20.6767 16.8345 20.5456 16.7314 20.5694 16.5111L20.6524 16.4449C20.8176 16.4006 20.8433 16.4111 21.0087 16.4613L21.1175 16.6788Z" fill="#EBE9EA"/>
<path d="M21.188 31.2114C21.4179 31.1792 21.9097 31.2107 22.3825 31.2015C24.1666 31.1668 26.1171 31.2939 27.8839 31.1071C27.9178 31.1036 27.9225 31.0136 27.9319 30.9629C27.9833 31.1367 28.0329 31.18 28.1936 31.2677C28.2752 31.3117 28.3576 31.354 28.4409 31.3944C28.41 31.4832 28.4002 31.5191 28.3524 31.599C27.9776 31.7202 21.9744 31.7121 21.318 31.6505C21.0911 31.6797 19.7369 31.656 19.4276 31.6557L15.2831 31.6475C14.9957 31.6082 14.5943 31.6627 14.2937 31.6232C14.2043 31.6114 14.2007 31.4814 14.1684 31.4683C13.9502 31.3795 13.9943 31.3634 13.8716 31.2207L13.8496 31.1954C13.8641 31.0808 13.843 31.0948 13.9086 31.0367C14.0209 31.0704 14.1232 31.2139 14.2056 31.3088C14.3693 31.2945 14.5871 31.2185 14.7493 31.1689C16.1593 31.1929 17.5696 31.2041 18.9798 31.2027C19.6295 31.2038 20.5566 31.1758 21.188 31.2114Z" fill="url(#paint5_linear_185_2127)"/>
<path d="M15.2831 31.6469C14.9957 31.6077 14.5943 31.6621 14.2937 31.6226C14.2043 31.6109 14.2007 31.4809 14.1684 31.4678C13.9502 31.3789 13.9943 31.3629 13.8716 31.2202L13.8496 31.1948C13.8641 31.0803 13.843 31.0943 13.9086 31.0361C14.0209 31.0699 14.1232 31.2133 14.2056 31.3082C14.3693 31.294 14.5871 31.2179 14.7493 31.1684C16.1593 31.1923 17.5696 31.2036 18.9798 31.2021C19.6295 31.2032 20.5566 31.1753 21.188 31.2109C20.8973 31.4075 20.1281 31.2593 19.9931 31.33C20.9285 31.4097 21.7721 31.5015 22.6987 31.5982C22.4018 31.5991 21.5566 31.5659 21.318 31.65C21.0911 31.6792 19.7369 31.6554 19.4276 31.6551L15.2831 31.6469Z" fill="url(#paint6_linear_185_2127)"/>
<path d="M22.349 9.06543L22.5626 9.45133C22.5833 9.51613 22.651 9.71441 22.6557 9.76703C22.8321 10.1671 23.0516 10.2643 23.4653 10.3583C23.6305 10.4196 23.7203 10.4561 23.7934 10.6304C23.9651 10.7339 24.2284 10.8726 24.3453 11.0275L24.3835 11.1712C24.6049 11.1838 25.1246 11.1814 25.1702 11.4734C25.328 11.6925 25.4017 11.7343 25.6733 11.7709C26.0906 11.7508 26.5837 11.6307 26.8646 11.9831L26.9422 12.0519L27.1569 12.2312C27.2875 12.4202 27.2778 12.5109 27.153 12.7136C27.1321 12.8859 27.1559 12.9164 27.0666 13.0382C26.8698 13.0771 25.7758 13.1424 25.6249 13.1029C25.4452 13.1302 25.4321 13.1246 25.3108 13.2552L25.1415 13.0481C24.9558 13.1843 24.8403 13.2614 24.7549 13.4788C24.7745 13.3299 24.6833 13.1763 24.6184 13.0362C24.6725 12.83 25.0119 12.6516 25.1911 12.5702C25.2487 12.1679 24.8004 12.0961 24.5583 11.8268L24.5472 11.8143C23.8277 11.7787 23.0187 11.1375 22.5041 10.6583C22.211 10.3853 21.932 10.1488 21.9173 9.72566L21.8501 9.53801C22.0729 9.23762 21.931 9.17918 22.349 9.06543Z" fill="#C2C0C0"/>
<path d="M25.7383 12.2878C25.8989 12.0427 26.6267 12.083 26.9422 12.0518L27.1568 12.2311C27.2874 12.4201 27.2777 12.5107 27.1529 12.7135C27.132 12.8858 27.1558 12.9162 27.0665 13.0381C26.8697 13.077 25.7757 13.1422 25.6248 13.1027C25.4451 13.13 25.432 13.1245 25.3107 13.2551L25.1415 13.048C24.9557 13.1841 24.8402 13.2612 24.7548 13.4786C24.7744 13.3298 24.6832 13.1762 24.6183 13.036C24.6724 12.8298 25.0118 12.6515 25.191 12.57C25.3204 12.6626 25.3778 12.6365 25.5578 12.6486L25.6407 12.6137C25.7346 12.4944 25.7118 12.4604 25.7383 12.2878Z" fill="#DDDCDF"/>
<path d="M25.6248 13.1022C25.7619 13.023 25.6122 12.9278 25.7383 12.7384C26.0144 12.6247 26.7807 12.7215 27.1529 12.7129C27.132 12.8853 27.1558 12.9157 27.0665 13.0376C26.8697 13.0764 25.7757 13.1417 25.6248 13.1022Z" fill="#4A494B"/>
<path d="M25.7383 12.2878C25.8989 12.0427 26.6267 12.083 26.9421 12.0518L27.1568 12.2311C27.1383 12.393 27.1621 12.4007 27.079 12.517C26.8463 12.5826 26.5379 12.5502 26.3008 12.5175C26.0332 12.4805 25.9119 12.507 25.7383 12.2878Z" fill="#EBE9EA"/>
<path d="M25.191 12.5703C25.3204 12.6629 25.3778 12.6368 25.5578 12.6489C25.3701 12.6509 25.2536 12.6384 25.0891 12.7328C25.0089 12.858 25.0228 12.9316 25.1415 13.0482C24.9557 13.1844 24.8402 13.2615 24.7548 13.4789C24.7744 13.33 24.6832 13.1764 24.6183 13.0363C24.6724 12.8301 25.0118 12.6518 25.191 12.5703Z" fill="#C2C0C0"/>
<path d="M23.4652 10.3579C23.4039 10.5521 23.3366 10.7888 23.0965 10.7446C22.9501 10.621 22.8572 10.4871 22.7262 10.3605C22.5978 10.2364 22.5099 10.3183 22.4249 10.0968C22.4455 9.96613 22.5616 9.86734 22.6556 9.7666C22.832 10.1667 23.0515 10.2638 23.4652 10.3579Z" fill="#EBE9EA"/>
<path d="M24.3835 11.1709C24.6049 11.1835 25.1246 11.1812 25.1702 11.4731C25.0619 11.5505 24.4351 11.729 24.3229 11.7034C24.2908 11.5784 24.3574 11.3116 24.3835 11.1709Z" fill="#EBE9EA"/>
<path d="M22.349 9.06543L22.5626 9.45133C22.3321 9.7552 22.3202 9.8402 21.9173 9.72566L21.8501 9.53801C22.0729 9.23762 21.931 9.17918 22.349 9.06543Z" fill="#DDDCDF"/>
<path d="M24.3452 11.027C24.2691 11.0871 24.183 11.1332 24.0908 11.1631C23.8565 11.2386 23.5808 11.2358 23.5216 10.9482C23.5409 10.8128 23.6835 10.7215 23.7933 10.6299C23.965 10.7334 24.2283 10.8721 24.3452 11.027Z" fill="#DDDCDF"/>
<path d="M25.6733 11.7703C26.0906 11.7501 26.5837 11.6301 26.8646 11.9824C26.7787 11.977 26.6139 11.9262 26.5239 11.9381C26.2885 11.9692 26.1119 12.0165 25.8694 12.0032C25.7504 11.9515 25.731 11.8844 25.6733 11.7703Z" fill="#A9A8AA"/>
<path d="M27.9634 30.6787C28.1218 30.7282 28.1561 30.7365 28.3212 30.7466C28.1346 30.8077 28.0921 30.8443 27.9319 30.9623C27.9225 31.0129 27.9178 31.1029 27.8839 31.1065C26.1171 31.2933 24.1666 31.1662 22.3825 31.2009C21.9097 31.2101 21.4179 31.1786 21.188 31.2108C20.5566 31.1752 19.6295 31.2032 18.9798 31.202C17.5696 31.2035 16.1594 31.1923 14.7493 31.1683L14.3726 31.1042C14.3173 31.0662 14.2766 31.0317 14.2251 30.9887L14.2411 30.9188C14.3675 30.8499 14.4976 30.8191 14.6357 30.7792C14.8482 30.75 15.4356 30.7541 15.6635 30.7527C16.446 30.7518 17.2284 30.756 18.0108 30.7654C20.4957 30.7984 22.9809 30.8031 25.4659 30.7794C26.1582 30.7705 26.8375 30.8079 27.5233 30.7188C27.6919 30.6968 27.7637 30.7318 27.9634 30.6787Z" fill="url(#paint7_linear_185_2127)"/>
<path d="M12.212 28.0139C12.4679 27.6892 12.7517 27.2346 13.1969 27.4707C13.3176 27.51 13.3608 27.5219 13.4892 27.5418C13.5734 27.638 13.5563 27.7358 13.5527 27.881C13.5734 28.4631 13.6561 29.3302 13.5798 29.8681C13.5759 29.9961 13.5552 30.1445 13.6199 30.2502C13.9075 30.4124 13.9989 30.4155 14.0591 30.7033C14.0739 30.7739 14.5036 30.7779 14.6357 30.7794C14.4976 30.8193 14.3675 30.8501 14.2411 30.9189L14.2251 30.9888C14.2766 31.0318 14.3173 31.0664 14.3726 31.1043L14.7493 31.1685C14.5872 31.218 14.3693 31.2941 14.2056 31.3083C14.1232 31.2134 14.0209 31.07 13.9086 31.0362C13.8431 31.0943 13.8641 31.0804 13.8496 31.1949L13.8716 31.2202C13.9943 31.363 13.9502 31.379 14.1684 31.4679C14.2007 31.481 14.2043 31.6109 14.2938 31.6227C14.5943 31.6622 14.9957 31.6078 15.2831 31.647C14.8991 31.6997 14.0738 31.6781 13.6731 31.672L13.5109 31.3617C13.2849 31.2208 13.1831 31.0851 13.0336 30.8767C12.7406 30.7808 12.5871 30.6836 12.6472 30.3539C12.6638 30.1391 12.6706 29.6302 12.5447 29.4592C12.0961 29.2023 12.1515 28.4537 12.212 28.0139Z" fill="#969293"/>
<path d="M13.1969 27.4707C13.3176 27.51 13.3608 27.522 13.4892 27.5418C13.5734 27.638 13.5563 27.7359 13.5527 27.8811C13.5735 28.4631 13.6561 29.3303 13.5798 29.8681C13.576 29.9961 13.5552 30.1445 13.6199 30.2502C13.9075 30.4125 13.9989 30.4155 14.0591 30.7034C14.0739 30.7739 14.5036 30.778 14.6357 30.7794C14.4976 30.8193 14.3675 30.8501 14.2411 30.9189L14.2251 30.9889C14.2766 31.0319 14.3173 31.0664 14.3726 31.1044C14.1295 31.0932 13.6917 30.8244 13.5542 30.6437C13.0064 29.9238 13.1481 28.2786 13.1969 27.4707Z" fill="#262627"/>
<path d="M13.5797 29.8679C13.4373 29.747 13.388 29.7094 13.2826 29.5577C13.224 29.2859 13.412 28.112 13.5526 27.8809C13.5734 28.4629 13.656 29.3301 13.5797 29.8679Z" fill="#020203"/>
<path d="M12.5447 29.4598C12.581 29.0913 12.4394 27.9725 12.8758 27.9619C12.9975 28.0602 13.0515 28.2706 13.0562 28.4062C13.0685 28.7637 13.1137 30.1177 12.9917 30.3756C12.8746 30.4306 12.7878 30.3904 12.6472 30.3544C12.6637 30.1396 12.6705 29.6307 12.5447 29.4598Z" fill="#DDDCDF"/>
<path d="M13.0336 30.8773C13.2488 30.7585 13.4944 30.6761 13.6989 30.8589C13.7856 31.0822 13.6841 31.2165 13.5109 31.3622C13.2848 31.2213 13.1831 31.0857 13.0336 30.8773Z" fill="#C2C0C0"/>
<path d="M28.4759 27.535C28.8798 27.5034 29.3571 27.3852 29.5583 27.8145C29.6433 27.8941 29.7267 27.9687 29.8019 28.0579C29.918 29.3349 29.7718 29.0008 29.5822 30.0691C29.5061 30.2462 29.477 30.3252 29.3626 30.4779C29.2743 30.5849 29.1875 30.693 29.1021 30.8023C28.8713 31.0729 28.7619 31.2343 28.4409 31.3945C28.3576 31.3541 28.2752 31.3118 28.1936 31.2678C28.0329 31.1801 27.9833 31.1368 27.9319 30.963C28.0921 30.845 28.1346 30.8084 28.3212 30.7473C28.1561 30.7372 28.1218 30.7289 27.9634 30.6794C27.971 30.3649 28.0494 30.3472 28.2772 30.1573C28.3297 29.1822 28.423 29.1418 28.3477 28.0631C28.406 27.8805 28.4372 27.7214 28.4759 27.535Z" fill="#C2C0C0"/>
<path d="M28.3477 28.0622C28.5448 28.0959 28.6612 28.1054 28.8282 27.9922C28.829 28.4208 28.8987 29.7853 28.6592 30.0576C28.5809 30.0967 28.524 30.1243 28.4422 30.1553C28.4017 30.3591 28.4587 30.4454 28.4104 30.6325L28.3212 30.7464C28.1561 30.7364 28.1218 30.728 27.9634 30.6786C27.971 30.3641 28.0494 30.3464 28.2772 30.1565C28.3297 29.1813 28.423 29.141 28.3477 28.0622Z" fill="#4A494B"/>
<path d="M27.9634 30.6793C27.971 30.3648 28.0494 30.3471 28.2772 30.1572C28.3991 30.3227 28.3949 30.4259 28.4104 30.6332L28.3212 30.7472C28.1561 30.7371 28.1218 30.7288 27.9634 30.6793Z" fill="#020203"/>
<path d="M29.5582 27.8145C29.6432 27.8941 29.7267 27.9687 29.8018 28.0578C29.918 29.3349 29.7717 29.0008 29.5821 30.069C29.5815 29.4889 29.3834 29.4205 29.4247 28.8166C29.566 28.6802 29.3552 28.1208 29.5582 27.8145Z" fill="#020203"/>
<path d="M28.4759 27.535C28.8798 27.5034 29.3571 27.3852 29.5582 27.8145C29.3553 28.1208 29.5661 28.6803 29.4248 28.8166C29.4212 28.524 29.4147 28.2314 29.4055 27.9389C29.2014 27.9116 28.9656 27.8309 28.8282 27.993C28.6611 28.1062 28.5448 28.0968 28.3477 28.0631C28.406 27.8805 28.4372 27.7214 28.4759 27.535Z" fill="#262627"/>
<path d="M29.1021 30.8019C29.0488 30.6392 28.9619 30.3454 29.1118 30.2227C29.2634 30.2916 29.2499 30.3232 29.3626 30.4775C29.2743 30.5844 29.1874 30.6926 29.1021 30.8019Z" fill="#6E6E6E"/>
<path d="M17.0007 11.7083L17.1473 11.6533C17.283 11.8752 17.323 12.1128 17.4286 12.2566L17.3744 12.4147L17.3933 12.4496C17.6426 12.7024 17.6781 12.7503 17.8815 13.0405C17.8602 13.1996 17.8426 13.2632 17.7109 13.3782C17.4934 13.1647 17.4406 13.0663 17.1363 13.1922C17.0501 13.119 16.9377 13.1201 16.8241 13.108C16.7137 13.0903 16.6054 13.0618 16.5006 13.023C16.3284 12.9605 16.3102 12.903 16.245 12.7587C15.9759 12.714 15.8472 12.7029 15.5743 12.697C15.2262 12.7432 14.9993 12.7377 14.7341 12.4787C14.5363 12.2855 14.3339 11.9636 14.5611 11.7177C14.6915 11.6881 14.7934 11.6975 14.9264 11.7015L15.1037 11.708L15.2964 11.7115C15.5741 11.6809 15.9433 11.6745 16.2208 11.7064C16.4664 11.7044 16.7599 11.6952 17.0007 11.7083Z" fill="#C2C0C0"/>
<path d="M15.1036 11.708L15.2963 11.7115C15.4513 11.7142 15.6147 11.7047 15.755 11.7671C15.7777 11.7924 15.801 11.817 15.825 11.841L15.8531 11.8691C16.0476 12.067 16.9199 12.1642 16.8307 12.4791C16.7167 12.5486 16.5802 12.5679 16.4502 12.542C15.9063 12.4335 15.0342 12.4746 15.1036 11.708Z" fill="#EBE9EA"/>
<path d="M15.5743 12.6974C15.2262 12.7436 14.9993 12.7381 14.7341 12.4791C14.5363 12.2859 14.3339 11.964 14.5611 11.7181C14.6915 11.6885 14.7934 11.6979 14.9264 11.7019C14.9227 12.3682 15.3203 12.2234 15.5743 12.6974Z" fill="#7C7B7E"/>
<path d="M17.0007 11.7083L17.1473 11.6533C17.2831 11.8752 17.323 12.1128 17.4286 12.2566L17.3744 12.4147L17.3933 12.4496C17.2501 12.5077 17.1335 12.5773 17.0004 12.4814L16.9786 12.275C16.6732 11.9594 16.4382 12.2005 16.2208 11.7064C16.4665 11.7044 16.7599 11.6952 17.0007 11.7083Z" fill="#7C7B7E"/>
<path d="M17.0007 11.7083L17.1473 11.6533C17.2831 11.8752 17.323 12.1128 17.4287 12.2566L17.3744 12.4147C17.284 12.1259 16.985 12.1624 17.0007 11.7083Z" fill="#6E6E6E"/>
<path d="M16.2449 12.7588C16.4226 12.7248 16.5351 12.6737 16.7059 12.7094C16.8324 12.8417 16.8203 12.9192 16.824 13.108C16.7136 13.0904 16.6053 13.0619 16.5005 13.023C16.3283 12.9605 16.3101 12.903 16.2449 12.7588Z" fill="#4A494B"/>
<path d="M21.3244 5.67383C21.4335 5.75215 21.402 5.71105 21.4533 5.82648C21.4556 5.99797 21.4684 6.06535 21.5023 6.23477C21.573 6.40945 21.6716 6.63465 21.7231 6.81117C21.6714 6.96363 21.587 7.18766 21.5462 7.33668L21.5896 7.53547C21.4672 7.80227 21.3087 7.91645 21.0829 8.09535L21.0037 8.34805C20.7839 8.44312 20.7431 8.46387 20.5299 8.35578L20.5374 8.14484C20.4499 7.85102 20.5102 6.89641 20.4973 6.53281C20.4859 6.21012 21.0451 5.86855 21.3244 5.67383Z" fill="#A9A8AA"/>
<path d="M21.5462 7.33681C21.508 7.397 21.503 7.38396 21.4253 7.42024C20.9119 7.35845 20.5427 5.95599 21.5023 6.23489C21.5729 6.40958 21.6716 6.63478 21.7231 6.8113C21.6713 6.96376 21.5869 7.18778 21.5462 7.33681Z" fill="#EBE9EA"/>
<path d="M20.5374 8.1451C20.5438 8.0683 20.5477 8.06564 20.5742 7.99678C20.7764 7.90556 20.9658 7.88072 21.0829 8.0956L21.0037 8.3483C20.7839 8.44338 20.7431 8.46412 20.5299 8.35603L20.5374 8.1451Z" fill="#EBE9EA"/>
<path d="M24.6183 13.0361C24.6833 13.1763 24.7744 13.3299 24.7548 13.4787C24.8402 13.2613 24.9557 13.1842 25.1415 13.0481L25.3108 13.2552C25.2219 13.4786 24.5862 13.9539 24.3782 14.0441C24.3409 14.0602 24.3035 14.0757 24.2659 14.0908C23.851 14.2209 22.9824 15.047 22.7577 15.4334C22.7432 15.4309 22.7287 15.4282 22.7142 15.4251C22.5784 15.3953 22.5116 15.3736 22.4369 15.2604C22.3712 15.0083 22.7594 14.655 22.8803 14.2921L22.8895 14.2639C23.0215 13.972 23.8914 13.3636 24.1854 13.2393C24.3345 13.1763 24.4706 13.1288 24.6183 13.0361Z" fill="#EBE9EA"/>
<path d="M25.1415 13.0479L25.3108 13.255C25.2219 13.4784 24.5862 13.9537 24.3781 14.0439C24.3409 14.0599 24.3035 14.0755 24.2659 14.0906C24.2602 13.4075 24.3514 13.7657 24.7548 13.4785C24.8402 13.2611 24.9557 13.184 25.1415 13.0479Z" fill="#969293"/>
<path d="M18.2048 11.0344C18.5454 10.7777 19.1429 10.1368 19.5123 9.79883C19.5856 9.99059 19.5871 10.0252 19.58 10.2321C19.6701 9.81578 19.7573 9.82617 20.1531 9.87633C20.0067 10.2687 18.6242 11.6774 18.2051 11.7899L17.8837 11.883C17.7666 12.089 17.6406 12.1536 17.4286 12.2562C17.323 12.1124 17.283 11.8749 17.1472 11.653C17.3407 11.5553 17.167 11.4124 17.5912 11.2726C17.7425 11.2617 18.0709 11.1084 18.2048 11.0344Z" fill="#DDDCDF"/>
<path d="M19.5799 10.2326C19.6701 9.81631 19.7572 9.8267 20.1531 9.87685C20.0067 10.2692 18.6242 11.6779 18.2051 11.7904C18.1759 11.0074 18.3565 11.4846 18.7533 11.0964L18.7815 11.0685C19.0156 10.9526 19.109 10.4998 19.299 10.346C19.419 10.3185 19.4783 10.3065 19.5799 10.2326Z" fill="#A9A8AA"/>
<path d="M17.1472 11.6538C17.3407 11.5562 17.167 11.4132 17.5912 11.2734C17.6666 11.5331 17.689 11.6909 17.8837 11.8838C17.7666 12.0898 17.6406 12.1545 17.4286 12.2571C17.323 12.1133 17.283 11.8757 17.1472 11.6538Z" fill="#4A494B"/>
<path d="M20.5299 8.35637C20.7431 8.46445 20.7839 8.44371 21.0037 8.34863C20.8249 8.5825 20.4012 8.47805 20.6165 8.85242L20.6717 9.02016C20.4048 9.35527 20.3233 9.47371 20.1531 9.87711C19.7573 9.82695 19.6701 9.81656 19.5799 10.2329C19.5871 10.0259 19.5856 9.99137 19.5123 9.79961C19.8013 9.41125 19.9988 8.41695 20.5299 8.35637Z" fill="#C2C0C0"/>
<path d="M21.5896 7.53613L21.8372 7.76594C21.9057 8.01258 21.9523 8.1898 21.997 8.44242C21.6685 8.25105 21.6255 8.40238 21.3981 8.56723L21.3542 8.58191L21.2294 8.64438C21.1136 8.85496 20.8861 8.905 20.6718 9.02023L20.6165 8.8525C20.4012 8.47813 20.825 8.58258 21.0037 8.34871L21.0829 8.09602C21.3087 7.91711 21.4672 7.80293 21.5896 7.53613Z" fill="#969293"/>
<path d="M20.6165 8.85162C20.6224 8.70771 20.6339 8.66982 20.7176 8.57705C20.8721 8.52545 21.0658 8.60037 21.2294 8.64349C21.1136 8.85408 20.8861 8.90412 20.6717 9.01935L20.6165 8.85162Z" fill="#7C7B7E"/>
<path d="M19.2677 14.8901C19.3593 14.8675 19.3822 14.8454 19.4498 14.7803C19.5176 14.804 19.5486 14.8118 19.6104 14.8518C19.8534 14.9565 19.9421 15.0855 20.1218 15.2813C20.3385 15.4505 20.9701 16.0492 21.0954 16.2673C20.7395 16.2423 20.6991 16.0747 20.5341 15.798C20.2654 15.7909 20.1483 15.7946 19.9929 16.0396C19.7987 15.91 19.5948 15.6957 19.4242 15.53C19.4664 15.4654 19.547 15.2739 19.5822 15.1952L19.5117 15.0664C19.3963 15.0096 19.3491 14.9945 19.2677 14.8901Z" fill="#A9A8AA"/>
<path d="M19.2677 14.8901C19.3593 14.8675 19.3822 14.8454 19.4498 14.7803C19.5176 14.804 19.5486 14.8118 19.6104 14.8518C19.8534 14.9565 19.9421 15.0855 20.1218 15.2813C20.0463 15.3799 19.9543 15.4863 19.8743 15.5832C19.7739 15.4795 19.6673 15.3165 19.5822 15.1952L19.5117 15.0664C19.3963 15.0096 19.3491 14.9945 19.2677 14.8901Z" fill="#DDDCDF"/>
<path d="M18.1628 13.792C18.2496 13.8774 18.5911 14.2255 18.6785 14.2631L18.6912 14.2745C18.9901 14.539 19.1308 14.3089 19.296 14.5866C19.2255 14.6109 19.1589 14.5823 19.0849 14.5621C19.1196 14.6775 19.2011 14.7871 19.2678 14.8905C19.3491 14.9949 19.3964 15.0101 19.5118 15.0668L19.5823 15.1956C19.5471 15.2743 19.4665 15.4659 19.4243 15.5304C18.9791 15.0681 18.5191 14.6448 18.0768 14.1701L18.1628 13.792Z" fill="url(#paint8_linear_185_2127)"/>
<path d="M21.398 8.56667C21.6255 8.40183 21.6685 8.2505 21.997 8.44187C22.0059 8.53847 22.0111 8.68448 22.0451 8.77011C22.1871 8.8103 22.2759 8.9403 22.349 9.06507C21.9309 9.17882 22.0729 9.23726 21.85 9.53765C21.4734 9.32823 21.3122 9.02128 21.3541 8.58136L21.398 8.56667Z" fill="#C2C0C0"/>
<path d="M21.3981 8.56667C21.6255 8.40183 21.6686 8.2505 21.9971 8.44187C22.0059 8.53847 22.0111 8.68448 22.0451 8.77011C21.907 8.87792 21.6215 8.88347 21.4571 8.81089C21.3754 8.69917 21.3999 8.72831 21.3981 8.56667Z" fill="#EBE9EA"/>
<path d="M17.1362 13.1924C17.4405 13.0665 17.4933 13.1649 17.7108 13.3784C17.7509 13.4169 17.841 13.5093 17.8829 13.5336C17.9858 13.6177 18.08 13.6873 18.1627 13.7918L18.0767 14.1699C17.8726 13.9909 17.2128 13.396 17.1362 13.1924Z" fill="#6E6E6E"/>
<path d="M18.1743 13.3838C18.4362 13.5959 18.5777 13.8652 18.8262 13.9542L18.8081 14.0987L18.6772 14.1652L18.6785 14.2627C18.5911 14.2251 18.2495 13.877 18.1628 13.7916C18.08 13.6871 17.9859 13.6175 17.8829 13.5334C18.0771 13.5206 18.0714 13.5354 18.1743 13.3838Z" fill="#DDDCDF" fill-opacity="0.941176"/>
<path d="M18.8262 13.9541C19.0913 14.3019 19.3936 14.5302 19.6105 14.8518C19.5487 14.8117 19.5177 14.8039 19.4499 14.7802C19.3823 14.8454 19.3594 14.8674 19.2678 14.89C19.2012 14.7866 19.1197 14.6771 19.0849 14.5617C19.1589 14.5819 19.2255 14.6105 19.296 14.5861C19.1308 14.3085 18.9901 14.5385 18.6912 14.274L18.6785 14.2626L18.6772 14.1651L18.8081 14.0986L18.8262 13.9541Z" fill="#EBE9EA" fill-opacity="0.529412"/>
<path d="M17.8815 13.041L18.1743 13.3842C18.0714 13.5358 18.0771 13.5211 17.8829 13.5339C17.841 13.5096 17.7509 13.4171 17.7108 13.3787C17.8425 13.2637 17.8602 13.2002 17.8815 13.041Z" fill="#DDDCDF" fill-opacity="0.984314"/>
</g>
<path d="M57.7614 7.72727V15H56.8807V7.72727H57.7614ZM66.2942 7.72727V15H65.4419L61.4789 9.28977H61.4078V15H60.5272V7.72727H61.3794L65.3567 13.4517H65.4277V7.72727H66.2942ZM71.3008 15H69.0565V7.72727H71.4002C72.1057 7.72727 72.7094 7.87287 73.2113 8.16406C73.7132 8.45289 74.0979 8.86837 74.3654 9.41051C74.6329 9.95028 74.7667 10.5966 74.7667 11.3494C74.7667 12.107 74.6317 12.7592 74.3619 13.3061C74.092 13.8506 73.699 14.2696 73.1829 14.5632C72.6668 14.8544 72.0394 15 71.3008 15ZM69.9371 14.2188H71.244C71.8453 14.2188 72.3436 14.1027 72.739 13.8707C73.1344 13.6387 73.4291 13.3085 73.6232 12.88C73.8174 12.4515 73.9144 11.9413 73.9144 11.3494C73.9144 10.7623 73.8185 10.2569 73.6268 9.8331C73.435 9.40696 73.1486 9.08026 72.7674 8.85298C72.3862 8.62334 71.9116 8.50852 71.3434 8.50852H69.9371V14.2188ZM78.1246 7.72727V15H77.244V7.72727H78.1246ZM81.1887 7.72727L83.3478 13.8494H83.4331L85.5922 7.72727H86.5154L83.845 15H82.9359L80.2654 7.72727H81.1887ZM89.5289 7.72727V15H88.6483V7.72727H89.5289ZM94.5391 15H92.2947V7.72727H94.6385C95.344 7.72727 95.9477 7.87287 96.4496 8.16406C96.9515 8.45289 97.3362 8.86837 97.6037 9.41051C97.8712 9.95028 98.005 10.5966 98.005 11.3494C98.005 12.107 97.87 12.7592 97.6001 13.3061C97.3303 13.8506 96.9373 14.2696 96.4212 14.5632C95.9051 14.8544 95.2777 15 94.5391 15ZM93.1754 14.2188H94.4822C95.0836 14.2188 95.5819 14.1027 95.9773 13.8707C96.3726 13.6387 96.6674 13.3085 96.8615 12.88C97.0556 12.4515 97.1527 11.9413 97.1527 11.3494C97.1527 10.7623 97.0568 10.2569 96.8651 9.8331C96.6733 9.40696 96.3868 9.08026 96.0057 8.85298C95.6245 8.62334 95.1499 8.50852 94.5817 8.50852H93.1754V14.2188ZM105.255 7.72727H106.136V12.5426C106.136 13.0398 106.018 13.4837 105.784 13.8743C105.552 14.2625 105.224 14.5691 104.8 14.794C104.377 15.0166 103.879 15.1278 103.309 15.1278C102.738 15.1278 102.241 15.0166 101.817 14.794C101.394 14.5691 101.065 14.2625 100.83 13.8743C100.598 13.4837 100.482 13.0398 100.482 12.5426V7.72727H101.363V12.4716C101.363 12.8267 101.441 13.1428 101.597 13.4197C101.754 13.6944 101.976 13.911 102.265 14.0696C102.556 14.2259 102.904 14.304 103.309 14.304C103.714 14.304 104.062 14.2259 104.353 14.0696C104.644 13.911 104.867 13.6944 105.021 13.4197C105.177 13.1428 105.255 12.8267 105.255 12.4716V7.72727ZM109.193 15H108.269L110.94 7.72727H111.849L114.519 15H113.596L111.423 8.87784H111.366L109.193 15ZM109.534 12.1591H113.255V12.9403H109.534V12.1591ZM111.011 6.98864L111.877 5.34091H112.857L111.749 6.98864H111.011ZM116.652 15V7.72727H117.533V14.2188H120.914V15H116.652ZM129.044 7.72727V15H128.192L124.229 9.28977H124.158V15H123.277V7.72727H124.129L128.107 13.4517H128.178V7.72727H129.044ZM131.181 7.72727H132.19L134.207 11.1222H134.292L136.309 7.72727H137.318L134.69 12.0028V15H133.809V12.0028L131.181 7.72727ZM145.514 15H143.269V7.72727H145.613C146.319 7.72727 146.922 7.87287 147.424 8.16406C147.926 8.45289 148.311 8.86837 148.578 9.41051C148.846 9.95028 148.98 10.5966 148.98 11.3494C148.98 12.107 148.845 12.7592 148.575 13.3061C148.305 13.8506 147.912 14.2696 147.396 14.5632C146.88 14.8544 146.252 15 145.514 15ZM144.15 14.2188H145.457C146.058 14.2188 146.557 14.1027 146.952 13.8707C147.347 13.6387 147.642 13.3085 147.836 12.88C148.03 12.4515 148.127 11.9413 148.127 11.3494C148.127 10.7623 148.031 10.2569 147.84 9.8331C147.648 9.40696 147.361 9.08026 146.98 8.85298C146.599 8.62334 146.124 8.50852 145.556 8.50852H144.15V14.2188ZM152.338 7.72727V15H151.457V7.72727H152.338ZM154.862 15V14.3608L158.782 8.50852H154.819V7.72727H159.833V8.36648L155.913 14.2188H159.876V15H154.862ZM162.652 15H161.728L164.399 7.72727H165.308L167.978 15H167.055L164.882 8.87784H164.825L162.652 15ZM162.993 12.1591H166.714V12.9403H162.993V12.1591ZM172.895 7.72727H173.776V12.9261C173.776 13.3902 173.691 13.7843 173.52 14.1087C173.35 14.433 173.109 14.6792 172.799 14.8473C172.489 15.0154 172.123 15.0994 171.702 15.0994C171.304 15.0994 170.95 15.0272 170.64 14.8828C170.33 14.736 170.086 14.5277 169.909 14.2578C169.731 13.9879 169.642 13.6671 169.642 13.2955H170.509C170.509 13.5014 170.56 13.6813 170.662 13.8352C170.766 13.9867 170.908 14.1051 171.088 14.1903C171.268 14.2756 171.472 14.3182 171.702 14.3182C171.955 14.3182 172.171 14.2649 172.348 14.1584C172.526 14.0518 172.661 13.8956 172.753 13.6896C172.848 13.4813 172.895 13.2268 172.895 12.9261V7.72727ZM182.308 7.72727V15H181.456L177.493 9.28977H177.422V15H176.541V7.72727H177.393L181.37 13.4517H181.441V7.72727H182.308Z" fill="#D1D5DB"/>
<path d="M62.6477 26.7273V34H61.7955L57.8324 28.2898H57.7614V34H56.8807V26.7273H57.733L61.7102 32.4517H61.7812V26.7273H62.6477ZM65.9015 34.1278C65.5558 34.1278 65.2421 34.0627 64.9604 33.9325C64.6787 33.8 64.455 33.6094 64.2892 33.3608C64.1235 33.1098 64.0407 32.8068 64.0407 32.4517C64.0407 32.1392 64.1022 31.8859 64.2253 31.6918C64.3484 31.4953 64.513 31.3414 64.7189 31.2301C64.9249 31.1188 65.1522 31.036 65.4007 30.9815C65.6517 30.9247 65.9038 30.8797 66.1571 30.8466C66.4886 30.804 66.7573 30.772 66.9632 30.7507C67.1716 30.727 67.3231 30.688 67.4178 30.6335C67.5149 30.5791 67.5634 30.4844 67.5634 30.3494V30.321C67.5634 29.9706 67.4675 29.6984 67.2757 29.5043C67.0864 29.3101 66.7987 29.2131 66.4128 29.2131C66.0127 29.2131 65.699 29.3007 65.4718 29.4759C65.2445 29.651 65.0847 29.8381 64.9924 30.0369L64.1969 29.7528C64.339 29.4214 64.5283 29.1634 64.7651 28.9787C65.0042 28.7917 65.2646 28.6615 65.5463 28.5881C65.8304 28.5123 66.1098 28.4744 66.3844 28.4744C66.5596 28.4744 66.7608 28.4957 66.9881 28.5384C67.2177 28.5786 67.4391 28.6626 67.6522 28.7905C67.8676 28.9183 68.0463 29.1113 68.1884 29.3693C68.3304 29.6274 68.4015 29.973 68.4015 30.4062V34H67.5634V33.2614H67.5208C67.464 33.3797 67.3693 33.5064 67.2367 33.6413C67.1041 33.7763 66.9277 33.8911 66.7076 33.9858C66.4874 34.0805 66.2187 34.1278 65.9015 34.1278ZM66.0293 33.375C66.3607 33.375 66.6401 33.3099 66.8674 33.1797C67.097 33.0495 67.2698 32.8814 67.3858 32.6754C67.5042 32.4695 67.5634 32.2528 67.5634 32.0256V31.2585C67.5279 31.3011 67.4498 31.3402 67.329 31.3757C67.2106 31.4089 67.0733 31.4384 66.9171 31.4645C66.7632 31.4882 66.6129 31.5095 66.4661 31.5284C66.3217 31.545 66.2045 31.5592 66.1145 31.571C65.8967 31.5994 65.6931 31.6456 65.5037 31.7095C65.3167 31.7711 65.1652 31.8646 65.0492 31.9901C64.9355 32.1132 64.8787 32.2812 64.8787 32.4943C64.8787 32.7855 64.9864 33.0057 65.2019 33.1548C65.4197 33.3016 65.6955 33.375 66.0293 33.375ZM74.196 28.5455L72.179 34H71.3267L69.3097 28.5455H70.2188L71.7244 32.892H71.7812L73.2869 28.5455H74.196ZM75.3022 34V28.5455H76.1119V29.3693H76.1687C76.2681 29.0994 76.448 28.8804 76.7085 28.7124C76.9689 28.5443 77.2624 28.4602 77.5891 28.4602C77.6507 28.4602 77.7276 28.4614 77.82 28.4638C77.9123 28.4661 77.9821 28.4697 78.0295 28.4744V29.3267C78.0011 29.3196 77.936 29.3089 77.8342 29.2947C77.7347 29.2782 77.6294 29.2699 77.5181 29.2699C77.253 29.2699 77.0162 29.3255 76.8079 29.4368C76.6019 29.5457 76.4386 29.6972 76.3178 29.8913C76.1995 30.0831 76.1403 30.3021 76.1403 30.5483V34H75.3022ZM79.861 30.7188V34H79.0229V26.7273H79.861V29.3977H79.932C80.0598 29.116 80.2516 28.8923 80.5073 28.7266C80.7653 28.5585 81.1086 28.4744 81.5371 28.4744C81.9088 28.4744 82.2343 28.549 82.5137 28.6982C82.793 28.8449 83.0096 29.071 83.1635 29.3764C83.3198 29.6795 83.3979 30.0653 83.3979 30.5341V34H82.5598V30.5909C82.5598 30.1577 82.4474 29.8227 82.2225 29.5859C81.9999 29.3468 81.691 29.2273 81.2956 29.2273C81.021 29.2273 80.7748 29.2853 80.557 29.4013C80.3416 29.5173 80.1711 29.6866 80.0456 29.9091C79.9225 30.1316 79.861 30.4015 79.861 30.7188ZM85.7692 30.7188V34H84.9311V28.5455H85.7408V29.3977H85.8118C85.9396 29.1207 86.1338 28.8982 86.3942 28.7301C86.6546 28.5597 86.9908 28.4744 87.4027 28.4744C87.772 28.4744 88.0952 28.5502 88.3722 28.7017C88.6491 28.8509 88.8646 29.0781 89.0185 29.3835C89.1723 29.6866 89.2493 30.0701 89.2493 30.5341V34H88.4112V30.5909C88.4112 30.1624 88.3 29.8286 88.0774 29.5895C87.8549 29.348 87.5495 29.2273 87.1612 29.2273C86.8937 29.2273 86.6546 29.2853 86.4439 29.4013C86.2356 29.5173 86.071 29.6866 85.9503 29.9091C85.8295 30.1316 85.7692 30.4015 85.7692 30.7188ZM94.2182 31.7699V28.5455H95.0563V34H94.2182V33.0767H94.1614C94.0336 33.3537 93.8347 33.5893 93.5648 33.7834C93.2949 33.9751 92.954 34.071 92.5421 34.071C92.2012 34.071 91.8981 33.9964 91.633 33.8473C91.3678 33.6958 91.1595 33.4685 91.008 33.1655C90.8565 32.8601 90.7807 32.4754 90.7807 32.0114V28.5455H91.6188V31.9545C91.6188 32.3523 91.7301 32.6695 91.9526 32.9062C92.1775 33.143 92.464 33.2614 92.812 33.2614C93.0203 33.2614 93.2322 33.2081 93.4476 33.1016C93.6654 32.995 93.8477 32.8317 93.9945 32.6115C94.1436 32.3913 94.2182 32.1108 94.2182 31.7699ZM98.9634 28.5455V29.2557H96.1367V28.5455H98.9634ZM96.9606 27.2386H97.7987V32.4375C97.7987 32.6742 97.833 32.8518 97.9016 32.9702C97.9727 33.0862 98.0626 33.1643 98.1715 33.2045C98.2828 33.2424 98.4 33.2614 98.5231 33.2614C98.6154 33.2614 98.6912 33.2566 98.7504 33.2472C98.8095 33.2353 98.8569 33.2259 98.8924 33.2188L99.0629 33.9716C99.006 33.9929 98.9267 34.0142 98.8249 34.0355C98.7231 34.0592 98.5941 34.071 98.4379 34.071C98.2011 34.071 97.9691 34.0201 97.7418 33.9183C97.5169 33.8165 97.3299 33.6615 97.1808 33.4531C97.034 33.2448 96.9606 32.982 96.9606 32.6648V27.2386ZM102.452 34.1136C101.927 34.1136 101.473 33.9976 101.092 33.7656C100.714 33.5312 100.421 33.2045 100.215 32.7855C100.012 32.3641 99.9098 31.8741 99.9098 31.3153C99.9098 30.7566 100.012 30.2642 100.215 29.8381C100.421 29.4096 100.708 29.0758 101.075 28.8366C101.444 28.5952 101.875 28.4744 102.367 28.4744C102.651 28.4744 102.932 28.5218 103.209 28.6165C103.486 28.7112 103.738 28.8651 103.965 29.0781C104.192 29.2888 104.374 29.5682 104.509 29.9162C104.643 30.2642 104.711 30.6927 104.711 31.2017V31.5568H100.506V30.8324H103.859C103.859 30.5246 103.797 30.25 103.674 30.0085C103.553 29.767 103.38 29.5765 103.156 29.4368C102.933 29.2971 102.67 29.2273 102.367 29.2273C102.033 29.2273 101.745 29.3101 101.501 29.4759C101.259 29.6392 101.073 29.8523 100.943 30.1151C100.813 30.3778 100.748 30.6596 100.748 30.9602V31.4432C100.748 31.8551 100.819 32.2043 100.961 32.4908C101.105 32.7749 101.305 32.9915 101.561 33.1406C101.817 33.2874 102.114 33.3608 102.452 33.3608C102.673 33.3608 102.871 33.33 103.049 33.2685C103.229 33.2045 103.384 33.1098 103.514 32.9844C103.644 32.8565 103.745 32.6979 103.816 32.5085L104.626 32.7358C104.54 33.0104 104.397 33.2519 104.196 33.4602C103.995 33.6662 103.746 33.8272 103.45 33.9432C103.154 34.0568 102.822 34.1136 102.452 34.1136ZM101.941 27.8068L102.808 26.1591H103.788L102.68 27.8068H101.941ZM108.798 36.0455V28.5455H109.608V29.4119H109.707C109.769 29.3172 109.854 29.1965 109.963 29.0497C110.074 28.9006 110.233 28.768 110.439 28.652C110.647 28.5336 110.929 28.4744 111.284 28.4744C111.743 28.4744 112.148 28.5893 112.499 28.8189C112.849 29.0485 113.122 29.3741 113.319 29.7955C113.515 30.2169 113.614 30.714 113.614 31.2869C113.614 31.8646 113.515 32.3653 113.319 32.7891C113.122 33.2105 112.85 33.5372 112.502 33.7692C112.154 33.9988 111.753 34.1136 111.298 34.1136C110.948 34.1136 110.667 34.0556 110.457 33.9396C110.246 33.8213 110.084 33.6875 109.97 33.5384C109.857 33.3868 109.769 33.2614 109.707 33.1619H109.636V36.0455H108.798ZM109.622 31.2727C109.622 31.6847 109.683 32.0481 109.803 32.3629C109.924 32.6754 110.1 32.9205 110.332 33.098C110.564 33.2732 110.848 33.3608 111.185 33.3608C111.535 33.3608 111.827 33.2685 112.062 33.0838C112.299 32.8968 112.476 32.6458 112.594 32.331C112.715 32.0137 112.776 31.661 112.776 31.2727C112.776 30.8892 112.716 30.5436 112.598 30.2358C112.482 29.9257 112.306 29.6806 112.069 29.5007C111.835 29.3184 111.54 29.2273 111.185 29.2273C110.844 29.2273 110.557 29.3137 110.325 29.4865C110.093 29.657 109.918 29.8961 109.8 30.2038C109.681 30.5092 109.622 30.8655 109.622 31.2727ZM114.892 34V28.5455H115.702V29.3693H115.759C115.858 29.0994 116.038 28.8804 116.298 28.7124C116.559 28.5443 116.852 28.4602 117.179 28.4602C117.241 28.4602 117.317 28.4614 117.41 28.4638C117.502 28.4661 117.572 28.4697 117.619 28.4744V29.3267C117.591 29.3196 117.526 29.3089 117.424 29.2947C117.325 29.2782 117.219 29.2699 117.108 29.2699C116.843 29.2699 116.606 29.3255 116.398 29.4368C116.192 29.5457 116.028 29.6972 115.908 29.8913C115.789 30.0831 115.73 30.3021 115.73 30.5483V34H114.892ZM120.734 34.1136C120.208 34.1136 119.755 33.9976 119.374 33.7656C118.995 33.5312 118.702 33.2045 118.496 32.7855C118.293 32.3641 118.191 31.8741 118.191 31.3153C118.191 30.7566 118.293 30.2642 118.496 29.8381C118.702 29.4096 118.989 29.0758 119.356 28.8366C119.725 28.5952 120.156 28.4744 120.648 28.4744C120.933 28.4744 121.213 28.5218 121.49 28.6165C121.767 28.7112 122.019 28.8651 122.246 29.0781C122.474 29.2888 122.655 29.5682 122.79 29.9162C122.925 30.2642 122.992 30.6927 122.992 31.2017V31.5568H118.788V30.8324H122.14C122.14 30.5246 122.078 30.25 121.955 30.0085C121.835 29.767 121.662 29.5765 121.437 29.4368C121.214 29.2971 120.951 29.2273 120.648 29.2273C120.315 29.2273 120.026 29.3101 119.782 29.4759C119.54 29.6392 119.355 29.8523 119.224 30.1151C119.094 30.3778 119.029 30.6596 119.029 30.9602V31.4432C119.029 31.8551 119.1 32.2043 119.242 32.4908C119.387 32.7749 119.587 32.9915 119.842 33.1406C120.098 33.2874 120.395 33.3608 120.734 33.3608C120.954 33.3608 121.153 33.33 121.33 33.2685C121.51 33.2045 121.665 33.1098 121.795 32.9844C121.926 32.8565 122.026 32.6979 122.097 32.5085L122.907 32.7358C122.822 33.0104 122.679 33.2519 122.477 33.4602C122.276 33.6662 122.027 33.8272 121.732 33.9432C121.436 34.0568 121.103 34.1136 120.734 34.1136ZM128.131 29.767L127.378 29.9801C127.33 29.8546 127.261 29.7327 127.168 29.6143C127.078 29.4936 126.955 29.3942 126.799 29.3161C126.643 29.2379 126.443 29.1989 126.199 29.1989C125.865 29.1989 125.587 29.2758 125.364 29.4297C125.144 29.5812 125.034 29.7741 125.034 30.0085C125.034 30.2169 125.11 30.3814 125.261 30.5021C125.413 30.6229 125.65 30.7235 125.972 30.804L126.781 31.0028C127.269 31.1212 127.632 31.3023 127.871 31.5462C128.111 31.7876 128.23 32.099 128.23 32.4801C128.23 32.7926 128.14 33.072 127.96 33.3182C127.783 33.5644 127.534 33.7585 127.214 33.9006C126.895 34.0426 126.523 34.1136 126.099 34.1136C125.543 34.1136 125.083 33.9929 124.718 33.7514C124.353 33.5099 124.123 33.1572 124.026 32.6932L124.821 32.4943C124.897 32.7879 125.04 33.008 125.251 33.1548C125.464 33.3016 125.742 33.375 126.085 33.375C126.476 33.375 126.786 33.2921 127.016 33.1264C127.248 32.9583 127.364 32.7571 127.364 32.5227C127.364 32.3333 127.297 32.1747 127.165 32.0469C127.032 31.9167 126.829 31.8196 126.554 31.7557L125.645 31.5426C125.145 31.4242 124.778 31.2408 124.544 30.9922C124.312 30.7412 124.196 30.4276 124.196 30.0511C124.196 29.7434 124.282 29.4711 124.455 29.2344C124.63 28.9976 124.868 28.8118 125.169 28.6768C125.472 28.5419 125.815 28.4744 126.199 28.4744C126.739 28.4744 127.162 28.5928 127.47 28.8295C127.78 29.0663 128 29.3788 128.131 29.767ZM130.33 30.7188V34H129.492V28.5455H130.301V29.3977H130.372C130.5 29.1207 130.694 28.8982 130.955 28.7301C131.215 28.5597 131.551 28.4744 131.963 28.4744C132.333 28.4744 132.656 28.5502 132.933 28.7017C133.21 28.8509 133.425 29.0781 133.579 29.3835C133.733 29.6866 133.81 30.0701 133.81 30.5341V34H132.972V30.5909C132.972 30.1624 132.86 29.8286 132.638 29.5895C132.415 29.348 132.11 29.2273 131.722 29.2273C131.454 29.2273 131.215 29.2853 131.004 29.4013C130.796 29.5173 130.632 29.6866 130.511 29.9091C130.39 30.1316 130.33 30.4015 130.33 30.7188ZM137.628 34.1136C137.103 34.1136 136.649 33.9976 136.268 33.7656C135.889 33.5312 135.597 33.2045 135.391 32.7855C135.187 32.3641 135.086 31.8741 135.086 31.3153C135.086 30.7566 135.187 30.2642 135.391 29.8381C135.597 29.4096 135.883 29.0758 136.25 28.8366C136.62 28.5952 137.051 28.4744 137.543 28.4744C137.827 28.4744 138.108 28.5218 138.385 28.6165C138.662 28.7112 138.914 28.8651 139.141 29.0781C139.368 29.2888 139.549 29.5682 139.684 29.9162C139.819 30.2642 139.887 30.6927 139.887 31.2017V31.5568H135.682V30.8324H139.034C139.034 30.5246 138.973 30.25 138.85 30.0085C138.729 29.767 138.556 29.5765 138.331 29.4368C138.109 29.2971 137.846 29.2273 137.543 29.2273C137.209 29.2273 136.92 29.3101 136.676 29.4759C136.435 29.6392 136.249 29.8523 136.119 30.1151C135.989 30.3778 135.924 30.6596 135.924 30.9602V31.4432C135.924 31.8551 135.995 32.2043 136.137 32.4908C136.281 32.7749 136.481 32.9915 136.737 33.1406C136.993 33.2874 137.29 33.3608 137.628 33.3608C137.848 33.3608 138.047 33.33 138.225 33.2685C138.405 33.2045 138.56 33.1098 138.69 32.9844C138.82 32.8565 138.921 32.6979 138.992 32.5085L139.801 32.7358C139.716 33.0104 139.573 33.2519 139.372 33.4602C139.171 33.6662 138.922 33.8272 138.626 33.9432C138.33 34.0568 137.998 34.1136 137.628 34.1136ZM143.974 36.0455V28.5455H144.784V29.4119H144.883C144.945 29.3172 145.03 29.1965 145.139 29.0497C145.25 28.9006 145.409 28.768 145.615 28.652C145.823 28.5336 146.105 28.4744 146.46 28.4744C146.919 28.4744 147.324 28.5893 147.674 28.8189C148.025 29.0485 148.298 29.3741 148.495 29.7955C148.691 30.2169 148.789 30.714 148.789 31.2869C148.789 31.8646 148.691 32.3653 148.495 32.7891C148.298 33.2105 148.026 33.5372 147.678 33.7692C147.33 33.9988 146.929 34.1136 146.474 34.1136C146.124 34.1136 145.843 34.0556 145.632 33.9396C145.422 33.8213 145.26 33.6875 145.146 33.5384C145.032 33.3868 144.945 33.2614 144.883 33.1619H144.812V36.0455H143.974ZM144.798 31.2727C144.798 31.6847 144.858 32.0481 144.979 32.3629C145.1 32.6754 145.276 32.9205 145.508 33.098C145.74 33.2732 146.024 33.3608 146.36 33.3608C146.711 33.3608 147.003 33.2685 147.238 33.0838C147.474 32.8968 147.652 32.6458 147.77 32.331C147.891 32.0137 147.951 31.661 147.951 31.2727C147.951 30.8892 147.892 30.5436 147.774 30.2358C147.658 29.9257 147.481 29.6806 147.245 29.5007C147.01 29.3184 146.716 29.2273 146.36 29.2273C146.02 29.2273 145.733 29.3137 145.501 29.4865C145.269 29.657 145.094 29.8961 144.975 30.2038C144.857 30.5092 144.798 30.8655 144.798 31.2727ZM152.284 34.1136C151.791 34.1136 151.359 33.9964 150.988 33.7621C150.618 33.5277 150.329 33.1998 150.121 32.7784C149.915 32.357 149.812 31.8646 149.812 31.3011C149.812 30.733 149.915 30.237 150.121 29.8132C150.329 29.3894 150.618 29.0604 150.988 28.826C151.359 28.5916 151.791 28.4744 152.284 28.4744C152.776 28.4744 153.207 28.5916 153.576 28.826C153.948 29.0604 154.237 29.3894 154.443 29.8132C154.651 30.237 154.755 30.733 154.755 31.3011C154.755 31.8646 154.651 32.357 154.443 32.7784C154.237 33.1998 153.948 33.5277 153.576 33.7621C153.207 33.9964 152.776 34.1136 152.284 34.1136ZM152.284 33.3608C152.658 33.3608 152.966 33.2649 153.207 33.0732C153.449 32.8814 153.627 32.6293 153.743 32.3168C153.859 32.0043 153.917 31.6657 153.917 31.3011C153.917 30.9366 153.859 30.5968 153.743 30.282C153.627 29.9671 153.449 29.7126 153.207 29.5185C152.966 29.3243 152.658 29.2273 152.284 29.2273C151.91 29.2273 151.602 29.3243 151.36 29.5185C151.119 29.7126 150.94 29.9671 150.824 30.282C150.708 30.5968 150.65 30.9366 150.65 31.3011C150.65 31.6657 150.708 32.0043 150.824 32.3168C150.94 32.6293 151.119 32.8814 151.36 33.0732C151.602 33.2649 151.91 33.3608 152.284 33.3608ZM158.094 34.1136C157.64 34.1136 157.238 33.9988 156.89 33.7692C156.542 33.5372 156.27 33.2105 156.074 32.7891C155.877 32.3653 155.779 31.8646 155.779 31.2869C155.779 30.714 155.877 30.2169 156.074 29.7955C156.27 29.3741 156.544 29.0485 156.894 28.8189C157.244 28.5893 157.649 28.4744 158.108 28.4744C158.464 28.4744 158.744 28.5336 158.95 28.652C159.158 28.768 159.317 28.9006 159.426 29.0497C159.537 29.1965 159.624 29.3172 159.685 29.4119H159.756V26.7273H160.594V34H159.785V33.1619H159.685C159.624 33.2614 159.536 33.3868 159.422 33.5384C159.309 33.6875 159.147 33.8213 158.936 33.9396C158.725 34.0556 158.445 34.1136 158.094 34.1136ZM158.208 33.3608C158.544 33.3608 158.828 33.2732 159.06 33.098C159.292 32.9205 159.469 32.6754 159.589 32.3629C159.71 32.0481 159.77 31.6847 159.77 31.2727C159.77 30.8655 159.711 30.5092 159.593 30.2038C159.474 29.8961 159.299 29.657 159.067 29.4865C158.835 29.3137 158.549 29.2273 158.208 29.2273C157.853 29.2273 157.557 29.3184 157.32 29.5007C157.086 29.6806 156.909 29.9257 156.791 30.2358C156.675 30.5436 156.617 30.8892 156.617 31.2727C156.617 31.661 156.676 32.0137 156.795 32.331C156.915 32.6458 157.093 32.8968 157.327 33.0838C157.564 33.2685 157.858 33.3608 158.208 33.3608ZM163.084 26.7273V34H162.246V26.7273H163.084ZM163.78 28.2259V26.3864H164.639L164.39 28.2259H163.78ZM166.898 34.1278C166.552 34.1278 166.238 34.0627 165.956 33.9325C165.675 33.8 165.451 33.6094 165.285 33.3608C165.12 33.1098 165.037 32.8068 165.037 32.4517C165.037 32.1392 165.098 31.8859 165.221 31.6918C165.345 31.4953 165.509 31.3414 165.715 31.2301C165.921 31.1188 166.148 31.036 166.397 30.9815C166.648 30.9247 166.9 30.8797 167.153 30.8466C167.485 30.804 167.753 30.772 167.959 30.7507C168.168 30.727 168.319 30.688 168.414 30.6335C168.511 30.5791 168.559 30.4844 168.559 30.3494V30.321C168.559 29.9706 168.464 29.6984 168.272 29.5043C168.082 29.3101 167.795 29.2131 167.409 29.2131C167.009 29.2131 166.695 29.3007 166.468 29.4759C166.241 29.651 166.081 29.8381 165.988 30.0369L165.193 29.7528C165.335 29.4214 165.524 29.1634 165.761 28.9787C166 28.7917 166.261 28.6615 166.542 28.5881C166.827 28.5123 167.106 28.4744 167.381 28.4744C167.556 28.4744 167.757 28.4957 167.984 28.5384C168.214 28.5786 168.435 28.6626 168.648 28.7905C168.864 28.9183 169.042 29.1113 169.184 29.3693C169.327 29.6274 169.398 29.973 169.398 30.4062V34H168.559V33.2614H168.517C168.46 33.3797 168.365 33.5064 168.233 33.6413C168.1 33.7763 167.924 33.8911 167.704 33.9858C167.483 34.0805 167.215 34.1278 166.898 34.1278ZM167.025 33.375C167.357 33.375 167.636 33.3099 167.863 33.1797C168.093 33.0495 168.266 32.8814 168.382 32.6754C168.5 32.4695 168.559 32.2528 168.559 32.0256V31.2585C168.524 31.3011 168.446 31.3402 168.325 31.3757C168.207 31.4089 168.069 31.4384 167.913 31.4645C167.759 31.4882 167.609 31.5095 167.462 31.5284C167.318 31.545 167.201 31.5592 167.111 31.571C166.893 31.5994 166.689 31.6456 166.5 31.7095C166.313 31.7711 166.161 31.8646 166.045 31.9901C165.932 32.1132 165.875 32.2812 165.875 32.4943C165.875 32.7855 165.983 33.0057 166.198 33.1548C166.416 33.3016 166.692 33.375 167.025 33.375ZM178.2 28.5455L176.183 34H175.331L173.314 28.5455H174.223L175.728 32.892H175.785L177.291 28.5455H178.2ZM180.745 34.1278C180.4 34.1278 180.086 34.0627 179.804 33.9325C179.522 33.8 179.299 33.6094 179.133 33.3608C178.967 33.1098 178.884 32.8068 178.884 32.4517C178.884 32.1392 178.946 31.8859 179.069 31.6918C179.192 31.4953 179.357 31.3414 179.563 31.2301C179.769 31.1188 179.996 31.036 180.244 30.9815C180.495 30.9247 180.748 30.8797 181.001 30.8466C181.332 30.804 181.601 30.772 181.807 30.7507C182.015 30.727 182.167 30.688 182.262 30.6335C182.359 30.5791 182.407 30.4844 182.407 30.3494V30.321C182.407 29.9706 182.311 29.6984 182.119 29.5043C181.93 29.3101 181.642 29.2131 181.257 29.2131C180.856 29.2131 180.543 29.3007 180.316 29.4759C180.088 29.651 179.928 29.8381 179.836 30.0369L179.041 29.7528C179.183 29.4214 179.372 29.1634 179.609 28.9787C179.848 28.7917 180.108 28.6615 180.39 28.5881C180.674 28.5123 180.954 28.4744 181.228 28.4744C181.403 28.4744 181.605 28.4957 181.832 28.5384C182.061 28.5786 182.283 28.6626 182.496 28.7905C182.711 28.9183 182.89 29.1113 183.032 29.3693C183.174 29.6274 183.245 29.973 183.245 30.4062V34H182.407V33.2614H182.365C182.308 33.3797 182.213 33.5064 182.08 33.6413C181.948 33.7763 181.771 33.8911 181.551 33.9858C181.331 34.0805 181.062 34.1278 180.745 34.1278ZM180.873 33.375C181.204 33.375 181.484 33.3099 181.711 33.1797C181.941 33.0495 182.114 32.8814 182.23 32.6754C182.348 32.4695 182.407 32.2528 182.407 32.0256V31.2585C182.372 31.3011 182.294 31.3402 182.173 31.3757C182.054 31.4089 181.917 31.4384 181.761 31.4645C181.607 31.4882 181.457 31.5095 181.31 31.5284C181.165 31.545 181.048 31.5592 180.958 31.571C180.74 31.5994 180.537 31.6456 180.347 31.7095C180.16 31.7711 180.009 31.8646 179.893 31.9901C179.779 32.1132 179.722 32.2812 179.722 32.4943C179.722 32.7855 179.83 33.0057 180.046 33.1548C180.263 33.3016 180.539 33.375 180.873 33.375ZM188.638 29.767L187.886 29.9801C187.838 29.8546 187.768 29.7327 187.676 29.6143C187.586 29.4936 187.463 29.3942 187.307 29.3161C187.151 29.2379 186.951 29.1989 186.707 29.1989C186.373 29.1989 186.095 29.2758 185.872 29.4297C185.652 29.5812 185.542 29.7741 185.542 30.0085C185.542 30.2169 185.618 30.3814 185.769 30.5021C185.921 30.6229 186.157 30.7235 186.479 30.804L187.289 31.0028C187.777 31.1212 188.14 31.3023 188.379 31.5462C188.618 31.7876 188.738 32.099 188.738 32.4801C188.738 32.7926 188.648 33.072 188.468 33.3182C188.29 33.5644 188.042 33.7585 187.722 33.9006C187.403 34.0426 187.031 34.1136 186.607 34.1136C186.051 34.1136 185.59 33.9929 185.226 33.7514C184.861 33.5099 184.63 33.1572 184.533 32.6932L185.329 32.4943C185.405 32.7879 185.548 33.008 185.759 33.1548C185.972 33.3016 186.25 33.375 186.593 33.375C186.984 33.375 187.294 33.2921 187.523 33.1264C187.755 32.9583 187.871 32.7571 187.871 32.5227C187.871 32.3333 187.805 32.1747 187.673 32.0469C187.54 31.9167 187.336 31.8196 187.062 31.7557L186.153 31.5426C185.653 31.4242 185.286 31.2408 185.052 30.9922C184.82 30.7412 184.704 30.4276 184.704 30.0511C184.704 29.7434 184.79 29.4711 184.963 29.2344C185.138 28.9976 185.376 28.8118 185.677 28.6768C185.98 28.5419 186.323 28.4744 186.707 28.4744C187.246 28.4744 187.67 28.5928 187.978 28.8295C188.288 29.0663 188.508 29.3788 188.638 29.767ZM185.968 26.358L186.707 27.3523L187.445 26.358H188.241V26.4148L187.09 27.892H186.323L185.173 26.4148V26.358H185.968ZM189.999 34V28.5455H190.838V34H189.999ZM190.426 27.6364C190.262 27.6364 190.121 27.5807 190.003 27.4695C189.887 27.3582 189.829 27.2244 189.829 27.0682C189.829 26.9119 189.887 26.7782 190.003 26.6669C190.121 26.5556 190.262 26.5 190.426 26.5C190.589 26.5 190.729 26.5556 190.845 26.6669C190.963 26.7782 191.022 26.9119 191.022 27.0682C191.022 27.2244 190.963 27.3582 190.845 27.4695C190.729 27.5807 190.589 27.6364 190.426 27.6364ZM194.588 34.1136C194.077 34.1136 193.637 33.9929 193.267 33.7514C192.898 33.5099 192.614 33.1773 192.415 32.7536C192.216 32.3298 192.117 31.8456 192.117 31.3011C192.117 30.7472 192.219 30.2583 192.422 29.8345C192.628 29.4084 192.915 29.0758 193.282 28.8366C193.651 28.5952 194.082 28.4744 194.574 28.4744C194.958 28.4744 195.303 28.5455 195.611 28.6875C195.919 28.8295 196.171 29.0284 196.368 29.2841C196.564 29.5398 196.686 29.8381 196.733 30.179H195.895C195.831 29.9304 195.689 29.7102 195.469 29.5185C195.251 29.3243 194.958 29.2273 194.588 29.2273C194.262 29.2273 193.975 29.3125 193.729 29.483C193.485 29.651 193.295 29.889 193.157 30.1967C193.022 30.5021 192.955 30.8608 192.955 31.2727C192.955 31.6941 193.021 32.0611 193.154 32.3736C193.289 32.6861 193.478 32.9287 193.722 33.1016C193.968 33.2744 194.257 33.3608 194.588 33.3608C194.806 33.3608 195.004 33.3229 195.181 33.2472C195.359 33.1714 195.509 33.0625 195.632 32.9205C195.756 32.7784 195.843 32.608 195.895 32.4091H196.733C196.686 32.7311 196.569 33.0211 196.382 33.2791C196.197 33.5348 195.952 33.7384 195.647 33.8899C195.344 34.0391 194.991 34.1136 194.588 34.1136ZM198.797 30.7188V34H197.958V26.7273H198.797V29.3977H198.868C198.995 29.116 199.187 28.8923 199.443 28.7266C199.701 28.5585 200.044 28.4744 200.473 28.4744C200.844 28.4744 201.17 28.549 201.449 28.6982C201.729 28.8449 201.945 29.071 202.099 29.3764C202.255 29.6795 202.333 30.0653 202.333 30.5341V34H201.495V30.5909C201.495 30.1577 201.383 29.8227 201.158 29.5859C200.935 29.3468 200.627 29.2273 200.231 29.2273C199.957 29.2273 199.71 29.2853 199.493 29.4013C199.277 29.5173 199.107 29.6866 198.981 29.9091C198.858 30.1316 198.797 30.4015 198.797 30.7188ZM206.679 36.0455V28.5455H207.489V29.4119H207.588C207.65 29.3172 207.735 29.1965 207.844 29.0497C207.955 28.9006 208.114 28.768 208.32 28.652C208.528 28.5336 208.81 28.4744 209.165 28.4744C209.624 28.4744 210.029 28.5893 210.379 28.8189C210.73 29.0485 211.003 29.3741 211.2 29.7955C211.396 30.2169 211.494 30.714 211.494 31.2869C211.494 31.8646 211.396 32.3653 211.2 32.7891C211.003 33.2105 210.731 33.5372 210.383 33.7692C210.035 33.9988 209.634 34.1136 209.179 34.1136C208.829 34.1136 208.548 34.0556 208.338 33.9396C208.127 33.8213 207.965 33.6875 207.851 33.5384C207.737 33.3868 207.65 33.2614 207.588 33.1619H207.517V36.0455H206.679ZM207.503 31.2727C207.503 31.6847 207.563 32.0481 207.684 32.3629C207.805 32.6754 207.981 32.9205 208.213 33.098C208.445 33.2732 208.729 33.3608 209.066 33.3608C209.416 33.3608 209.708 33.2685 209.943 33.0838C210.179 32.8968 210.357 32.6458 210.475 32.331C210.596 32.0137 210.656 31.661 210.656 31.2727C210.656 30.8892 210.597 30.5436 210.479 30.2358C210.363 29.9257 210.186 29.6806 209.95 29.5007C209.715 29.3184 209.421 29.2273 209.066 29.2273C208.725 29.2273 208.438 29.3137 208.206 29.4865C207.974 29.657 207.799 29.8961 207.681 30.2038C207.562 30.5092 207.503 30.8655 207.503 31.2727ZM212.773 34V28.5455H213.583V29.3693H213.639C213.739 29.0994 213.919 28.8804 214.179 28.7124C214.44 28.5443 214.733 28.4602 215.06 28.4602C215.121 28.4602 215.198 28.4614 215.291 28.4638C215.383 28.4661 215.453 28.4697 215.5 28.4744V29.3267C215.472 29.3196 215.407 29.3089 215.305 29.2947C215.205 29.2782 215.1 29.2699 214.989 29.2699C214.724 29.2699 214.487 29.3255 214.279 29.4368C214.073 29.5457 213.909 29.6972 213.789 29.8913C213.67 30.0831 213.611 30.3021 213.611 30.5483V34H212.773ZM218.615 34.1136C218.089 34.1136 217.636 33.9976 217.254 33.7656C216.876 33.5312 216.583 33.2045 216.377 32.7855C216.174 32.3641 216.072 31.8741 216.072 31.3153C216.072 30.7566 216.174 30.2642 216.377 29.8381C216.583 29.4096 216.87 29.0758 217.237 28.8366C217.606 28.5952 218.037 28.4744 218.529 28.4744C218.813 28.4744 219.094 28.5218 219.371 28.6165C219.648 28.7112 219.9 28.8651 220.127 29.0781C220.355 29.2888 220.536 29.5682 220.671 29.9162C220.806 30.2642 220.873 30.6927 220.873 31.2017V31.5568H216.669V30.8324H220.021C220.021 30.5246 219.959 30.25 219.836 30.0085C219.715 29.767 219.543 29.5765 219.318 29.4368C219.095 29.2971 218.832 29.2273 218.529 29.2273C218.195 29.2273 217.907 29.3101 217.663 29.4759C217.421 29.6392 217.235 29.8523 217.105 30.1151C216.975 30.3778 216.91 30.6596 216.91 30.9602V31.4432C216.91 31.8551 216.981 32.2043 217.123 32.4908C217.267 32.7749 217.468 32.9915 217.723 33.1406C217.979 33.2874 218.276 33.3608 218.615 33.3608C218.835 33.3608 219.034 33.33 219.211 33.2685C219.391 33.2045 219.546 33.1098 219.676 32.9844C219.807 32.8565 219.907 32.6979 219.978 32.5085L220.788 32.7358C220.703 33.0104 220.559 33.2519 220.358 33.4602C220.157 33.6662 219.908 33.8272 219.612 33.9432C219.316 34.0568 218.984 34.1136 218.615 34.1136ZM224.208 34.1136C223.753 34.1136 223.352 33.9988 223.004 33.7692C222.656 33.5372 222.383 33.2105 222.187 32.7891C221.99 32.3653 221.892 31.8646 221.892 31.2869C221.892 30.714 221.99 30.2169 222.187 29.7955C222.383 29.3741 222.657 29.0485 223.007 28.8189C223.358 28.5893 223.762 28.4744 224.222 28.4744C224.577 28.4744 224.857 28.5336 225.063 28.652C225.272 28.768 225.43 28.9006 225.539 29.0497C225.651 29.1965 225.737 29.3172 225.798 29.4119H225.869V26.7273H226.708V34H225.898V33.1619H225.798C225.737 33.2614 225.649 33.3868 225.536 33.5384C225.422 33.6875 225.26 33.8213 225.049 33.9396C224.838 34.0556 224.558 34.1136 224.208 34.1136ZM224.321 33.3608C224.657 33.3608 224.941 33.2732 225.173 33.098C225.405 32.9205 225.582 32.6754 225.703 32.3629C225.823 32.0481 225.884 31.6847 225.884 31.2727C225.884 30.8655 225.825 30.5092 225.706 30.2038C225.588 29.8961 225.413 29.657 225.181 29.4865C224.949 29.3137 224.662 29.2273 224.321 29.2273C223.966 29.2273 223.67 29.3184 223.433 29.5007C223.199 29.6806 223.023 29.9257 222.904 30.2358C222.788 30.5436 222.73 30.8892 222.73 31.2727C222.73 31.661 222.789 32.0137 222.908 32.331C223.029 32.6458 223.206 32.8968 223.441 33.0838C223.677 33.2685 223.971 33.3608 224.321 33.3608ZM232.222 29.767L231.47 29.9801C231.422 29.8546 231.352 29.7327 231.26 29.6143C231.17 29.4936 231.047 29.3942 230.891 29.3161C230.735 29.2379 230.535 29.1989 230.291 29.1989C229.957 29.1989 229.679 29.2758 229.456 29.4297C229.236 29.5812 229.126 29.7741 229.126 30.0085C229.126 30.2169 229.202 30.3814 229.353 30.5021C229.505 30.6229 229.741 30.7235 230.063 30.804L230.873 31.0028C231.361 31.1212 231.724 31.3023 231.963 31.5462C232.202 31.7876 232.322 32.099 232.322 32.4801C232.322 32.7926 232.232 33.072 232.052 33.3182C231.874 33.5644 231.626 33.7585 231.306 33.9006C230.987 34.0426 230.615 34.1136 230.191 34.1136C229.635 34.1136 229.174 33.9929 228.81 33.7514C228.445 33.5099 228.214 33.1572 228.117 32.6932L228.913 32.4943C228.989 32.7879 229.132 33.008 229.343 33.1548C229.556 33.3016 229.834 33.375 230.177 33.375C230.568 33.375 230.878 33.2921 231.107 33.1264C231.339 32.9583 231.455 32.7571 231.455 32.5227C231.455 32.3333 231.389 32.1747 231.257 32.0469C231.124 31.9167 230.92 31.8196 230.646 31.7557L229.737 31.5426C229.237 31.4242 228.87 31.2408 228.636 30.9922C228.404 30.7412 228.288 30.4276 228.288 30.0511C228.288 29.7434 228.374 29.4711 228.547 29.2344C228.722 28.9976 228.96 28.8118 229.261 28.6768C229.564 28.5419 229.907 28.4744 230.291 28.4744C230.83 28.4744 231.254 28.5928 231.562 28.8295C231.872 29.0663 232.092 29.3788 232.222 29.767ZM235.956 28.5455V29.2557H233.129V28.5455H235.956ZM233.953 27.2386H234.791V32.4375C234.791 32.6742 234.825 32.8518 234.894 32.9702C234.965 33.0862 235.055 33.1643 235.164 33.2045C235.275 33.2424 235.392 33.2614 235.515 33.2614C235.608 33.2614 235.683 33.2566 235.743 33.2472C235.802 33.2353 235.849 33.2259 235.885 33.2188L236.055 33.9716C235.998 33.9929 235.919 34.0142 235.817 34.0355C235.715 34.0592 235.586 34.071 235.43 34.071C235.193 34.071 234.961 34.0201 234.734 33.9183C234.509 33.8165 234.322 33.6615 234.173 33.4531C234.026 33.2448 233.953 32.982 233.953 32.6648V27.2386ZM238.821 34.1278C238.476 34.1278 238.162 34.0627 237.88 33.9325C237.599 33.8 237.375 33.6094 237.209 33.3608C237.043 33.1098 236.961 32.8068 236.961 32.4517C236.961 32.1392 237.022 31.8859 237.145 31.6918C237.268 31.4953 237.433 31.3414 237.639 31.2301C237.845 31.1188 238.072 31.036 238.321 30.9815C238.572 30.9247 238.824 30.8797 239.077 30.8466C239.408 30.804 239.677 30.772 239.883 30.7507C240.092 30.727 240.243 30.688 240.338 30.6335C240.435 30.5791 240.483 30.4844 240.483 30.3494V30.321C240.483 29.9706 240.387 29.6984 240.196 29.5043C240.006 29.3101 239.719 29.2131 239.333 29.2131C238.933 29.2131 238.619 29.3007 238.392 29.4759C238.164 29.651 238.005 29.8381 237.912 30.0369L237.117 29.7528C237.259 29.4214 237.448 29.1634 237.685 28.9787C237.924 28.7917 238.185 28.6615 238.466 28.5881C238.75 28.5123 239.03 28.4744 239.304 28.4744C239.48 28.4744 239.681 28.4957 239.908 28.5384C240.138 28.5786 240.359 28.6626 240.572 28.7905C240.788 28.9183 240.966 29.1113 241.108 29.3693C241.25 29.6274 241.321 29.973 241.321 30.4062V34H240.483V33.2614H240.441C240.384 33.3797 240.289 33.5064 240.157 33.6413C240.024 33.7763 239.848 33.8911 239.627 33.9858C239.407 34.0805 239.139 34.1278 238.821 34.1278ZM238.949 33.375C239.281 33.375 239.56 33.3099 239.787 33.1797C240.017 33.0495 240.19 32.8814 240.306 32.6754C240.424 32.4695 240.483 32.2528 240.483 32.0256V31.2585C240.448 31.3011 240.37 31.3402 240.249 31.3757C240.131 31.4089 239.993 31.4384 239.837 31.4645C239.683 31.4882 239.533 31.5095 239.386 31.5284C239.242 31.545 239.124 31.5592 239.034 31.571C238.817 31.5994 238.613 31.6456 238.424 31.7095C238.237 31.7711 238.085 31.8646 237.969 31.9901C237.855 32.1132 237.799 32.2812 237.799 32.4943C237.799 32.7855 237.906 33.0057 238.122 33.1548C238.34 33.3016 238.615 33.375 238.949 33.375ZM238.978 27.8068L239.844 26.1591H240.824L239.716 27.8068H238.978ZM247.116 28.5455L245.099 34H244.247L242.23 28.5455H243.139L244.644 32.892H244.701L246.207 28.5455H247.116ZM248.491 34.0568C248.316 34.0568 248.166 33.9941 248.04 33.8686C247.915 33.7431 247.852 33.5928 247.852 33.4176C247.852 33.2424 247.915 33.0921 248.04 32.9666C248.166 32.8411 248.316 32.7784 248.491 32.7784C248.666 32.7784 248.817 32.8411 248.942 32.9666C249.068 33.0921 249.13 33.2424 249.13 33.4176C249.13 33.5336 249.101 33.6402 249.042 33.7372C248.985 33.8343 248.908 33.9124 248.811 33.9716C248.716 34.0284 248.609 34.0568 248.491 34.0568Z" fill="#4B5563"/>
<defs>
<linearGradient id="paint0_linear_185_2127" x1="21.6263" y1="33.8924" x2="20.8663" y2="38.7429" gradientUnits="userSpaceOnUse">
<stop stop-color="#83807F"/>
<stop offset="1" stop-color="#959798"/>
</linearGradient>
<linearGradient id="paint1_linear_185_2127" x1="7.72403" y1="21.9364" x2="7.8811" y2="23.2496" gradientUnits="userSpaceOnUse">
<stop stop-color="#646362"/>
<stop offset="1" stop-color="#8D8B8A"/>
</linearGradient>
<linearGradient id="paint2_linear_185_2127" x1="31.8575" y1="22.0869" x2="35.172" y2="23.3899" gradientUnits="userSpaceOnUse">
<stop stop-color="#747476"/>
<stop offset="1" stop-color="#8B8B8C"/>
</linearGradient>
<linearGradient id="paint3_linear_185_2127" x1="30.0907" y1="22.3054" x2="31.3679" y2="23.0146" gradientUnits="userSpaceOnUse">
<stop stop-color="#363940"/>
<stop offset="1" stop-color="#5E5B5D"/>
</linearGradient>
<linearGradient id="paint4_linear_185_2127" x1="34.3362" y1="31.8502" x2="35.7804" y2="32.0554" gradientUnits="userSpaceOnUse">
<stop stop-color="#373A3B"/>
<stop offset="1" stop-color="#625E61"/>
</linearGradient>
<linearGradient id="paint5_linear_185_2127" x1="24.1532" y1="30.5098" x2="23.8653" y2="32.0392" gradientUnits="userSpaceOnUse">
<stop stop-color="#909494"/>
<stop offset="1" stop-color="#DBD1CD"/>
</linearGradient>
<linearGradient id="paint6_linear_185_2127" x1="18.3065" y1="31.926" x2="18.2047" y2="30.6981" gradientUnits="userSpaceOnUse">
<stop stop-color="#DCD5D5"/>
<stop offset="1" stop-color="#ABAEA9"/>
</linearGradient>
<linearGradient id="paint7_linear_185_2127" x1="20.9665" y1="30.4432" x2="21.024" y2="31.4386" gradientUnits="userSpaceOnUse">
<stop stop-color="#262625" stop-opacity="0.980392"/>
<stop offset="1" stop-color="#3D393A"/>
</linearGradient>
<linearGradient id="paint8_linear_185_2127" x1="18.4005" y1="14.6958" x2="18.9823" y2="14.4066" gradientUnits="userSpaceOnUse">
<stop stop-color="#6D7177"/>
<stop offset="1" stop-color="#8C878A"/>
</linearGradient>
<clipPath id="clip0_185_2127">
<rect width="40" height="40" fill="white"/>
</clipPath>
</defs>
</svg>
